Topmarks-Book.ufo
<glyph name="exclam" format="1">
  <advance width="747"/>
  <unicode hex="0021"/>
  <outline>
    <contour>
      <point x="378" y="-6" type="curve" smooth="yes"/>
      <point x="435" y="-6"/>
      <point x="492" y="35"/>
      <point x="492" y="105" type="curve" smooth="yes"/>
      <point x="492" y="165"/>
      <point x="452" y="217"/>
      <point x="379" y="217" type="curve" smooth="yes"/>
      <point x="322" y="217"/>
      <point x="265" y="176"/>
      <point x="265" y="106" type="curve" smooth="yes"/>
      <point x="265" y="46"/>
      <point x="305" y="-6"/>
    </contour>
    <contour>
      <point x="331" y="373" type="line"/>
      <point x="417" y="373" type="line"/>
      <point x="467" y="1456" type="line"/>
      <point x="280" y="1456" type="line"/>
    </contour>
  </outline>
</glyph>
<glyph name="quotedbl" format="1">
  <advance width="730"/>
  <unicode hex="0022"/>
  <outline>
    <contour>
      <point x="160" y="931" type="line"/>
      <point x="124" y="1456" type="line"/>
      <point x="291" y="1456" type="line"/>
      <point x="269" y="931" type="line"/>
    </contour>
    <contour>
      <point x="449" y="931" type="line"/>
      <point x="413" y="1456" type="line"/>
      <point x="579" y="1456" type="line"/>
      <point x="557" y="931" type="line"/>
    </contour>
  </outline>
</glyph>
<glyph name="numbersign" format="1">
  <advance width="1248"/>
  <unicode hex="0023"/>
  <outline>
    <contour>
      <point x="221" y="60" type="line"/>
      <point x="367" y="60" type="line"/>
      <point x="449" y="485" type="line"/>
      <point x="710" y="485" type="line"/>
      <point x="630" y="60" type="line"/>
      <point x="775" y="60" type="line"/>
      <point x="858" y="485" type="line"/>
      <point x="1118" y="485" type="line"/>
      <point x="1132" y="611" type="line"/>
      <point x="880" y="611" type="line"/>
      <point x="931" y="886" type="line"/>
      <point x="1181" y="886" type="line"/>
      <point x="1195" y="1010" type="line"/>
      <point x="954" y="1010" type="line"/>
      <point x="1032" y="1420" type="line"/>
      <point x="886" y="1420" type="line"/>
      <point x="810" y="1010" type="line"/>
      <point x="549" y="1010" type="line"/>
      <point x="626" y="1420" type="line"/>
      <point x="480" y="1420" type="line"/>
      <point x="401" y="1010" type="line"/>
      <point x="131" y="1010" type="line"/>
      <point x="118" y="886" type="line"/>
      <point x="379" y="886" type="line"/>
      <point x="362" y="793"/>
      <point x="345" y="705"/>
      <point x="329" y="611" type="curve"/>
      <point x="64" y="611" type="line"/>
      <point x="53" y="485" type="line"/>
      <point x="305" y="485" type="line"/>
    </contour>
    <contour>
      <point x="471" y="611" type="line"/>
      <point x="525" y="886" type="line"/>
      <point x="786" y="886" type="line"/>
      <point x="735" y="611" type="line"/>
    </contour>
  </outline>
</glyph>
<glyph name="dollar" format="1">
  <advance width="1244"/>
  <unicode hex="0024"/>
  <outline>
    <contour>
      <point x="573" y="-196" type="line"/>
      <point x="573" y="1627" type="line"/>
      <point x="682" y="1627" type="line"/>
      <point x="682" y="-196" type="line"/>
    </contour>
    <component base="S" xOffset="26"/>
  </outline>
</glyph>
<glyph name="percent" format="1">
  <advance width="1788"/>
  <unicode hex="0025"/>
  <outline>
    <contour>
      <point x="366" y="0" type="line"/>
      <point x="1266" y="1456" type="line"/>
      <point x="1415" y="1456" type="line"/>
      <point x="520" y="0" type="line"/>
    </contour>
    <contour>
      <point x="1353" y="-24" type="curve" smooth="yes"/>
      <point x="1125" y="-24"/>
      <point x="1009" y="149"/>
      <point x="1009" y="354" type="curve" smooth="yes"/>
      <point x="1009" y="593"/>
      <point x="1153" y="738"/>
      <point x="1358" y="738" type="curve" smooth="yes"/>
      <point x="1577" y="738"/>
      <point x="1701" y="585"/>
      <point x="1701" y="359" type="curve" smooth="yes"/>
      <point x="1701" y="121"/>
      <point x="1557" y="-24"/>
    </contour>
    <contour>
      <point x="435" y="831" type="curve" smooth="yes"/>
      <point x="576" y="831"/>
      <point x="636" y="956"/>
      <point x="636" y="1102" type="curve" smooth="yes"/>
      <point x="636" y="1249"/>
      <point x="576" y="1367"/>
      <point x="436" y="1367" type="curve" smooth="yes"/>
      <point x="294" y="1367"/>
      <point x="232" y="1242"/>
      <point x="232" y="1095" type="curve" smooth="yes"/>
      <point x="232" y="940"/>
      <point x="297" y="831"/>
    </contour>
    <contour>
      <point x="1356" y="89" type="curve" smooth="yes"/>
      <point x="1497" y="89"/>
      <point x="1557" y="214"/>
      <point x="1557" y="360" type="curve" smooth="yes"/>
      <point x="1557" y="507"/>
      <point x="1497" y="625"/>
      <point x="1357" y="625" type="curve" smooth="yes"/>
      <point x="1215" y="625"/>
      <point x="1153" y="500"/>
      <point x="1153" y="353" type="curve" smooth="yes"/>
      <point x="1153" y="198"/>
      <point x="1218" y="89"/>
    </contour>
    <contour>
      <point x="432" y="718" type="curve" smooth="yes"/>
      <point x="204" y="718"/>
      <point x="88" y="891"/>
      <point x="88" y="1096" type="curve" smooth="yes"/>
      <point x="88" y="1335"/>
      <point x="232" y="1480"/>
      <point x="437" y="1480" type="curve" smooth="yes"/>
      <point x="656" y="1480"/>
      <point x="780" y="1327"/>
      <point x="780" y="1101" type="curve" smooth="yes"/>
      <point x="780" y="863"/>
      <point x="636" y="718"/>
    </contour>
  </outline>
</glyph>
<glyph name="ampersand" format="1">
  <advance width="1541"/>
  <unicode hex="0026"/>
  <outline>
    <contour>
      <point x="593" y="-24" type="curve" smooth="yes"/>
      <point x="304" y="-24"/>
      <point x="93" y="139"/>
      <point x="93" y="401" type="curve" smooth="yes"/>
      <point x="93" y="658"/>
      <point x="303" y="766"/>
      <point x="442" y="858" type="curve"/>
      <point x="361" y="948"/>
      <point x="266" y="1041"/>
      <point x="266" y="1190" type="curve" smooth="yes"/>
      <point x="266" y="1390"/>
      <point x="413" y="1483"/>
      <point x="593" y="1483" type="curve" smooth="yes"/>
      <point x="788" y="1483"/>
      <point x="932" y="1376"/>
      <point x="932" y="1190" type="curve" smooth="yes"/>
      <point x="932" y="1014"/>
      <point x="774" y="901"/>
      <point x="651" y="825" type="curve"/>
      <point x="1030" y="401" type="line"/>
      <point x="1091" y="496"/>
      <point x="1137" y="622"/>
      <point x="1157" y="761" type="curve" smooth="yes"/>
      <point x="1164" y="806"/>
      <point x="1168" y="848"/>
      <point x="1168" y="890" type="curve"/>
      <point x="1325" y="869" type="line"/>
      <point x="1317" y="629"/>
      <point x="1238" y="430"/>
      <point x="1135" y="286" type="curve"/>
      <point x="1204" y="210"/>
      <point x="1265" y="151"/>
      <point x="1368" y="115" type="curve" smooth="yes"/>
      <point x="1397" y="105"/>
      <point x="1432" y="96"/>
      <point x="1471" y="87" type="curve"/>
      <point x="1347" y="-12" type="line"/>
      <point x="1207" y="10"/>
      <point x="1131" y="101"/>
      <point x="1050" y="187" type="curve"/>
      <point x="943" y="71"/>
      <point x="804" y="-24"/>
    </contour>
    <contour>
      <point x="590" y="126" type="curve" smooth="yes"/>
      <point x="762" y="126"/>
      <point x="864" y="197"/>
      <point x="951" y="292" type="curve"/>
      <point x="533" y="755" type="line"/>
      <point x="403" y="681"/>
      <point x="263" y="588"/>
      <point x="263" y="409" type="curve" smooth="yes"/>
      <point x="263" y="203"/>
      <point x="420" y="126"/>
    </contour>
    <contour>
      <point x="557" y="921" type="curve"/>
      <point x="657" y="981"/>
      <point x="778" y="1065"/>
      <point x="778" y="1186" type="curve" smooth="yes"/>
      <point x="778" y="1296"/>
      <point x="699" y="1349"/>
      <point x="601" y="1349" type="curve" smooth="yes"/>
      <point x="501" y="1349"/>
      <point x="423" y="1297"/>
      <point x="423" y="1186" type="curve" smooth="yes"/>
      <point x="423" y="1057"/>
      <point x="484" y="994"/>
    </contour>
  </outline>
</glyph>
<glyph name="quotesingle" format="1">
  <advance width="564"/>
  <unicode hex="0027"/>
  <outline>
    <contour>
      <point x="235" y="994" type="line"/>
      <point x="199" y="1456" type="line"/>
      <point x="365" y="1456" type="line"/>
      <point x="349" y="994" type="line"/>
    </contour>
  </outline>
</glyph>
<glyph name="parenleft" format="1">
  <advance width="636"/>
  <unicode hex="0028"/>
  <outline>
    <contour>
      <point x="431" y="-214" type="line"/>
      <point x="70" y="355"/>
      <point x="58" y="956"/>
      <point x="437" y="1551" type="curve"/>
      <point x="584" y="1551" type="line"/>
      <point x="229" y="993"/>
      <point x="245" y="320"/>
      <point x="580" y="-214" type="curve"/>
    </contour>
  </outline>
</glyph>
<glyph name="parenright" format="1">
  <advance width="600"/>
  <unicode hex="0029"/>
  <outline>
    <contour>
      <point x="81" y="-214" type="line"/>
      <point x="416" y="320"/>
      <point x="432" y="993"/>
      <point x="77" y="1551" type="curve"/>
      <point x="224" y="1551" type="line"/>
      <point x="603" y="956"/>
      <point x="591" y="355"/>
      <point x="230" y="-214" type="curve"/>
    </contour>
  </outline>
</glyph>
<glyph name="asterisk" format="1">
  <advance width="1250"/>
  <unicode hex="002A"/>
  <outline>
    <contour>
      <point x="790" y="742" type="line"/>
      <point x="636" y="1008" type="line"/>
      <point x="488" y="750" type="line"/>
      <point x="364" y="825" type="line"/>
      <point x="554" y="1063" type="line"/>
      <point x="282" y="1141" type="line"/>
      <point x="303" y="1276" type="line"/>
      <point x="585" y="1153" type="line"/>
      <point x="573" y="1253"/>
      <point x="557" y="1356"/>
      <point x="545" y="1456" type="curve"/>
      <point x="682" y="1456" type="line"/>
      <point x="682" y="1158" type="line"/>
      <point x="914" y="1279" type="line"/>
      <point x="978" y="1154" type="line"/>
      <point x="716" y="1066" type="line"/>
      <point x="916" y="815" type="line"/>
    </contour>
  </outline>
</glyph>
<glyph name="plus" format="1">
  <advance width="1233"/>
  <unicode hex="002B"/>
  <outline>
    <contour>
      <point x="541" y="202" type="line"/>
      <point x="541" y="675" type="line"/>
      <point x="120" y="675" type="line"/>
      <point x="120" y="814" type="line"/>
      <point x="544" y="814" type="line"/>
      <point x="544" y="1282" type="line"/>
      <point x="692" y="1282" type="line"/>
      <point x="692" y="814" type="line"/>
      <point x="1113" y="814" type="line"/>
      <point x="1113" y="675" type="line"/>
      <point x="690" y="675" type="line"/>
      <point x="690" y="202" type="line"/>
    </contour>
  </outline>
</glyph>
<glyph name="comma" format="1">
  <advance width="550"/>
  <unicode hex="002C"/>
  <outline>
    <contour>
      <point x="100" y="-310" type="line"/>
      <point x="207" y="207" type="line"/>
      <point x="394" y="207" type="line"/>
      <point x="231" y="-310" type="line"/>
    </contour>
  </outline>
</glyph>
<glyph name="hyphen" format="1">
  <advance width="1237"/>
  <unicode hex="002D"/>
  <outline>
    <contour>
      <point x="219" y="637" type="line"/>
      <point x="219" y="780" type="line"/>
      <point x="1018" y="780" type="line"/>
      <point x="1018" y="637" type="line"/>
    </contour>
  </outline>
</glyph>
<glyph name="period" format="1">
  <advance width="603"/>
  <unicode hex="002E"/>
  <outline>
    <contour>
      <point x="302" y="-16" type="curve" smooth="yes"/>
      <point x="233" y="-16"/>
      <point x="195" y="33"/>
      <point x="195" y="90" type="curve" smooth="yes"/>
      <point x="195" y="156"/>
      <point x="249" y="195"/>
      <point x="303" y="195" type="curve" smooth="yes"/>
      <point x="372" y="195"/>
      <point x="410" y="146"/>
      <point x="410" y="89" type="curve" smooth="yes"/>
      <point x="410" y="23"/>
      <point x="356" y="-16"/>
    </contour>
  </outline>
</glyph>
<glyph name="slash" format="1">
  <advance width="853"/>
  <unicode hex="002F"/>
  <outline>
    <contour>
      <point x="31" y="0" type="line"/>
      <point x="656" y="1456" type="line"/>
      <point x="823" y="1456" type="line"/>
      <point x="194" y="0" type="line"/>
    </contour>
  </outline>
</glyph>
<glyph name="zero" format="1">
  <advance width="1274"/>
  <unicode hex="0030"/>
  <outline>
    <contour>
      <point x="638" y="126" type="curve" smooth="yes"/>
      <point x="889" y="126"/>
      <point x="949" y="509"/>
      <point x="949" y="779" type="curve" smooth="yes"/>
      <point x="949" y="1065"/>
      <point x="910" y="1436"/>
      <point x="638" y="1436" type="curve" smooth="yes"/>
      <point x="383" y="1436"/>
      <point x="325" y="1053"/>
      <point x="325" y="779" type="curve" smooth="yes"/>
      <point x="325" y="492"/>
      <point x="365" y="126"/>
    </contour>
    <contour>
      <point x="633" y="-24" type="curve" smooth="yes"/>
      <point x="258" y="-24"/>
      <point x="141" y="388"/>
      <point x="141" y="779" type="curve" smooth="yes"/>
      <point x="141" y="1172"/>
      <point x="266" y="1586"/>
      <point x="638" y="1586" type="curve" smooth="yes"/>
      <point x="1030" y="1586"/>
      <point x="1133" y="1186"/>
      <point x="1133" y="779" type="curve" smooth="yes"/>
      <point x="1133" y="394"/>
      <point x="999" y="-24"/>
    </contour>
  </outline>
</glyph>
<glyph name="one" format="1">
  <advance width="1316"/>
  <unicode hex="0031"/>
  <outline>
    <contour>
      <point x="744" y="0" type="line"/>
      <point x="572" y="0" type="line"/>
      <point x="572" y="1456" type="line"/>
      <point x="744" y="1456" type="line"/>
    </contour>
  </outline>
</glyph>
<glyph name="two" format="1">
  <advance width="1244"/>
  <unicode hex="0032"/>
  <outline>
    <contour>
      <point x="599.05" y="1481.65" type="curve" smooth="yes"/>
      <point x="852.867" y="1481.65"/>
      <point x="1032.07" y="1311.57"/>
      <point x="1039.07" y="1053.34" type="curve" smooth="yes"/>
      <point x="1045.37" y="840.827"/>
      <point x="936" y="683"/>
      <point x="752" y="485" type="curve" smooth="yes"/>
      <point x="440" y="150" type="line"/>
      <point x="1034" y="150" type="line"/>
      <point x="1034" y="0" type="line"/>
      <point x="203.1" y="0" type="line"/>
      <point x="203" y="140" type="line"/>
      <point x="631" y="613" type="line" smooth="yes"/>
      <point x="788" y="786"/>
      <point x="864" y="913"/>
      <point x="856" y="1054" type="curve"/>
      <point x="849" y="1208"/>
      <point x="731" y="1331"/>
      <point x="584" y="1331" type="curve" smooth="yes"/>
      <point x="387" y="1331"/>
      <point x="223" y="1204"/>
      <point x="222" y="1204" type="curve" smooth="yes"/>
      <point x="153.85" y="1339.95" type="line"/>
      <point x="153.85" y="1339.95"/>
      <point x="328.55" y="1481.65"/>
    </contour>
  </outline>
</glyph>
<glyph name="three" format="1">
  <advance width="1248"/>
  <unicode hex="0033"/>
  <outline>
    <contour>
      <point x="593" y="-25" type="curve" smooth="yes"/>
      <point x="877" y="-25"/>
      <point x="1136" y="116"/>
      <point x="1136" y="399" type="curve" smooth="yes"/>
      <point x="1136" y="617"/>
      <point x="983" y="725"/>
      <point x="800" y="762" type="curve"/>
      <point x="959" y="807"/>
      <point x="1096" y="909"/>
      <point x="1096" y="1110" type="curve" smooth="yes"/>
      <point x="1096" y="1357"/>
      <point x="874" y="1483"/>
      <point x="625" y="1483" type="curve" smooth="yes"/>
      <point x="415" y="1483"/>
      <point x="247" y="1395"/>
      <point x="186" y="1244" type="curve"/>
      <point x="286" y="1153" type="line"/>
      <point x="352" y="1264"/>
      <point x="455" y="1331"/>
      <point x="619" y="1331" type="curve" smooth="yes"/>
      <point x="782" y="1331"/>
      <point x="908" y="1271"/>
      <point x="908" y="1109" type="curve" smooth="yes"/>
      <point x="908" y="888"/>
      <point x="742" y="831"/>
      <point x="519" y="831" type="curve" smooth="yes"/>
      <point x="454" y="831" type="line"/>
      <point x="456" y="684" type="line"/>
      <point x="535" y="686" type="line" smooth="yes"/>
      <point x="764" y="693"/>
      <point x="954" y="628"/>
      <point x="954" y="402" type="curve" smooth="yes"/>
      <point x="954" y="214"/>
      <point x="793" y="127"/>
      <point x="603" y="127" type="curve" smooth="yes"/>
      <point x="428" y="127"/>
      <point x="307" y="202"/>
      <point x="258" y="330" type="curve"/>
      <point x="173" y="227" type="line"/>
      <point x="211" y="55"/>
      <point x="384" y="-25"/>
    </contour>
  </outline>
</glyph>
<glyph name="four" format="1">
  <advance width="1248"/>
  <unicode hex="0034"/>
  <outline>
    <contour>
      <point x="778" y="0" type="line"/>
      <point x="778" y="351" type="line"/>
      <point x="147" y="351" type="line"/>
      <point x="147" y="475" type="line"/>
      <point x="742" y="1456" type="line"/>
      <point x="950" y="1456" type="line"/>
      <point x="950" y="483" type="line"/>
      <point x="1164" y="483" type="line"/>
      <point x="1164" y="351" type="line"/>
      <point x="950" y="351" type="line"/>
      <point x="950" y="0" type="line"/>
    </contour>
    <contour>
      <point x="318" y="483" type="line"/>
      <point x="778" y="483" type="line"/>
      <point x="778" y="1271" type="line"/>
      <point x="687" y="1110" type="line"/>
    </contour>
  </outline>
</glyph>
<glyph name="five" format="1">
  <advance width="1248"/>
  <unicode hex="0035"/>
  <outline>
    <contour>
      <point x="181" y="173" type="line"/>
      <point x="257" y="55"/>
      <point x="391" y="-23"/>
      <point x="582" y="-23" type="curve" smooth="yes"/>
      <point x="878" y="-23"/>
      <point x="1102" y="134"/>
      <point x="1102" y="449" type="curve" smooth="yes"/>
      <point x="1102" y="703"/>
      <point x="935" y="905"/>
      <point x="633" y="905" type="curve" smooth="yes"/>
      <point x="530" y="905"/>
      <point x="455" y="879"/>
      <point x="386" y="839" type="curve"/>
      <point x="400" y="1311" type="line"/>
      <point x="1028" y="1311" type="line"/>
      <point x="1028" y="1456" type="line"/>
      <point x="237" y="1456" type="line"/>
      <point x="237" y="652" type="line"/>
      <point x="413" y="658" type="line"/>
      <point x="453" y="718"/>
      <point x="529" y="758"/>
      <point x="627" y="758" type="curve" smooth="yes"/>
      <point x="807" y="758"/>
      <point x="925" y="647"/>
      <point x="925" y="452" type="curve" smooth="yes"/>
      <point x="925" y="270"/>
      <point x="802" y="119"/>
      <point x="580" y="119" type="curve" smooth="yes"/>
      <point x="430" y="119"/>
      <point x="329" y="190"/>
      <point x="262" y="289" type="curve"/>
    </contour>
  </outline>
</glyph>
<glyph name="six" format="1">
  <advance width="1248"/>
  <unicode hex="0036"/>
  <outline>
    <contour>
      <point x="660" y="-22" type="curve" smooth="yes"/>
      <point x="919" y="-22"/>
      <point x="1124" y="175"/>
      <point x="1124" y="464" type="curve" smooth="yes"/>
      <point x="1124" y="735"/>
      <point x="940" y="946"/>
      <point x="672" y="946" type="curve" smooth="yes"/>
      <point x="562" y="946"/>
      <point x="381" y="890"/>
      <point x="316" y="768" type="curve"/>
      <point x="367" y="1072"/>
      <point x="574" y="1304"/>
      <point x="925" y="1351" type="curve"/>
      <point x="889" y="1484" type="line"/>
      <point x="277" y="1391"/>
      <point x="114" y="890"/>
      <point x="142" y="501" type="curve" smooth="yes"/>
      <point x="161" y="240"/>
      <point x="305" y="-22"/>
    </contour>
    <contour>
      <point x="658" y="120" type="curve" smooth="yes"/>
      <point x="433" y="120"/>
      <point x="309" y="292"/>
      <point x="309" y="469" type="curve" smooth="yes"/>
      <point x="309" y="660"/>
      <point x="449" y="810"/>
      <point x="642" y="810" type="curve" smooth="yes"/>
      <point x="856" y="810"/>
      <point x="957" y="652"/>
      <point x="957" y="459" type="curve" smooth="yes"/>
      <point x="957" y="254"/>
      <point x="842" y="120"/>
    </contour>
  </outline>
</glyph>
<glyph name="seven" format="1">
  <advance width="1248"/>
  <unicode hex="0037"/>
  <outline>
    <contour>
      <point x="351" y="0" type="line"/>
      <point x="931" y="1311" type="line"/>
      <point x="153" y="1311" type="line"/>
      <point x="153" y="1456" type="line"/>
      <point x="1123" y="1456" type="line"/>
      <point x="1123" y="1365" type="line"/>
      <point x="537" y="0" type="line"/>
    </contour>
  </outline>
</glyph>
<glyph name="eight" format="1">
  <advance width="1316"/>
  <unicode hex="0038"/>
  <outline>
    <contour>
      <point x="657" y="-24" type="curve" smooth="yes"/>
      <point x="381" y="-24"/>
      <point x="184" y="133"/>
      <point x="184" y="377" type="curve" smooth="yes"/>
      <point x="184" y="590"/>
      <point x="313" y="714"/>
      <point x="486" y="767" type="curve"/>
      <point x="334" y="816"/>
      <point x="219" y="928"/>
      <point x="219" y="1121" type="curve" smooth="yes"/>
      <point x="219" y="1381"/>
      <point x="431" y="1480"/>
      <point x="657" y="1480" type="curve" smooth="yes"/>
      <point x="916" y="1480"/>
      <point x="1097" y="1345"/>
      <point x="1097" y="1121" type="curve" smooth="yes"/>
      <point x="1097" y="928"/>
      <point x="973" y="816"/>
      <point x="821" y="767" type="curve"/>
      <point x="994" y="714"/>
      <point x="1132" y="590"/>
      <point x="1132" y="377" type="curve" smooth="yes"/>
      <point x="1132" y="101"/>
      <point x="922" y="-24"/>
    </contour>
    <contour>
      <point x="657" y="120" type="curve" smooth="yes"/>
      <point x="839" y="120"/>
      <point x="955" y="219"/>
      <point x="955" y="390" type="curve" smooth="yes"/>
      <point x="955" y="577"/>
      <point x="808" y="661"/>
      <point x="657" y="693" type="curve"/>
      <point x="494" y="659"/>
      <point x="361" y="563"/>
      <point x="361" y="390" type="curve" smooth="yes"/>
      <point x="361" y="211"/>
      <point x="484" y="120"/>
    </contour>
    <contour>
      <point x="657" y="840" type="curve"/>
      <point x="808" y="869"/>
      <point x="926" y="947"/>
      <point x="926" y="1116" type="curve" smooth="yes"/>
      <point x="926" y="1272"/>
      <point x="807" y="1344"/>
      <point x="657" y="1344" type="curve" smooth="yes"/>
      <point x="496" y="1344"/>
      <point x="390" y="1259"/>
      <point x="390" y="1116" type="curve" smooth="yes"/>
      <point x="390" y="947"/>
      <point x="506" y="869"/>
    </contour>
  </outline>
</glyph>
<glyph name="nine" format="1">
  <advance width="1244"/>
  <unicode hex="0039"/>
  <outline>
    <contour>
      <point x="990" y="1245" type="line"/>
      <point x="968" y="806"/>
      <point x="729" y="623"/>
      <point x="519" y="623" type="curve" smooth="yes"/>
      <point x="339" y="623"/>
      <point x="177" y="761"/>
      <point x="177" y="983" type="curve" smooth="yes"/>
      <point x="177" y="1220"/>
      <point x="335" y="1480"/>
      <point x="647" y="1480" type="curve" smooth="yes"/>
      <point x="800" y="1480"/>
      <point x="913" y="1441"/>
      <point x="990" y="1383" type="curve"/>
    </contour>
    <contour>
      <point x="818" y="1306" type="line"/>
      <point x="804" y="1315"/>
      <point x="749" y="1337"/>
      <point x="666" y="1337" type="curve" smooth="yes"/>
      <point x="451" y="1337"/>
      <point x="348" y="1156"/>
      <point x="348" y="991" type="curve" smooth="yes"/>
      <point x="348" y="851"/>
      <point x="427" y="758"/>
      <point x="540" y="758" type="curve" smooth="yes"/>
      <point x="667" y="758"/>
      <point x="818" y="887"/>
      <point x="818" y="1173" type="curve"/>
    </contour>
    <contour>
      <point x="824" y="0" type="line"/>
      <point x="824" y="1330" type="line"/>
      <point x="990" y="1330" type="line"/>
      <point x="990" y="0" type="line"/>
    </contour>
  </outline>
</glyph>
<glyph name="colon" format="1">
  <advance width="550"/>
  <unicode hex="003A"/>
  <outline>
    <contour>
      <point x="169" y="0" type="line"/>
      <point x="169" y="210" type="line"/>
      <point x="386" y="210" type="line"/>
      <point x="386" y="0" type="line"/>
    </contour>
    <contour>
      <point x="169" y="816" type="line"/>
      <point x="169" y="1026" type="line"/>
      <point x="386" y="1026" type="line"/>
      <point x="386" y="816" type="line"/>
    </contour>
  </outline>
</glyph>
<glyph name="semicolon" format="1">
  <advance width="540"/>
  <unicode hex="003B"/>
  <outline>
    <contour>
      <point x="100" y="-256" type="line"/>
      <point x="206" y="207" type="line"/>
      <point x="394" y="207" type="line"/>
      <point x="231" y="-256" type="line"/>
    </contour>
    <contour>
      <point x="159" y="816" type="line"/>
      <point x="159" y="1026" type="line"/>
      <point x="376" y="1026" type="line"/>
      <point x="376" y="816" type="line"/>
    </contour>
  </outline>
</glyph>
<glyph name="less" format="1">
  <advance width="1447"/>
  <unicode hex="003C"/>
  <outline>
    <contour>
      <point x="1212" y="48" type="line"/>
      <point x="229" y="508" type="line"/>
      <point x="229" y="595" type="line"/>
      <point x="1216" y="1067" type="line"/>
      <point x="1216" y="914" type="line"/>
      <point x="448" y="552" type="line"/>
      <point x="1212" y="200" type="line"/>
    </contour>
  </outline>
</glyph>
<glyph name="equal" format="1">
  <advance width="1242"/>
  <unicode hex="003D"/>
  <outline>
    <contour>
      <point x="190" y="403" type="line"/>
      <point x="1063" y="403" type="line"/>
      <point x="1063" y="540" type="line"/>
      <point x="190" y="540" type="line"/>
    </contour>
    <contour>
      <point x="189" y="809" type="line"/>
      <point x="1062" y="809" type="line"/>
      <point x="1062" y="947" type="line"/>
      <point x="189" y="947" type="line"/>
    </contour>
  </outline>
</glyph>
<glyph name="greater" format="1">
  <advance width="1411"/>
  <unicode hex="003E"/>
  <outline>
    <contour>
      <point x="232" y="58" type="line"/>
      <point x="232" y="212" type="line"/>
      <point x="1000" y="555" type="line"/>
      <point x="237" y="926" type="line"/>
      <point x="237" y="1078" type="line"/>
      <point x="1221" y="594" type="line"/>
      <point x="1221" y="505" type="line"/>
    </contour>
  </outline>
</glyph>
<glyph name="question" format="1">
  <advance width="1025"/>
  <unicode hex="003F"/>
  <outline>
    <contour>
      <point x="349" y="368" type="line"/>
      <point x="349" y="730"/>
      <point x="716" y="789"/>
      <point x="716" y="1125" type="curve" smooth="yes"/>
      <point x="716" y="1271"/>
      <point x="595" y="1328"/>
      <point x="461" y="1330" type="curve" smooth="yes"/>
      <point x="361" y="1332"/>
      <point x="252" y="1305"/>
      <point x="176" y="1262" type="curve"/>
      <point x="176" y="1413" type="line"/>
      <point x="256" y="1452"/>
      <point x="351" y="1483"/>
      <point x="457" y="1483" type="curve" smooth="yes"/>
      <point x="734" y="1483"/>
      <point x="885" y="1338"/>
      <point x="885" y="1133" type="curve" smooth="yes"/>
      <point x="885" y="760"/>
      <point x="474" y="678"/>
      <point x="474" y="368" type="curve"/>
    </contour>
    <contour>
      <point x="418" y="0" type="curve" smooth="yes"/>
      <point x="349" y="0"/>
      <point x="311" y="49"/>
      <point x="311" y="106" type="curve" smooth="yes"/>
      <point x="311" y="172"/>
      <point x="365" y="211"/>
      <point x="419" y="211" type="curve" smooth="yes"/>
      <point x="487" y="211"/>
      <point x="524" y="162"/>
      <point x="524" y="105" type="curve" smooth="yes"/>
      <point x="524" y="39"/>
      <point x="472" y="0"/>
    </contour>
  </outline>
</glyph>
<glyph name="at" format="1">
  <advance width="1849"/>
  <unicode hex="0040"/>
  <outline>
    <contour>
      <point x="949" y="-109" type="curve" smooth="yes"/>
      <point x="1201" y="-109"/>
      <point x="1401" y="-17"/>
      <point x="1524" y="122" type="curve"/>
      <point x="1447" y="192" type="line"/>
      <point x="1328" y="86"/>
      <point x="1163" y="12"/>
      <point x="954" y="12" type="curve" smooth="yes"/>
      <point x="568" y="12"/>
      <point x="284" y="281"/>
      <point x="284" y="677" type="curve" smooth="yes"/>
      <point x="284" y="1060"/>
      <point x="573" y="1357"/>
      <point x="948" y="1357" type="curve" smooth="yes"/>
      <point x="1291" y="1357"/>
      <point x="1563" y="1141"/>
      <point x="1563" y="796" type="curve" smooth="yes"/>
      <point x="1563" y="597"/>
      <point x="1448" y="350"/>
      <point x="1277" y="350" type="curve" smooth="yes"/>
      <point x="1219" y="350"/>
      <point x="1198" y="380"/>
      <point x="1198" y="436" type="curve" smooth="yes"/>
      <point x="1198" y="506"/>
      <point x="1251" y="711"/>
      <point x="1337" y="1107" type="curve"/>
      <point x="1197" y="1107" type="line"/>
      <point x="1179" y="1022" type="line"/>
      <point x="1142" y="1091"/>
      <point x="1061" y="1138"/>
      <point x="959" y="1138" type="curve" smooth="yes"/>
      <point x="717" y="1138"/>
      <point x="492" y="876"/>
      <point x="492" y="610" type="curve" smooth="yes"/>
      <point x="492" y="448"/>
      <point x="583" y="257"/>
      <point x="802" y="257" type="curve" smooth="yes"/>
      <point x="913" y="257"/>
      <point x="993" y="313"/>
      <point x="1049" y="384" type="curve"/>
      <point x="1067" y="276"/>
      <point x="1139" y="225"/>
      <point x="1257" y="225" type="curve" smooth="yes"/>
      <point x="1508" y="225"/>
      <point x="1716" y="507"/>
      <point x="1716" y="791" type="curve" smooth="yes"/>
      <point x="1716" y="1205"/>
      <point x="1367" y="1476"/>
      <point x="953" y="1476" type="curve" smooth="yes"/>
      <point x="503" y="1476"/>
      <point x="133" y="1143"/>
      <point x="133" y="679" type="curve" smooth="yes"/>
      <point x="133" y="216"/>
      <point x="491" y="-109"/>
    </contour>
    <contour>
      <point x="818" y="385" type="curve" smooth="yes"/>
      <point x="707" y="385"/>
      <point x="649" y="465"/>
      <point x="649" y="582" type="curve" smooth="yes"/>
      <point x="649" y="775"/>
      <point x="778" y="1007"/>
      <point x="961" y="1007" type="curve" smooth="yes"/>
      <point x="1072" y="1007"/>
      <point x="1116" y="936"/>
      <point x="1116" y="821" type="curve" smooth="yes"/>
      <point x="1116" y="622"/>
      <point x="998" y="385"/>
    </contour>
  </outline>
</glyph>
<glyph name="A" format="1">
  <advance width="1405"/>
  <unicode hex="0041"/>
  <outline>
    <contour>
      <point x="44" y="0" type="line"/>
      <point x="613" y="1456" type="line"/>
      <point x="791" y="1456" type="line"/>
      <point x="1361" y="0" type="line"/>
      <point x="1170" y="0" type="line"/>
      <point x="1020" y="395" type="line"/>
      <point x="379" y="395" type="line"/>
      <point x="230" y="0" type="line"/>
    </contour>
    <contour>
      <point x="431" y="531" type="line"/>
      <point x="968" y="531" type="line"/>
      <point x="798" y="997" type="line"/>
      <point x="702" y="1271" type="line"/>
      <point x="600" y="996" type="line"/>
    </contour>
  </outline>
</glyph>
<glyph name="B" format="1">
  <advance width="1270"/>
  <unicode hex="0042"/>
  <outline>
    <contour>
      <point x="174" y="0" type="line"/>
      <point x="174" y="1456" type="line"/>
      <point x="545" y="1456" type="line" smooth="yes"/>
      <point x="905" y="1456"/>
      <point x="1088" y="1357"/>
      <point x="1088" y="1105" type="curve" smooth="yes"/>
      <point x="1088" y="918"/>
      <point x="1013" y="823"/>
      <point x="855" y="769" type="curve"/>
      <point x="1051" y="730"/>
      <point x="1154" y="625"/>
      <point x="1154" y="403" type="curve" smooth="yes"/>
      <point x="1154" y="114"/>
      <point x="941" y="0"/>
      <point x="608" y="0" type="curve" smooth="yes"/>
    </contour>
    <contour>
      <point x="346" y="138" type="line"/>
      <point x="602" y="138" type="line" smooth="yes"/>
      <point x="859" y="138"/>
      <point x="972" y="214"/>
      <point x="972" y="406" type="curve" smooth="yes"/>
      <point x="972" y="602"/>
      <point x="855" y="684"/>
      <point x="558" y="684" type="curve" smooth="yes"/>
      <point x="346" y="684" type="line"/>
    </contour>
    <contour>
      <point x="346" y="825" type="line"/>
      <point x="529" y="825" type="line" smooth="yes"/>
      <point x="800" y="825"/>
      <point x="907" y="898"/>
      <point x="907" y="1077" type="curve" smooth="yes"/>
      <point x="907" y="1250"/>
      <point x="807" y="1318"/>
      <point x="545" y="1318" type="curve" smooth="yes"/>
      <point x="346" y="1318" type="line"/>
    </contour>
  </outline>
</glyph>
<glyph name="C" format="1">
  <advance width="1391"/>
  <unicode hex="0043"/>
  <outline>
    <contour>
      <point x="821.0" y="-22.0" type="curve" smooth="yes"/>
      <point x="410.0" y="-22.0"/>
      <point x="112.0" y="260.0"/>
      <point x="112.0" y="722.0" type="curve" smooth="yes"/>
      <point x="112.0" y="1161.0"/>
      <point x="394.0" y="1483.0"/>
      <point x="819.0" y="1483.0" type="curve" smooth="yes"/>
      <point x="1022.0" y="1483.0"/>
      <point x="1163.0" y="1425.0"/>
      <point x="1281.0" y="1332.0" type="curve"/>
      <point x="1203.0" y="1210.0" type="line"/>
      <point x="1099.0" y="1288.0"/>
      <point x="972.0" y="1331.0"/>
      <point x="838.0" y="1331.0" type="curve" smooth="yes"/>
      <point x="489.0" y="1331.0"/>
      <point x="295.0" y="1058.0"/>
      <point x="295.0" y="722.0" type="curve" smooth="yes"/>
      <point x="295.0" y="370.0"/>
      <point x="494.0" y="130.0"/>
      <point x="828.0" y="130.0" type="curve" smooth="yes"/>
      <point x="992.0" y="130.0"/>
      <point x="1128.0" y="178.0"/>
      <point x="1243.0" y="271.0" type="curve"/>
      <point x="1303.0" y="129.0" type="line"/>
      <point x="1174.0" y="29.0"/>
      <point x="1012.0" y="-22.0"/>
    </contour>
  </outline>
</glyph>
<glyph name="D" format="1">
  <advance width="1495"/>
  <unicode hex="0044"/>
  <outline>
    <contour>
      <point x="354" y="138" type="line"/>
      <point x="605" y="138" type="line" smooth="yes"/>
      <point x="975" y="138"/>
      <point x="1202" y="334"/>
      <point x="1202" y="721" type="curve" smooth="yes"/>
      <point x="1202" y="1178"/>
      <point x="943" y="1318"/>
      <point x="511" y="1318" type="curve" smooth="yes"/>
      <point x="354" y="1318" type="line"/>
    </contour>
    <contour>
      <point x="182" y="0" type="line"/>
      <point x="182" y="1456" type="line"/>
      <point x="491" y="1456" type="line" smooth="yes"/>
      <point x="1017" y="1456"/>
      <point x="1384" y="1273"/>
      <point x="1384" y="724" type="curve" smooth="yes"/>
      <point x="1384" y="241"/>
      <point x="1055" y="0"/>
      <point x="589" y="0" type="curve" smooth="yes"/>
    </contour>
  </outline>
</glyph>
<glyph name="E" format="1">
  <advance width="1174"/>
  <unicode hex="0045"/>
  <outline>
    <contour>
      <point x="182" y="0" type="line"/>
      <point x="182" y="1456" type="line"/>
      <point x="1029" y="1456" type="line"/>
      <point x="1029" y="1318" type="line"/>
      <point x="354" y="1318" type="line"/>
      <point x="354" y="820" type="line"/>
      <point x="991" y="820" type="line"/>
      <point x="991" y="672" type="line"/>
      <point x="354" y="672" type="line"/>
      <point x="354" y="138" type="line"/>
      <point x="1079" y="138" type="line"/>
      <point x="1079" y="0" type="line"/>
    </contour>
  </outline>
</glyph>
<glyph name="F" format="1">
  <advance width="1093"/>
  <unicode hex="0046"/>
  <outline>
    <contour>
      <point x="182" y="0" type="line"/>
      <point x="182" y="1456" type="line"/>
      <point x="1008" y="1456" type="line"/>
      <point x="1008" y="1318" type="line"/>
      <point x="354" y="1318" type="line"/>
      <point x="354" y="815" type="line"/>
      <point x="974" y="815" type="line"/>
      <point x="974" y="667" type="line"/>
      <point x="354" y="667" type="line"/>
      <point x="354" y="0" type="line"/>
    </contour>
  </outline>
</glyph>
<glyph name="G" format="1">
  <advance width="1493"/>
  <unicode hex="0047"/>
  <outline>
    <contour>
      <point x="122" y="752" type="curve" smooth="yes"/>
      <point x="122" y="1308"/>
      <point x="454" y="1587"/>
      <point x="821" y="1587" type="curve" smooth="yes"/>
      <point x="982" y="1587"/>
      <point x="1149" y="1533"/>
      <point x="1298" y="1427" type="curve"/>
      <point x="1224" y="1304" type="line"/>
      <point x="1090" y="1391"/>
      <point x="954" y="1434"/>
      <point x="830" y="1434" type="curve" smooth="yes"/>
      <point x="536" y="1434"/>
      <point x="305" y="1191"/>
      <point x="305" y="766" type="curve" smooth="yes"/>
      <point x="305" y="370"/>
      <point x="490" y="129"/>
      <point x="846" y="129" type="curve" smooth="yes"/>
      <point x="962" y="129"/>
      <point x="1065" y="142"/>
      <point x="1151" y="181" type="curve"/>
      <point x="1151" y="653" type="line"/>
      <point x="748" y="653" type="line"/>
      <point x="748" y="812" type="line"/>
      <point x="1323" y="812" type="line"/>
      <point x="1323" y="88" type="line"/>
      <point x="1178" y="15"/>
      <point x="1024" y="-24"/>
      <point x="833" y="-24" type="curve" smooth="yes"/>
      <point x="387" y="-24"/>
      <point x="122" y="258"/>
    </contour>
  </outline>
</glyph>
<glyph name="H" format="1">
  <advance width="1494"/>
  <unicode hex="0048"/>
  <outline>
    <contour>
      <point x="190" y="0" type="line"/>
      <point x="190" y="1456" type="line"/>
      <point x="362" y="1456" type="line"/>
      <point x="362" y="822" type="line"/>
      <point x="1133" y="822" type="line"/>
      <point x="1133" y="1456" type="line"/>
      <point x="1304" y="1456" type="line"/>
      <point x="1304" y="0" type="line"/>
      <point x="1133" y="0" type="line"/>
      <point x="1133" y="674" type="line"/>
      <point x="362" y="674" type="line"/>
      <point x="362" y="0" type="line"/>
    </contour>
  </outline>
</glyph>
<glyph name="I" format="1">
  <advance width="544"/>
  <unicode hex="0049"/>
  <outline>
    <contour>
      <point x="186" y="0" type="line"/>
      <point x="186" y="1456" type="line"/>
      <point x="358" y="1456" type="line"/>
      <point x="358" y="0" type="line"/>
    </contour>
  </outline>
</glyph>
<glyph name="J" format="1">
  <advance width="1041"/>
  <unicode hex="004A"/>
  <outline>
    <contour>
      <point x="41" y="-114" type="line"/>
      <point x="143" y="-163"/>
      <point x="245" y="-189"/>
      <point x="339" y="-189" type="curve" smooth="yes"/>
      <point x="573" y="-189"/>
      <point x="755" y="-29"/>
      <point x="755" y="336" type="curve" smooth="yes"/>
      <point x="755" y="1314" type="line"/>
      <point x="1027" y="1314" type="line"/>
      <point x="1027" y="1456" type="line"/>
      <point x="164" y="1456" type="line"/>
      <point x="164" y="1314" type="line"/>
      <point x="583" y="1314" type="line"/>
      <point x="583" y="334" type="line" smooth="yes"/>
      <point x="583" y="76"/>
      <point x="488" y="-39"/>
      <point x="330" y="-39" type="curve" smooth="yes"/>
      <point x="262" y="-39"/>
      <point x="182" y="-18"/>
      <point x="93" y="22" type="curve"/>
    </contour>
  </outline>
</glyph>
<glyph name="K" format="1">
  <advance width="1254"/>
  <unicode hex="004B"/>
  <outline>
    <contour>
      <point x="194" y="0" type="line"/>
      <point x="194" y="1560" type="line"/>
      <point x="366" y="1560" type="line"/>
      <point x="366" y="850" type="line"/>
      <point x="978" y="1560" type="line"/>
      <point x="1195" y="1560" type="line"/>
      <point x="548" y="819" type="line"/>
      <point x="1235" y="0" type="line"/>
      <point x="1015" y="0" type="line"/>
      <point x="366" y="779" type="line"/>
      <point x="366" y="0" type="line"/>
    </contour>
  </outline>
</glyph>
<glyph name="L" format="1">
  <advance width="1058"/>
  <unicode hex="004C"/>
  <outline>
    <contour>
      <point x="182" y="0" type="line"/>
      <point x="182" y="1456" type="line"/>
      <point x="354" y="1456" type="line"/>
      <point x="354" y="138" type="line"/>
      <point x="1035" y="138" type="line"/>
      <point x="1035" y="0" type="line"/>
    </contour>
  </outline>
</glyph>
<glyph name="M" format="1">
  <advance width="1950"/>
  <unicode hex="004D"/>
  <outline>
    <contour>
      <point x="202" y="0" type="line"/>
      <point x="202" y="1456" type="line"/>
      <point x="428" y="1456" type="line"/>
      <point x="893" y="579" type="line"/>
      <point x="976" y="420" type="line"/>
      <point x="1057" y="582" type="line"/>
      <point x="1536" y="1456" type="line"/>
      <point x="1748" y="1456" type="line"/>
      <point x="1748" y="0" type="line"/>
      <point x="1580" y="0" type="line"/>
      <point x="1580" y="1251" type="line"/>
      <point x="1505" y="1096" type="line"/>
      <point x="1034" y="220" type="line"/>
      <point x="913" y="220" type="line"/>
      <point x="439" y="1108" type="line"/>
      <point x="372" y="1268" type="line"/>
      <point x="372" y="0" type="line"/>
    </contour>
  </outline>
</glyph>
<glyph name="N" format="1">
  <advance width="1551"/>
  <unicode hex="004E"/>
  <outline>
    <contour>
      <point x="182" y="0" type="line"/>
      <point x="182" y="1456" type="line"/>
      <point x="387" y="1456" type="line"/>
      <point x="1123" y="342" type="line"/>
      <point x="1198" y="215" type="line"/>
      <point x="1198" y="1456" type="line"/>
      <point x="1369" y="1456" type="line"/>
      <point x="1369" y="0" type="line"/>
      <point x="1162" y="0" type="line"/>
      <point x="423" y="1113" type="line"/>
      <point x="354" y="1237" type="line"/>
      <point x="354" y="0" type="line"/>
    </contour>
  </outline>
</glyph>
<glyph name="O" format="1">
  <advance width="1638"/>
  <unicode hex="004F"/>
  <outline>
    <contour>
      <point x="819" y="-24" type="curve"/>
      <point x="1274" y="-24"/>
      <point x="1516" y="340"/>
      <point x="1516" y="782" type="curve" smooth="yes"/>
      <point x="1516" y="1226"/>
      <point x="1274" y="1586"/>
      <point x="819" y="1586" type="curve"/>
      <point x="364" y="1586"/>
      <point x="122" y="1226"/>
      <point x="122" y="782" type="curve" smooth="yes"/>
      <point x="122" y="340"/>
      <point x="364" y="-24"/>
    </contour>
    <contour>
      <point x="819" y="126" type="curve"/>
      <point x="532" y="126"/>
      <point x="306" y="353"/>
      <point x="306" y="782" type="curve" smooth="yes"/>
      <point x="306" y="1211"/>
      <point x="532" y="1436"/>
      <point x="819" y="1436" type="curve"/>
      <point x="1106" y="1436"/>
      <point x="1332" y="1211"/>
      <point x="1332" y="782" type="curve" smooth="yes"/>
      <point x="1332" y="353"/>
      <point x="1106" y="126"/>
    </contour>
  </outline>
</glyph>
<glyph name="P" format="1">
  <advance width="1213"/>
  <unicode hex="0050"/>
  <outline>
    <contour>
      <point x="174" y="0" type="line"/>
      <point x="174" y="1456" type="line"/>
      <point x="554" y="1456" type="line" smooth="yes"/>
      <point x="969" y="1456"/>
      <point x="1145" y="1316"/>
      <point x="1145" y="1020" type="curve" smooth="yes"/>
      <point x="1145" y="734"/>
      <point x="948" y="587"/>
      <point x="578" y="587" type="curve" smooth="yes"/>
      <point x="346" y="587" type="line"/>
      <point x="346" y="0" type="line"/>
    </contour>
    <contour>
      <point x="346" y="736" type="line"/>
      <point x="597" y="736" type="line" smooth="yes"/>
      <point x="838" y="736"/>
      <point x="961" y="832"/>
      <point x="961" y="1018" type="curve" smooth="yes"/>
      <point x="961" y="1222"/>
      <point x="856" y="1318"/>
      <point x="577" y="1318" type="curve" smooth="yes"/>
      <point x="346" y="1318" type="line"/>
    </contour>
  </outline>
</glyph>
<glyph name="Q" format="1">
  <advance width="1626"/>
  <unicode hex="0051"/>
  <outline>
    <component base="O"/>
    <contour>
      <point x="1227" y="-237" type="line"/>
      <point x="867" y="402" type="line"/>
      <point x="1005" y="477" type="line"/>
      <point x="1355" y="-168" type="line"/>
    </contour>
  </outline>
</glyph>
<glyph name="R" format="1">
  <advance width="1291"/>
  <unicode hex="0052"/>
  <outline>
    <contour>
      <point x="174" y="0" type="line"/>
      <point x="174" y="1456" type="line"/>
      <point x="523" y="1456" type="line" smooth="yes"/>
      <point x="845" y="1456"/>
      <point x="1142" y="1410"/>
      <point x="1142" y="1074" type="curve" smooth="yes"/>
      <point x="1142" y="867"/>
      <point x="1022" y="719"/>
      <point x="751" y="665" type="curve"/>
      <point x="764" y="743" type="line"/>
      <point x="1227" y="0" type="line"/>
      <point x="1039" y="0" type="line"/>
      <point x="593" y="752" type="line"/>
      <point x="689" y="652" type="line"/>
      <point x="346" y="652" type="line"/>
      <point x="346" y="0" type="line"/>
    </contour>
    <contour>
      <point x="346" y="799" type="line"/>
      <point x="601" y="799" type="line" smooth="yes"/>
      <point x="790" y="799"/>
      <point x="960" y="859"/>
      <point x="960" y="1058" type="curve" smooth="yes"/>
      <point x="960" y="1269"/>
      <point x="807" y="1318"/>
      <point x="612" y="1318" type="curve" smooth="yes"/>
      <point x="346" y="1318" type="line"/>
    </contour>
  </outline>
</glyph>
<glyph name="S" format="1">
  <advance width="1170"/>
  <unicode hex="0053"/>
  <outline>
    <contour>
      <point x="603" y="-22" type="curve" smooth="yes"/>
      <point x="413" y="-22"/>
      <point x="233" y="61"/>
      <point x="142" y="130" type="curve"/>
      <point x="193" y="280" type="line"/>
      <point x="286" y="203"/>
      <point x="451" y="124"/>
      <point x="596" y="124" type="curve" smooth="yes"/>
      <point x="780" y="124"/>
      <point x="881" y="227"/>
      <point x="881" y="390" type="curve" smooth="yes"/>
      <point x="881" y="511"/>
      <point x="830" y="587"/>
      <point x="530" y="681" type="curve" smooth="yes"/>
      <point x="248" y="770"/>
      <point x="136" y="884"/>
      <point x="138" y="1105" type="curve" smooth="yes"/>
      <point x="140" y="1346"/>
      <point x="339" y="1483"/>
      <point x="595" y="1483" type="curve" smooth="yes"/>
      <point x="768" y="1483"/>
      <point x="902" y="1425"/>
      <point x="1008" y="1348" type="curve"/>
      <point x="942" y="1217" type="line"/>
      <point x="860" y="1276"/>
      <point x="740" y="1334"/>
      <point x="615" y="1334" type="curve" smooth="yes"/>
      <point x="434" y="1334"/>
      <point x="315" y="1258"/>
      <point x="312" y="1114" type="curve"/>
      <point x="308" y="968"/>
      <point x="369" y="905"/>
      <point x="630" y="821" type="curve"/>
      <point x="965" y="715"/>
      <point x="1050" y="589"/>
      <point x="1050" y="387" type="curve" smooth="yes"/>
      <point x="1050" y="142"/>
      <point x="883" y="-22"/>
    </contour>
  </outline>
</glyph>
<glyph name="T" format="1">
  <advance width="1143"/>
  <unicode hex="0054"/>
  <outline>
    <contour>
      <point x="484" y="0" type="line"/>
      <point x="484" y="1318" type="line"/>
      <point x="24" y="1318" type="line"/>
      <point x="24" y="1456" type="line"/>
      <point x="1119" y="1456" type="line"/>
      <point x="1119" y="1318" type="line"/>
      <point x="656" y="1318" type="line"/>
      <point x="656" y="0" type="line"/>
    </contour>
  </outline>
</glyph>
<glyph name="U" format="1">
  <advance width="1440"/>
  <unicode hex="0055"/>
  <outline>
    <contour>
      <point x="732" y="-22" type="curve" smooth="yes"/>
      <point x="363" y="-22"/>
      <point x="164" y="157"/>
      <point x="164" y="541" type="curve" smooth="yes"/>
      <point x="164" y="1456" type="line"/>
      <point x="336" y="1456" type="line"/>
      <point x="336" y="546" type="line" smooth="yes"/>
      <point x="336" y="260"/>
      <point x="470" y="123"/>
      <point x="731" y="123" type="curve" smooth="yes"/>
      <point x="973" y="123"/>
      <point x="1106" y="279"/>
      <point x="1106" y="539" type="curve" smooth="yes"/>
      <point x="1106" y="1456" type="line"/>
      <point x="1277" y="1456" type="line"/>
      <point x="1277" y="551" type="line"/>
      <point x="1275" y="191"/>
      <point x="1080" y="-22"/>
    </contour>
  </outline>
</glyph>
<glyph name="V" format="1">
  <advance width="1303"/>
  <unicode hex="0056"/>
  <outline>
    <contour>
      <point x="568" y="1" type="line"/>
      <point x="13" y="1456" type="line"/>
      <point x="201" y="1456" type="line"/>
      <point x="613" y="325" type="line"/>
      <point x="659" y="184" type="line"/>
      <point x="707" y="324" type="line"/>
      <point x="1108" y="1456" type="line"/>
      <point x="1291" y="1456" type="line"/>
      <point x="754" y="1" type="line"/>
    </contour>
  </outline>
</glyph>
<glyph name="W" format="1">
  <advance width="2063"/>
  <unicode hex="0057"/>
  <outline>
    <contour>
      <point x="441" y="1" type="line"/>
      <point x="18" y="1456" type="line"/>
      <point x="204" y="1456" type="line"/>
      <point x="514" y="349" type="line"/>
      <point x="552" y="189" type="line"/>
      <point x="602" y="349" type="line"/>
      <point x="952" y="1456" type="line"/>
      <point x="1125" y="1456" type="line"/>
      <point x="1472" y="345" type="line"/>
      <point x="1518" y="190" type="line"/>
      <point x="1560" y="349" type="line"/>
      <point x="1865" y="1456" type="line"/>
      <point x="2045" y="1456" type="line"/>
      <point x="1622" y="0" type="line"/>
      <point x="1410" y="0" type="line"/>
      <point x="1033" y="1247" type="line"/>
      <point x="654" y="1" type="line"/>
    </contour>
  </outline>
</glyph>
<glyph name="X" format="1">
  <advance width="1307"/>
  <unicode hex="0058"/>
  <outline>
    <contour>
      <point x="1072" y="0" type="line"/>
      <point x="654" y="623" type="line"/>
      <point x="238" y="0" type="line"/>
      <point x="34" y="0" type="line"/>
      <point x="558" y="741" type="line"/>
      <point x="73" y="1456" type="line"/>
      <point x="279" y="1456" type="line"/>
      <point x="667" y="854" type="line"/>
      <point x="1067" y="1456" type="line"/>
      <point x="1263" y="1456" type="line"/>
      <point x="765" y="742" type="line"/>
      <point x="1273" y="0" type="line"/>
    </contour>
  </outline>
</glyph>
<glyph name="Y" format="1">
  <advance width="1269.05263158"/>
  <unicode hex="0059"/>
  <outline>
    <contour>
      <point x="547.526315789" y="0" type="line"/>
      <point x="547.526315789" y="652" type="line"/>
      <point x="25.5263157895" y="1560" type="line"/>
      <point x="217.526315789" y="1560" type="line"/>
      <point x="633.526315789" y="797" type="line"/>
      <point x="1053.52631579" y="1560" type="line"/>
      <point x="1243.52631579" y="1560" type="line"/>
      <point x="719.526315789" y="655" type="line"/>
      <point x="719.526315789" y="0" type="line"/>
    </contour>
  </outline>
</glyph>
<glyph name="Z" format="1">
  <advance width="1143.16883117"/>
  <unicode hex="005A"/>
  <outline>
    <contour>
      <point x="89" y="0" type="line"/>
      <point x="89" y="92" type="line"/>
      <point x="849" y="1422" type="line"/>
      <point x="121" y="1422" type="line"/>
      <point x="121" y="1560" type="line"/>
      <point x="1081" y="1560" type="line"/>
      <point x="1081" y="1472" type="line"/>
      <point x="317" y="138" type="line"/>
      <point x="1073" y="138" type="line"/>
      <point x="1073" y="0" type="line"/>
    </contour>
  </outline>
</glyph>
<glyph name="bracketleft" format="1">
  <advance width="628"/>
  <unicode hex="005B"/>
  <outline>
    <contour>
      <point x="191" y="-259" type="line"/>
      <point x="191" y="1451" type="line"/>
      <point x="547" y="1451" type="line"/>
      <point x="547" y="1329" type="line"/>
      <point x="354" y="1329" type="line"/>
      <point x="354" y="-137" type="line"/>
      <point x="548" y="-137" type="line"/>
      <point x="548" y="-259" type="line"/>
    </contour>
  </outline>
</glyph>
<glyph name="backslash" format="1">
  <advance width="706"/>
  <unicode hex="005C"/>
  <outline>
    <contour>
      <point x="757" y="-215" type="line"/>
      <point x="594" y="-215" type="line"/>
      <point x="-47" y="1451" type="line"/>
      <point x="120" y="1451" type="line"/>
    </contour>
  </outline>
</glyph>
<glyph name="bracketright" format="1">
  <advance width="628"/>
  <unicode hex="005D"/>
  <outline>
    <contour>
      <point x="87" y="-259" type="line"/>
      <point x="87" y="-137" type="line"/>
      <point x="278" y="-137" type="line"/>
      <point x="278" y="1329" type="line"/>
      <point x="88" y="1329" type="line"/>
      <point x="78" y="1451" type="line"/>
      <point x="442" y="1451" type="line"/>
      <point x="442" y="-259" type="line"/>
    </contour>
  </outline>
</glyph>
<glyph name="asciicircum" format="1">
  <advance width="1433"/>
  <unicode hex="005E"/>
  <outline>
    <contour>
      <point x="184" y="550" type="line"/>
      <point x="656" y="1432" type="line"/>
      <point x="753" y="1432" type="line"/>
      <point x="1232" y="550" type="line"/>
      <point x="1077" y="550" type="line"/>
      <point x="703" y="1260" type="line"/>
      <point x="340" y="550" type="line"/>
    </contour>
  </outline>
</glyph>
<glyph name="underscore" format="1">
  <advance width="977"/>
  <unicode hex="005F"/>
  <outline>
    <contour>
      <point x="-5" y="-273" type="line"/>
      <point x="-5" y="-145" type="line"/>
      <point x="978" y="-145" type="line"/>
      <point x="978" y="-273" type="line"/>
    </contour>
  </outline>
</glyph>
<glyph name="grave" format="1">
  <advance width="629"/>
  <unicode hex="0060"/>
  <outline>
    <contour>
      <point x="416" y="1240" type="line"/>
      <point x="84" y="1560" type="line"/>
      <point x="298" y="1560" type="line"/>
      <point x="545" y="1240" type="line"/>
    </contour>
  </outline>
</glyph>
<glyph name="a" format="1">
  <advance width="1211"/>
  <unicode hex="0061"/>
  <outline>
    <contour>
      <point x="556" y="-22" type="curve" smooth="yes"/>
      <point x="267.188" y="-22"/>
      <point x="116.843" y="215.836"/>
      <point x="116.843" y="475.063" type="curve" smooth="yes"/>
      <point x="116.843" y="752.235"/>
      <point x="289.869" y="1052"/>
      <point x="686" y="1052" type="curve" smooth="yes"/>
      <point x="813" y="1052"/>
      <point x="927" y="1017"/>
      <point x="1005" y="976" type="curve"/>
      <point x="1005" y="348" type="line" smooth="yes"/>
      <point x="1005" y="170"/>
      <point x="1023" y="121"/>
      <point x="1150" y="121" type="curve"/>
      <point x="1122" y="-14" type="line"/>
      <point x="959" y="-14"/>
      <point x="885" y="49"/>
      <point x="858" y="161" type="curve"/>
      <point x="792" y="48"/>
      <point x="705" y="-22"/>
    </contour>
    <contour>
      <point x="565.782" y="109.893" type="curve" smooth="yes"/>
      <point x="757.254" y="109.893"/>
      <point x="835" y="258.03"/>
      <point x="835" y="453" type="curve" smooth="yes"/>
      <point x="835" y="894" type="line"/>
      <point x="793.694" y="907.425"/>
      <point x="730.773" y="920.286"/>
      <point x="655.908" y="920.286" type="curve" smooth="yes"/>
      <point x="408.162" y="920.286"/>
      <point x="291.156" y="681.548"/>
      <point x="291.156" y="465.131" type="curve" smooth="yes"/>
      <point x="291.156" y="278.577"/>
      <point x="375.788" y="109.893"/>
    </contour>
  </outline>
</glyph>
<glyph name="b" format="1">
  <advance width="1158"/>
  <unicode hex="0062"/>
  <outline>
    <contour>
      <point x="550" y="-22" type="curve" smooth="yes"/>
      <point x="317" y="-22"/>
      <point x="152" y="71"/>
      <point x="152" y="71" type="curve"/>
      <point x="152" y="1525" type="line"/>
      <point x="317" y="1525" type="line"/>
      <point x="317" y="884" type="line"/>
      <point x="429" y="1019"/>
      <point x="532" y="1048"/>
      <point x="657" y="1048" type="curve" smooth="yes"/>
      <point x="880" y="1048"/>
      <point x="1058" y="865"/>
      <point x="1058" y="545" type="curve" smooth="yes"/>
      <point x="1058" y="215"/>
      <point x="854" y="-22"/>
    </contour>
    <contour>
      <point x="544" y="114" type="curve" smooth="yes"/>
      <point x="768" y="114"/>
      <point x="888" y="318"/>
      <point x="888" y="550" type="curve" smooth="yes"/>
      <point x="888" y="793"/>
      <point x="776" y="912"/>
      <point x="634" y="912" type="curve" smooth="yes"/>
      <point x="521" y="912"/>
      <point x="422" y="869"/>
      <point x="317" y="711" type="curve"/>
      <point x="317" y="151" type="line"/>
      <point x="317" y="151"/>
      <point x="396" y="114"/>
    </contour>
  </outline>
</glyph>
<glyph name="c" format="1">
  <advance width="1024"/>
  <unicode hex="0063"/>
  <outline>
    <contour>
      <point x="960" y="102" type="line"/>
      <point x="857" y="21"/>
      <point x="730" y="-22"/>
      <point x="605" y="-22" type="curve" smooth="yes"/>
      <point x="340" y="-22"/>
      <point x="112" y="179"/>
      <point x="112" y="511" type="curve" smooth="yes"/>
      <point x="112" y="857"/>
      <point x="360" y="1052"/>
      <point x="622" y="1052" type="curve" smooth="yes"/>
      <point x="731" y="1052"/>
      <point x="842" y="1018"/>
      <point x="939" y="948" type="curve"/>
      <point x="888" y="826" type="line"/>
      <point x="811" y="881"/>
      <point x="722" y="915"/>
      <point x="636" y="915" type="curve" smooth="yes"/>
      <point x="451" y="915"/>
      <point x="282" y="785"/>
      <point x="282" y="510" type="curve" smooth="yes"/>
      <point x="282" y="253"/>
      <point x="435" y="114"/>
      <point x="619" y="114" type="curve" smooth="yes"/>
      <point x="719" y="114"/>
      <point x="826" y="157"/>
      <point x="902" y="226" type="curve"/>
    </contour>
  </outline>
</glyph>
<glyph name="d" format="1">
  <advance width="1195"/>
  <unicode hex="0064"/>
  <outline>
    <contour>
      <point x="271.0" y="459.0" type="curve" smooth="yes"/>
      <point x="271.0" y="714.0"/>
      <point x="408.0" y="912.0"/>
      <point x="649.0" y="912.0" type="curve" smooth="yes"/>
      <point x="707.0" y="912.0"/>
      <point x="770.0" y="901.0"/>
      <point x="840.0" y="876.0" type="curve"/>
      <point x="840.0" y="497.0" type="line" smooth="yes"/>
      <point x="840.0" y="258.0"/>
      <point x="714.0" y="114.0"/>
      <point x="525.0" y="114.0" type="curve" smooth="yes"/>
      <point x="382.0" y="114.0"/>
      <point x="271.0" y="229.0"/>
    </contour>
    <contour>
      <point x="874" y="175" type="curve"/>
      <point x="885" y="87"/>
      <point x="969" y="-6"/>
      <point x="1119" y="-6" type="curve"/>
      <point x="1147" y="130" type="line"/>
      <point x="1053" y="147"/>
      <point x="1004" y="187"/>
      <point x="1004" y="354" type="curve" smooth="yes"/>
      <point x="1004.0" y="1526.0" type="line"/>
      <point x="839.0" y="1526.0" type="line"/>
      <point x="839.0" y="1014.0" type="line"/>
      <point x="774.0" y="1037.0"/>
      <point x="708.0" y="1048.0"/>
      <point x="643.0" y="1048.0" type="curve" smooth="yes"/>
      <point x="367.0" y="1048.0"/>
      <point x="100.0" y="855.0"/>
      <point x="100.0" y="460.0" type="curve" smooth="yes"/>
      <point x="100.0" y="145.0"/>
      <point x="278" y="-22"/>
      <point x="512.0" y="-22.0" type="curve" smooth="yes"/>
      <point x="675" y="-22"/>
      <point x="805" y="58"/>
    </contour>
  </outline>
</glyph>
<glyph name="e" format="1">
  <advance width="1082"/>
  <unicode hex="0065"/>
  <outline>
    <contour>
      <point x="612" y="-22" type="curve" smooth="yes"/>
      <point x="768" y="-22"/>
      <point x="878" y="25"/>
      <point x="998" y="122" type="curve"/>
      <point x="930" y="232" type="line"/>
      <point x="865" y="179"/>
      <point x="774" y="114"/>
      <point x="623" y="114" type="curve" smooth="yes"/>
      <point x="439" y="114"/>
      <point x="311" y="233"/>
      <point x="287" y="445" type="curve"/>
      <point x="619" y="445"/>
      <point x="957" y="510"/>
      <point x="957" y="755" type="curve" smooth="yes"/>
      <point x="957" y="922"/>
      <point x="820" y="1052"/>
      <point x="613" y="1052" type="curve" smooth="yes"/>
      <point x="296" y="1052"/>
      <point x="112" y="803"/>
      <point x="112" y="505" type="curve" smooth="yes"/>
      <point x="112" y="168"/>
      <point x="339" y="-22"/>
    </contour>
    <contour>
      <point x="285" y="566" type="curve"/>
      <point x="299" y="794"/>
      <point x="448.208" y="916.0"/>
      <point x="614" y="916" type="curve" smooth="yes"/>
      <point x="729" y="916"/>
      <point x="794" y="852"/>
      <point x="794" y="758" type="curve" smooth="yes"/>
      <point x="794" y="597"/>
      <point x="518" y="566"/>
    </contour>
  </outline>
</glyph>
<glyph name="f" format="1">
  <advance width="699"/>
  <unicode hex="0066"/>
  <outline>
    <contour>
      <point x="160.0" y="-404.0" type="line"/>
      <point x="394" y="-393"/>
      <point x="417.0" y="-215.0"/>
      <point x="417.0" y="-83.0" type="curve" smooth="yes"/>
      <point x="417.0" y="919.0" type="line"/>
      <point x="665.0" y="919.0" type="line"/>
      <point x="665.0" y="1026.0" type="line"/>
      <point x="417.0" y="1026.0" type="line"/>
      <point x="417" y="1196" type="line" smooth="yes"/>
      <point x="417" y="1393"/>
      <point x="536" y="1406"/>
      <point x="715" y="1406" type="curve"/>
      <point x="715" y="1526" type="line"/>
      <point x="661" y="1526" type="line" smooth="yes"/>
      <point x="395" y="1526"/>
      <point x="253" y="1447"/>
      <point x="253" y="1194" type="curve" smooth="yes"/>
      <point x="253.0" y="1026.0" type="line"/>
      <point x="51.0" y="1026.0" type="line"/>
      <point x="51.0" y="919.0" type="line"/>
      <point x="253.0" y="919.0" type="line"/>
      <point x="253.0" y="-76.0" type="line" smooth="yes"/>
      <point x="253" y="-227"/>
      <point x="226" y="-255"/>
      <point x="140" y="-269" type="curve"/>
    </contour>
  </outline>
</glyph>
<glyph name="g" format="1">
  <advance width="1170"/>
  <unicode hex="0067"/>
  <outline>
    <contour>
      <point x="564.782" y="109.893" type="curve" smooth="yes"/>
      <point x="756.254" y="109.893"/>
      <point x="845" y="258.029"/>
      <point x="845" y="453" type="curve" smooth="yes"/>
      <point x="845" y="894" type="line"/>
      <point x="803.693" y="907.425"/>
      <point x="729.773" y="920.285"/>
      <point x="654.907" y="920.285" type="curve" smooth="yes"/>
      <point x="407.162" y="920.285"/>
      <point x="290.156" y="681.548"/>
      <point x="290.156" y="465.131" type="curve" smooth="yes"/>
      <point x="290.156" y="278.577"/>
      <point x="374.788" y="109.893"/>
    </contour>
    <contour>
      <point x="537" y="-22" type="curve" smooth="yes"/>
      <point x="294.301" y="-22"/>
      <point x="114.952" y="186.521"/>
      <point x="114.952" y="469.838" type="curve" smooth="yes"/>
      <point x="114.952" y="846.2"/>
      <point x="376.229" y="1052"/>
      <point x="662" y="1052" type="curve" smooth="yes"/>
      <point x="791" y="1052"/>
      <point x="935" y="1023"/>
      <point x="1015" y="971" type="curve"/>
      <point x="1015" y="9" type="line" smooth="yes"/>
      <point x="1015" y="-309"/>
      <point x="854" y="-566"/>
      <point x="506" y="-566" type="curve" smooth="yes"/>
      <point x="418" y="-566"/>
      <point x="318" y="-549"/>
      <point x="205" y="-513" type="curve"/>
      <point x="223" y="-370" type="line"/>
      <point x="328" y="-407"/>
      <point x="419" y="-424"/>
      <point x="498" y="-424" type="curve" smooth="yes"/>
      <point x="730" y="-424"/>
      <point x="845" y="-272"/>
      <point x="845" y="-12" type="curve" smooth="yes"/>
      <point x="845" y="136" type="line"/>
      <point x="779" y="21"/>
      <point x="673" y="-22"/>
    </contour>
  </outline>
</glyph>
<glyph name="h" format="1">
  <advance width="1222"/>
  <unicode hex="0068"/>
  <outline>
    <contour>
      <point x="1168" y="-20" type="line"/>
      <point x="1189" y="110" type="line"/>
      <point x="1165" y="110" type="line" smooth="yes"/>
      <point x="1062" y="110"/>
      <point x="1030" y="172"/>
      <point x="1030" y="320" type="curve" smooth="yes"/>
      <point x="1030" y="565" type="line" smooth="yes"/>
      <point x="1030" y="903"/>
      <point x="895" y="1048"/>
      <point x="663" y="1048" type="curve" smooth="yes"/>
      <point x="511" y="1048"/>
      <point x="381" y="970"/>
      <point x="316" y="845" type="curve"/>
      <point x="316" y="1526" type="line"/>
      <point x="152" y="1526" type="line"/>
      <point x="152" y="0" type="line"/>
      <point x="316" y="0" type="line"/>
      <point x="316" y="532" type="line" smooth="yes"/>
      <point x="316" y="778"/>
      <point x="486" y="907"/>
      <point x="638" y="907" type="curve" smooth="yes"/>
      <point x="792" y="907"/>
      <point x="866" y="804"/>
      <point x="866" y="562" type="curve" smooth="yes"/>
      <point x="866" y="294" type="line" smooth="yes"/>
      <point x="866" y="74"/>
      <point x="947" y="-20"/>
      <point x="1155" y="-20" type="curve" smooth="yes"/>
    </contour>
  </outline>
</glyph>
<glyph name="i" format="1">
  <advance width="633"/>
  <unicode hex="0069"/>
  <outline>
    <contour>
      <point x="659" y="26" type="line"/>
      <point x="427" y="-69"/>
      <point x="193" y="-19"/>
      <point x="193" y="262" type="curve" smooth="yes"/>
      <point x="193" y="1026" type="line"/>
      <point x="357" y="1026" type="line"/>
      <point x="357" y="267" type="line" smooth="yes"/>
      <point x="357" y="74"/>
      <point x="500" y="96"/>
      <point x="636" y="145" type="curve"/>
    </contour>
    <contour>
      <point x="285" y="1236" type="curve" smooth="yes"/>
      <point x="225" y="1236"/>
      <point x="166" y="1274"/>
      <point x="166" y="1347" type="curve" smooth="yes"/>
      <point x="166" y="1421"/>
      <point x="226" y="1458"/>
      <point x="286" y="1458" type="curve" smooth="yes"/>
      <point x="345" y="1458"/>
      <point x="404" y="1420"/>
      <point x="404" y="1346" type="curve" smooth="yes"/>
      <point x="404" y="1273"/>
      <point x="344" y="1236"/>
    </contour>
  </outline>
</glyph>
<glyph name="j" format="1">
  <advance width="539"/>
  <unicode hex="006A"/>
  <outline>
    <contour>
      <point x="11" y="-463" type="curve" smooth="yes"/>
      <point x="-44" y="-463"/>
      <point x="-102" y="-453"/>
      <point x="-162" y="-435" type="curve"/>
      <point x="-143" y="-307" type="line"/>
      <point x="-98" y="-322"/>
      <point x="-53" y="-332"/>
      <point x="-11" y="-332" type="curve" smooth="yes"/>
      <point x="112" y="-332"/>
      <point x="207" y="-247"/>
      <point x="207" y="29" type="curve" smooth="yes"/>
      <point x="207" y="1026" type="line"/>
      <point x="371" y="1026" type="line"/>
      <point x="371" y="35" type="line" smooth="yes"/>
      <point x="371" y="-322"/>
      <point x="218" y="-463"/>
    </contour>
    <contour>
      <point x="290" y="1245" type="curve" smooth="yes"/>
      <point x="236" y="1245"/>
      <point x="183" y="1279"/>
      <point x="183" y="1345" type="curve" smooth="yes"/>
      <point x="183" y="1411"/>
      <point x="237" y="1444"/>
      <point x="291" y="1444" type="curve" smooth="yes"/>
      <point x="345" y="1444"/>
      <point x="398" y="1410"/>
      <point x="398" y="1344" type="curve" smooth="yes"/>
      <point x="398" y="1278"/>
      <point x="344" y="1245"/>
    </contour>
  </outline>
</glyph>
<glyph name="k" format="1">
  <advance width="1138"/>
  <unicode hex="006B"/>
  <outline>
    <contour>
      <point x="1084" y="-35" type="curve"/>
      <point x="1173" y="89" type="line"/>
      <point x="1070" y="88"/>
      <point x="986" y="168"/>
      <point x="901" y="270" type="curve" smooth="yes"/>
      <point x="680" y="537" type="line"/>
      <point x="1001" y="976" type="line"/>
      <point x="852" y="1026" type="line"/>
      <point x="316" y="285" type="line"/>
      <point x="316" y="1526" type="line"/>
      <point x="152" y="1496" type="line"/>
      <point x="152" y="63" type="line" smooth="yes"/>
      <point x="152" y="-23"/>
      <point x="243" y="-36"/>
      <point x="297" y="30" type="curve"/>
      <point x="588" y="415" type="line"/>
      <point x="773" y="189" type="line" smooth="yes"/>
      <point x="872" y="68"/>
      <point x="980" y="-16"/>
    </contour>
  </outline>
</glyph>
<glyph name="l" format="1">
  <advance width="676"/>
  <unicode hex="006C"/>
  <outline>
    <contour>
      <point x="685" y="152" type="line"/>
      <point x="621" y="125"/>
      <point x="556" y="108"/>
      <point x="499" y="108" type="curve" smooth="yes"/>
      <point x="398" y="108"/>
      <point x="322" y="159"/>
      <point x="322" y="292" type="curve" smooth="yes"/>
      <point x="322" y="1526" type="line"/>
      <point x="158" y="1526" type="line"/>
      <point x="158" y="300" type="line" smooth="yes"/>
      <point x="158" y="83"/>
      <point x="297" y="-18"/>
      <point x="474" y="-18" type="curve" smooth="yes"/>
      <point x="548" y="-18"/>
      <point x="630" y="0"/>
      <point x="710" y="35" type="curve"/>
    </contour>
  </outline>
</glyph>
<glyph name="m" format="1">
  <advance width="1922"/>
  <unicode hex="006D"/>
  <outline>
    <contour>
      <point x="1847" y="-14" type="line"/>
      <point x="1874" y="121" type="line"/>
      <point x="1851" y="121" type="line" smooth="yes"/>
      <point x="1729" y="121"/>
      <point x="1715" y="180"/>
      <point x="1715" y="353" type="curve" smooth="yes"/>
      <point x="1715" y="565" type="line" smooth="yes"/>
      <point x="1715" y="903"/>
      <point x="1606" y="1048"/>
      <point x="1381" y="1048" type="curve" smooth="yes"/>
      <point x="1224" y="1048"/>
      <point x="1075" y="973"/>
      <point x="996" y="827" type="curve"/>
      <point x="967" y="945"/>
      <point x="870" y="1048"/>
      <point x="712" y="1048" type="curve" smooth="yes"/>
      <point x="534" y="1048"/>
      <point x="408" y="967"/>
      <point x="326" y="829" type="curve"/>
      <point x="319" y="902"/>
      <point x="265" y="981"/>
      <point x="218" y="1018" type="curve"/>
      <point x="76" y="937" type="line"/>
      <point x="130" y="890"/>
      <point x="199" y="809"/>
      <point x="199" y="676" type="curve" smooth="yes"/>
      <point x="199" y="0" type="line"/>
      <point x="363" y="0" type="line"/>
      <point x="363" y="525" type="line" smooth="yes"/>
      <point x="363" y="780"/>
      <point x="500" y="912"/>
      <point x="670" y="912" type="curve" smooth="yes"/>
      <point x="818" y="912"/>
      <point x="881" y="808"/>
      <point x="881" y="562" type="curve" smooth="yes"/>
      <point x="881" y="0" type="line"/>
      <point x="1045" y="0" type="line"/>
      <point x="1045" y="532" type="line" smooth="yes"/>
      <point x="1045" y="799"/>
      <point x="1203" y="912"/>
      <point x="1349" y="912" type="curve" smooth="yes"/>
      <point x="1497" y="912"/>
      <point x="1551" y="808"/>
      <point x="1551" y="562" type="curve" smooth="yes"/>
      <point x="1551" y="324" type="line" smooth="yes"/>
      <point x="1551" y="96"/>
      <point x="1619" y="-14"/>
      <point x="1830" y="-14" type="curve" smooth="yes"/>
    </contour>
  </outline>
</glyph>
<glyph name="n" format="1">
  <advance width="1284"/>
  <unicode hex="006E"/>
  <outline>
    <contour>
      <point x="1234" y="110" type="line"/>
      <point x="1230" y="110"/>
      <point x="1226" y="110"/>
      <point x="1222" y="110" type="curve" smooth="yes"/>
      <point x="1117" y="110"/>
      <point x="1075" y="151"/>
      <point x="1075" y="320" type="curve" smooth="yes"/>
      <point x="1075" y="584" type="line" smooth="yes"/>
      <point x="1075" y="922"/>
      <point x="935" y="1048"/>
      <point x="703" y="1048" type="curve" smooth="yes"/>
      <point x="540" y="1048"/>
      <point x="402" y="935"/>
      <point x="342" y="817" type="curve"/>
      <point x="332" y="883"/>
      <point x="283" y="965"/>
      <point x="237" y="999" type="curve"/>
      <point x="75" y="944" type="line"/>
      <point x="123" y="904"/>
      <point x="199" y="815"/>
      <point x="199" y="699" type="curve" smooth="yes"/>
      <point x="199" y="0" type="line"/>
      <point x="363" y="0" type="line"/>
      <point x="363" y="538" type="line"/>
      <point x="378" y="777"/>
      <point x="536" y="907"/>
      <point x="681" y="907" type="curve" smooth="yes"/>
      <point x="835" y="907"/>
      <point x="911" y="818"/>
      <point x="911" y="576" type="curve" smooth="yes"/>
      <point x="911" y="334" type="line" smooth="yes"/>
      <point x="911" y="108"/>
      <point x="965" y="-20"/>
      <point x="1187" y="-20" type="curve" smooth="yes"/>
      <point x="1197" y="-20"/>
      <point x="1207" y="-20"/>
      <point x="1218" y="-19" type="curve"/>
    </contour>
  </outline>
</glyph>
<glyph name="o" format="1">
  <advance width="1198"/>
  <unicode hex="006F"/>
  <outline>
    <contour>
      <point x="604" y="114" type="curve" smooth="yes"/>
      <point x="798" y="114"/>
      <point x="925" y="273"/>
      <point x="925" y="511" type="curve" smooth="yes"/>
      <point x="925" y="752"/>
      <point x="798" y="912"/>
      <point x="603" y="912" type="curve" smooth="yes"/>
      <point x="405" y="912"/>
      <point x="272" y="751"/>
      <point x="272" y="509" type="curve" smooth="yes"/>
      <point x="272" y="272"/>
      <point x="405" y="114"/>
    </contour>
    <contour>
      <point x="604" y="-22" type="curve" smooth="yes"/>
      <point x="311" y="-22"/>
      <point x="102" y="191"/>
      <point x="102" y="511" type="curve" smooth="yes"/>
      <point x="102" y="833"/>
      <point x="311" y="1048"/>
      <point x="603" y="1048" type="curve" smooth="yes"/>
      <point x="891" y="1048"/>
      <point x="1096" y="834"/>
      <point x="1096" y="513" type="curve" smooth="yes"/>
      <point x="1096" y="192"/>
      <point x="892" y="-22"/>
    </contour>
  </outline>
</glyph>
<glyph name="p" format="1">
  <advance width="1237"/>
  <unicode hex="0070"/>
  <outline>
    <contour>
      <point x="220" y="-540" type="line"/>
      <point x="220" y="667" type="line" smooth="yes"/>
      <point x="220" y="863"/>
      <point x="180" y="886"/>
      <point x="73" y="891" type="curve"/>
      <point x="100" y="1026" type="line"/>
      <point x="254" y="1026"/>
      <point x="333" y="982"/>
      <point x="357" y="833" type="curve"/>
      <point x="449" y="993"/>
      <point x="557" y="1052"/>
      <point x="713" y="1052" type="curve" smooth="yes"/>
      <point x="970" y="1052"/>
      <point x="1127" y="853"/>
      <point x="1127" y="543" type="curve" smooth="yes"/>
      <point x="1127" y="186"/>
      <point x="925" y="-22"/>
      <point x="635" y="-22" type="curve" smooth="yes"/>
      <point x="557" y="-22"/>
      <point x="473" y="-7"/>
      <point x="385" y="24" type="curve"/>
      <point x="385" y="-540" type="line"/>
    </contour>
    <contour>
      <point x="384" y="166" type="line"/>
      <point x="460" y="132"/>
      <point x="537" y="114"/>
      <point x="609" y="114" type="curve" smooth="yes"/>
      <point x="802" y="114"/>
      <point x="958" y="239"/>
      <point x="958" y="541" type="curve" smooth="yes"/>
      <point x="958" y="785"/>
      <point x="856" y="916"/>
      <point x="678" y="916" type="curve" smooth="yes"/>
      <point x="532" y="916"/>
      <point x="384" y="800"/>
      <point x="384" y="508" type="curve" smooth="yes"/>
    </contour>
  </outline>
</glyph>
<glyph name="q" format="1">
  <advance width="1223"/>
  <unicode hex="0071"/>
  <outline>
    <contour>
      <point x="1045" y="-519" type="line" smooth="yes"/>
      <point x="992" y="-547"/>
      <point x="891" y="-523"/>
      <point x="891" y="-406" type="curve" smooth="yes"/>
      <point x="891" y="128" type="line"/>
      <point x="816" y="33"/>
      <point x="703" y="-22"/>
      <point x="567" y="-22" type="curve" smooth="yes"/>
      <point x="275" y="-22"/>
      <point x="100" y="203"/>
      <point x="100" y="506" type="curve" smooth="yes"/>
      <point x="100" y="815"/>
      <point x="280" y="1048"/>
      <point x="578" y="1048" type="curve" smooth="yes"/>
      <point x="758" y="1048"/>
      <point x="836" y="985"/>
      <point x="891" y="888" type="curve"/>
      <point x="906" y="1026" type="line"/>
      <point x="1073" y="1026" type="line"/>
      <point x="1068" y="992"/>
      <point x="1055" y="916"/>
      <point x="1055" y="813" type="curve" smooth="yes"/>
      <point x="1055" y="-355" type="line"/>
      <point x="1307" y="-221" type="line"/>
      <point x="1379" y="-343" type="line"/>
    </contour>
    <contour>
      <point x="583" y="114" type="curve" smooth="yes"/>
      <point x="712" y="114"/>
      <point x="842" y="211"/>
      <point x="891" y="302" type="curve"/>
      <point x="891" y="543" type="line" smooth="yes"/>
      <point x="891" y="762"/>
      <point x="790" y="912"/>
      <point x="584" y="912" type="curve" smooth="yes"/>
      <point x="364" y="912"/>
      <point x="270" y="739"/>
      <point x="270" y="507" type="curve" smooth="yes"/>
      <point x="270" y="283"/>
      <point x="369" y="114"/>
    </contour>
  </outline>
</glyph>
<glyph name="r" format="1">
  <advance width="805.0"/>
  <unicode hex="0072"/>
  <outline>
    <contour>
      <point x="202.0" y="0.0" type="line"/>
      <point x="202" y="650" type="line" smooth="yes"/>
      <point x="202" y="778"/>
      <point x="153" y="846"/>
      <point x="60" y="891" type="curve"/>
      <point x="141" y="1026" type="line"/>
      <point x="185" y="1011"/>
      <point x="310" y="940"/>
      <point x="330" y="829" type="curve"/>
      <point x="373" y="961"/>
      <point x="500.0" y="1099"/>
      <point x="763.0" y="1028" type="curve"/>
      <point x="749.0" y="883.0" type="line"/>
      <point x="453.0" y="982"/>
      <point x="366" y="719"/>
      <point x="366" y="457" type="curve" smooth="yes"/>
      <point x="366.0" y="0.0" type="line"/>
    </contour>
  </outline>
</glyph>
<glyph name="s" format="1">
  <advance width="907"/>
  <unicode hex="0073"/>
  <outline>
    <contour>
      <point x="473" y="-22" type="curve" smooth="yes"/>
      <point x="307" y="-22"/>
      <point x="177" y="41"/>
      <point x="116" y="78" type="curve"/>
      <point x="167" y="208" type="line"/>
      <point x="262" y="154"/>
      <point x="357" y="114"/>
      <point x="463" y="114" type="curve" smooth="yes"/>
      <point x="561" y="114"/>
      <point x="653" y="160"/>
      <point x="653" y="270" type="curve" smooth="yes"/>
      <point x="653" y="375"/>
      <point x="541" y="417"/>
      <point x="401" y="479" type="curve" smooth="yes"/>
      <point x="261" y="540"/>
      <point x="124" y="602"/>
      <point x="124" y="777" type="curve" smooth="yes"/>
      <point x="124" y="959"/>
      <point x="280" y="1052"/>
      <point x="458" y="1052" type="curve" smooth="yes"/>
      <point x="600" y="1052"/>
      <point x="710" y="1010"/>
      <point x="782" y="969" type="curve"/>
      <point x="735" y="837" type="line"/>
      <point x="673" y="872"/>
      <point x="555" y="916"/>
      <point x="464" y="916" type="curve" smooth="yes"/>
      <point x="352" y="916"/>
      <point x="288" y="866"/>
      <point x="288" y="779" type="curve" smooth="yes"/>
      <point x="288" y="682"/>
      <point x="388" y="653"/>
      <point x="536" y="587" type="curve"/>
      <point x="686" y="525"/>
      <point x="815" y="453"/>
      <point x="815" y="282" type="curve" smooth="yes"/>
      <point x="815" y="88"/>
      <point x="663" y="-22"/>
    </contour>
  </outline>
</glyph>
<glyph name="t" format="1">
  <advance width="800.0"/>
  <unicode hex="0074"/>
  <outline>
    <contour>
      <point x="704" y="-5" type="line"/>
      <point x="322" y="-26"/>
      <point x="249" y="60"/>
      <point x="249" y="369" type="curve" smooth="yes"/>
      <point x="249" y="920" type="line"/>
      <point x="46" y="920" type="line"/>
      <point x="46.0" y="1026.0" type="line"/>
      <point x="254.0" y="1026.0" type="line"/>
      <point x="254.0" y="1353" type="line"/>
      <point x="410.0" y="1353.0" type="line"/>
      <point x="410.0" y="1026.0" type="line"/>
      <point x="714.0" y="1026" type="line"/>
      <point x="714" y="920" type="line"/>
      <point x="413" y="920" type="line"/>
      <point x="413" y="367" type="line" smooth="yes"/>
      <point x="413" y="137"/>
      <point x="426" y="118"/>
      <point x="704" y="129" type="curve"/>
    </contour>
  </outline>
</glyph>
<glyph name="u" format="1">
  <advance width="1188"/>
  <unicode hex="0075"/>
  <outline>
    <contour>
      <point x="507" y="-22" type="curve" smooth="yes"/>
      <point x="321" y="-22"/>
      <point x="137" y="80"/>
      <point x="145" y="365" type="curve" smooth="yes"/>
      <point x="151" y="582" type="line" smooth="yes"/>
      <point x="157" y="797"/>
      <point x="123" y="1026"/>
      <point x="123" y="1026" type="curve"/>
      <point x="288" y="1026" type="line"/>
      <point x="288" y="1026"/>
      <point x="324" y="878"/>
      <point x="316" y="583" type="curve" smooth="yes"/>
      <point x="310" y="365" type="line" smooth="yes"/>
      <point x="305" y="167"/>
      <point x="411" y="114"/>
      <point x="527" y="114" type="curve" smooth="yes"/>
      <point x="692" y="114"/>
      <point x="828" y="259"/>
      <point x="828" y="482" type="curve" smooth="yes"/>
      <point x="828" y="1026" type="line"/>
      <point x="992" y="1026" type="line"/>
      <point x="992" y="328" type="line" smooth="yes"/>
      <point x="992" y="182"/>
      <point x="1011" y="121"/>
      <point x="1137" y="121" type="curve"/>
      <point x="1108" y="-14" type="line"/>
      <point x="971" y="-14"/>
      <point x="877" y="32"/>
      <point x="847" y="161" type="curve"/>
      <point x="772" y="37"/>
      <point x="659" y="-22"/>
    </contour>
  </outline>
</glyph>
<glyph name="v" format="1">
  <advance width="1064"/>
  <unicode hex="0076"/>
  <outline>
    <contour>
      <point x="450" y="0" type="line"/>
      <point x="28" y="1026" type="line"/>
      <point x="210" y="1026" type="line"/>
      <point x="484" y="336" type="line" smooth="yes"/>
      <point x="503" y="290"/>
      <point x="526" y="217"/>
      <point x="542" y="163" type="curve"/>
      <point x="573" y="264"/>
      <point x="586" y="309"/>
      <point x="598" y="336" type="curve"/>
      <point x="859" y="1026" type="line"/>
      <point x="1036" y="1026" type="line"/>
      <point x="618" y="0" type="line"/>
    </contour>
  </outline>
</glyph>
<glyph name="w" format="1">
  <advance width="1657"/>
  <unicode hex="0077"/>
  <outline>
    <contour>
      <point x="387" y="0" type="line"/>
      <point x="549" y="0" type="line"/>
      <point x="837" y="831" type="line"/>
      <point x="1107" y="0" type="line"/>
      <point x="1267" y="0" type="line"/>
      <point x="1635" y="1026" type="line"/>
      <point x="1466" y="1026" type="line"/>
      <point x="1226" y="287" type="line"/>
      <point x="1214" y="255"/>
      <point x="1205" y="219"/>
      <point x="1192" y="189" type="curve"/>
      <point x="1182" y="219"/>
      <point x="1173" y="258"/>
      <point x="1163" y="286" type="curve" smooth="yes"/>
      <point x="922" y="1026" type="line"/>
      <point x="763" y="1026" type="line"/>
      <point x="507" y="276" type="line"/>
      <point x="495" y="249"/>
      <point x="486" y="214"/>
      <point x="476" y="186" type="curve"/>
      <point x="466" y="217"/>
      <point x="457" y="255"/>
      <point x="447" y="284" type="curve" smooth="yes"/>
      <point x="198" y="1026" type="line"/>
      <point x="22" y="1026" type="line"/>
    </contour>
  </outline>
</glyph>
<glyph name="x" format="1">
  <advance width="1065"/>
  <unicode hex="0078"/>
  <outline>
    <contour>
      <point x="49" y="0" type="line"/>
      <point x="441" y="514" type="line"/>
      <point x="68" y="1026" type="line"/>
      <point x="270" y="1026" type="line"/>
      <point x="546" y="626" type="line"/>
      <point x="824" y="1026" type="line"/>
      <point x="1003" y="1026" type="line"/>
      <point x="633" y="518" type="line"/>
      <point x="1016" y="0" type="line"/>
      <point x="815" y="0" type="line"/>
      <point x="531" y="408" type="line"/>
      <point x="239" y="0" type="line"/>
    </contour>
  </outline>
</glyph>
<glyph name="y" format="1">
  <advance width="1177"/>
  <unicode hex="0079"/>
  <outline>
    <contour>
      <point x="536" y="-540" type="curve" smooth="yes"/>
      <point x="439" y="-540"/>
      <point x="309" y="-516"/>
      <point x="208" y="-479" type="curve"/>
      <point x="227" y="-336" type="line"/>
      <point x="319" y="-382"/>
      <point x="442" y="-413"/>
      <point x="527" y="-413" type="curve" smooth="yes"/>
      <point x="753" y="-413"/>
      <point x="857" y="-286"/>
      <point x="857" y="-90" type="curve" smooth="yes"/>
      <point x="857" y="219" type="line"/>
      <point x="917" y="198" type="line"/>
      <point x="842" y="73"/>
      <point x="734" y="-22"/>
      <point x="548" y="-22" type="curve" smooth="yes"/>
      <point x="362" y="-22"/>
      <point x="160" y="80"/>
      <point x="168" y="365" type="curve" smooth="yes"/>
      <point x="174" y="582" type="line" smooth="yes"/>
      <point x="183" y="901"/>
      <point x="146" y="1026"/>
      <point x="146" y="1026" type="curve"/>
      <point x="311" y="1026" type="line"/>
      <point x="311" y="1026"/>
      <point x="348" y="941"/>
      <point x="339" y="595" type="curve" smooth="yes"/>
      <point x="333" y="365" type="line" smooth="yes"/>
      <point x="328" y="167"/>
      <point x="456" y="114"/>
      <point x="572" y="114" type="curve" smooth="yes"/>
      <point x="730" y="114"/>
      <point x="857" y="230"/>
      <point x="857" y="427" type="curve" smooth="yes"/>
      <point x="857" y="1026" type="line"/>
      <point x="1021" y="1026" type="line"/>
      <point x="1021" y="-69" type="line" smooth="yes"/>
      <point x="1021" y="-360"/>
      <point x="823" y="-540"/>
    </contour>
  </outline>
</glyph>
<glyph name="z" format="1">
  <advance width="978"/>
  <unicode hex="007A"/>
  <outline>
    <contour>
      <point x="90" y="0" type="line"/>
      <point x="90" y="89" type="line"/>
      <point x="676" y="891" type="line"/>
      <point x="116" y="891" type="line"/>
      <point x="116" y="1026" type="line"/>
      <point x="899" y="1026" type="line"/>
      <point x="899" y="939" type="line"/>
      <point x="315" y="134" type="line"/>
      <point x="916" y="134" type="line"/>
      <point x="916" y="0" type="line"/>
    </contour>
  </outline>
</glyph>
<glyph name="braceleft" format="1">
  <advance width="744"/>
  <unicode hex="007B"/>
  <outline>
    <contour>
      <point x="653.276" y="-229.769" type="line"/>
      <point x="429.276" y="-223.947"/>
      <point x="271.276" y="-132.801"/>
      <point x="271.276" y="63.9053" type="curve" smooth="yes"/>
      <point x="271.276" y="313.629" type="line" smooth="yes"/>
      <point x="271.276" y="444.371"/>
      <point x="219.154" y="542.511"/>
      <point x="79.2725" y="554.804" type="curve"/>
      <point x="79.2725" y="689.588" type="line"/>
      <point x="193.759" y="697.567"/>
      <point x="270.483" y="777.647"/>
      <point x="271.133" y="906.941" type="curve" smooth="yes"/>
      <point x="271.133" y="1150.67" type="line" smooth="yes"/>
      <point x="271.133" y="1345.16"/>
      <point x="391.887" y="1474.68"/>
      <point x="654.119" y="1474.68" type="curve"/>
      <point x="654.119" y="1332.04" type="line"/>
      <point x="540.706" y="1329.88"/>
      <point x="457.629" y="1276.07"/>
      <point x="457.629" y="1143.17" type="curve" smooth="yes"/>
      <point x="457.629" y="870.472" type="line" smooth="yes"/>
      <point x="457.629" y="730.612"/>
      <point x="364.042" y="652.368"/>
      <point x="258.825" y="620.018" type="curve"/>
      <point x="376.178" y="576.825"/>
      <point x="457.629" y="461.514"/>
      <point x="457.629" y="354.867" type="curve" smooth="yes"/>
      <point x="457.629" y="122.748" type="line" smooth="yes"/>
      <point x="457.629" y="-46.7627"/>
      <point x="541.902" y="-87.1221"/>
      <point x="653.276" y="-87.4717" type="curve"/>
    </contour>
  </outline>
</glyph>
<glyph name="bar" format="1">
  <advance width="964"/>
  <unicode hex="007C"/>
  <outline>
    <contour>
      <point x="399.489" y="-482.43" type="line"/>
      <point x="399.489" y="1535.94" type="line"/>
      <point x="575.314" y="1535.94" type="line"/>
      <point x="575.314" y="-482.43" type="line"/>
    </contour>
  </outline>
</glyph>
<glyph name="braceright" format="1">
  <advance width="764"/>
  <unicode hex="007D"/>
  <outline>
    <contour>
      <point x="132" y="1480" type="line"/>
      <point x="356" y="1474"/>
      <point x="514" y="1383"/>
      <point x="514" y="1186" type="curve" smooth="yes"/>
      <point x="514" y="936" type="line" smooth="yes"/>
      <point x="514" y="806"/>
      <point x="566" y="707"/>
      <point x="706" y="695" type="curve"/>
      <point x="706" y="560" type="line"/>
      <point x="591" y="552"/>
      <point x="515" y="472"/>
      <point x="514" y="343" type="curve" smooth="yes"/>
      <point x="514" y="99" type="line" smooth="yes"/>
      <point x="514" y="-95"/>
      <point x="393" y="-225"/>
      <point x="131" y="-225" type="curve"/>
      <point x="131" y="-82" type="line"/>
      <point x="244" y="-80"/>
      <point x="347" y="-26"/>
      <point x="347" y="107" type="curve" smooth="yes"/>
      <point x="347" y="380" type="line" smooth="yes"/>
      <point x="347" y="519"/>
      <point x="421" y="598"/>
      <point x="526" y="630" type="curve"/>
      <point x="409" y="673"/>
      <point x="347" y="788"/>
      <point x="347" y="895" type="curve" smooth="yes"/>
      <point x="347" y="1127" type="line" smooth="yes"/>
      <point x="347" y="1297"/>
      <point x="243" y="1337"/>
      <point x="132" y="1337" type="curve"/>
    </contour>
  </outline>
</glyph>
<glyph name="asciitilde" format="1">
  <advance width="1298"/>
  <unicode hex="007E"/>
  <outline>
    <contour>
      <point x="247" y="385" type="line"/>
      <point x="267" y="475"/>
      <point x="323" y="571"/>
      <point x="429" y="571" type="curve" smooth="yes"/>
      <point x="515.502943615" y="571.0"/>
      <point x="634.143868867" y="497.525849864"/>
      <point x="733" y="452" type="curve" smooth="yes"/>
      <point x="773" y="433"/>
      <point x="823" y="410"/>
      <point x="873" y="410" type="curve" smooth="yes"/>
      <point x="1028.4266426" y="410.0"/>
      <point x="1128.93902392" y="527.814457941"/>
      <point x="1166" y="684" type="curve"/>
      <point x="1041" y="723" type="line"/>
      <point x="1023" y="641"/>
      <point x="970" y="545"/>
      <point x="874" y="545" type="curve" smooth="yes"/>
      <point x="803.21753709" y="545.0"/>
      <point x="685.974333849" y="623.395145088"/>
      <point x="587" y="664" type="curve" smooth="yes"/>
      <point x="540" y="683"/>
      <point x="486" y="705"/>
      <point x="427" y="705" type="curve" smooth="yes"/>
      <point x="273.390344913" y="705.0"/>
      <point x="164.449986044" y="592.785350959"/>
      <point x="132" y="440" type="curve"/>
    </contour>
  </outline>
</glyph>
<glyph name="exclamdown" format="1">
  <advance width="737"/>
  <unicode hex="00A1"/>
  <outline>
    <contour>
      <point x="254" y="-6" type="line"/>
      <point x="441" y="-6" type="line"/>
      <point x="391" y="1077" type="line"/>
      <point x="305" y="1077" type="line"/>
    </contour>
    <contour>
      <point x="353" y="1233" type="curve" smooth="yes"/>
      <point x="426" y="1233"/>
      <point x="466" y="1285"/>
      <point x="466" y="1345" type="curve" smooth="yes"/>
      <point x="466" y="1415"/>
      <point x="409" y="1456"/>
      <point x="352" y="1456" type="curve" smooth="yes"/>
      <point x="279" y="1456"/>
      <point x="239" y="1404"/>
      <point x="239" y="1344" type="curve" smooth="yes"/>
      <point x="239" y="1274"/>
      <point x="296" y="1233"/>
    </contour>
  </outline>
</glyph>
<glyph name="cent" format="1">
  <advance width="1170"/>
  <unicode hex="00A2"/>
  <outline>
    <contour>
      <point x="542" y="-235" type="line"/>
      <point x="542" y="-20" type="line"/>
      <point x="287" y="6"/>
      <point x="94" y="213"/>
      <point x="94" y="503" type="curve" smooth="yes"/>
      <point x="94" y="805"/>
      <point x="266" y="1024"/>
      <point x="542" y="1049" type="curve"/>
      <point x="542" y="1281" type="line"/>
      <point x="650" y="1281" type="line"/>
      <point x="650" y="1049" type="line"/>
      <point x="779" y="1039"/>
      <point x="881" y="991"/>
      <point x="941" y="912" type="curve"/>
      <point x="864" y="801" type="line"/>
      <point x="815" y="862"/>
      <point x="742" y="898"/>
      <point x="650" y="907" type="curve"/>
      <point x="650" y="120" type="line"/>
      <point x="732" y="129"/>
      <point x="825" y="159"/>
      <point x="921" y="225" type="curve"/>
      <point x="957" y="87" type="line"/>
      <point x="851" y="23"/>
      <point x="745" y="-10"/>
      <point x="650" y="-20" type="curve"/>
      <point x="650" y="-235" type="line"/>
    </contour>
    <contour>
      <point x="542" y="122" type="curve"/>
      <point x="542" y="904" type="line"/>
      <point x="362" y="874"/>
      <point x="267" y="714"/>
      <point x="267" y="508" type="curve" smooth="yes"/>
      <point x="267" y="285"/>
      <point x="379" y="148"/>
    </contour>
  </outline>
</glyph>
<glyph name="sterling" format="1">
  <advance width="1273"/>
  <unicode hex="00A3"/>
  <outline>
    <contour>
      <point x="196" y="0" type="line"/>
      <point x="196" y="138" type="line"/>
      <point x="300" y="199"/>
      <point x="353" y="332"/>
      <point x="353" y="500" type="curve" smooth="yes"/>
      <point x="353" y="690" type="line"/>
      <point x="170" y="690" type="line"/>
      <point x="170" y="819" type="line"/>
      <point x="352" y="819" type="line"/>
      <point x="352" y="1029" type="line" smooth="yes"/>
      <point x="352" y="1379"/>
      <point x="475" y="1586"/>
      <point x="771" y="1586" type="curve" smooth="yes"/>
      <point x="910" y="1586"/>
      <point x="1019" y="1556"/>
      <point x="1096" y="1495" type="curve"/>
      <point x="1044" y="1364" type="line"/>
      <point x="974" y="1407"/>
      <point x="888" y="1434"/>
      <point x="781" y="1434" type="curve" smooth="yes"/>
      <point x="581" y="1434"/>
      <point x="524" y="1294"/>
      <point x="524" y="1085" type="curve" smooth="yes"/>
      <point x="524" y="819" type="line"/>
      <point x="841" y="819" type="line"/>
      <point x="841" y="690" type="line"/>
      <point x="526" y="690" type="line"/>
      <point x="526" y="551" type="line" smooth="yes"/>
      <point x="526" y="352"/>
      <point x="483" y="217"/>
      <point x="389" y="141" type="curve"/>
      <point x="1101" y="141" type="line"/>
      <point x="1101" y="0" type="line"/>
    </contour>
  </outline>
</glyph>
<glyph name="currency" format="1">
  <advance width="1238"/>
  <unicode hex="00A4"/>
  <outline>
    <contour>
      <point x="994" y="210" type="line"/>
      <point x="827" y="371" type="line"/>
      <point x="758" y="310"/>
      <point x="666" y="274"/>
      <point x="566" y="274" type="curve" smooth="yes"/>
      <point x="473" y="274"/>
      <point x="387" y="308"/>
      <point x="319" y="363" type="curve"/>
      <point x="157" y="195" type="line"/>
      <point x="121" y="232" type="line"/>
      <point x="281" y="398" type="line"/>
      <point x="216" y="467"/>
      <point x="175" y="559"/>
      <point x="175" y="661" type="curve" smooth="yes"/>
      <point x="175" y="754"/>
      <point x="211" y="840"/>
      <point x="269" y="908" type="curve"/>
      <point x="106" y="1065" type="line"/>
      <point x="145" y="1104" type="line"/>
      <point x="307" y="947" type="line"/>
      <point x="379" y="1011"/>
      <point x="475" y="1050"/>
      <point x="576" y="1048" type="curve" smooth="yes"/>
      <point x="668" y="1046"/>
      <point x="752" y="1012"/>
      <point x="818" y="956" type="curve"/>
      <point x="976" y="1120" type="line"/>
      <point x="1016" y="1081" type="line"/>
      <point x="858" y="917" type="line"/>
      <point x="922" y="846"/>
      <point x="959" y="753"/>
      <point x="957" y="651" type="curve" smooth="yes"/>
      <point x="955" y="557"/>
      <point x="920" y="473"/>
      <point x="863" y="408" type="curve"/>
      <point x="1031" y="246" type="line"/>
    </contour>
    <contour>
      <point x="564" y="351" type="curve" smooth="yes"/>
      <point x="733" y="351"/>
      <point x="861" y="482"/>
      <point x="865" y="651" type="curve" smooth="yes"/>
      <point x="869" y="820"/>
      <point x="740" y="961"/>
      <point x="572" y="965" type="curve" smooth="yes"/>
      <point x="403" y="969"/>
      <point x="263" y="827"/>
      <point x="263" y="658" type="curve" smooth="yes"/>
      <point x="263" y="489"/>
      <point x="395" y="351"/>
    </contour>
  </outline>
</glyph>
<glyph name="yen" format="1">
  <advance width="1235"/>
  <unicode hex="00A5"/>
  <outline>
    <contour>
      <point x="526" y="0" type="line"/>
      <point x="526" y="283" type="line"/>
      <point x="147" y="283" type="line"/>
      <point x="147" y="423" type="line"/>
      <point x="526" y="423" type="line"/>
      <point x="526" y="574" type="line"/>
      <point x="141" y="574" type="line"/>
      <point x="141" y="716" type="line"/>
      <point x="447" y="716" type="line"/>
      <point x="4" y="1456" type="line"/>
      <point x="195" y="1456" type="line"/>
      <point x="611" y="727" type="line"/>
      <point x="1031" y="1456" type="line"/>
      <point x="1222" y="1456" type="line"/>
      <point x="769" y="716" type="line"/>
      <point x="1069" y="716" type="line"/>
      <point x="1069" y="574" type="line"/>
      <point x="691" y="574" type="line"/>
      <point x="691" y="423" type="line"/>
      <point x="1072" y="423" type="line"/>
      <point x="1079" y="283" type="line"/>
      <point x="698" y="283" type="line"/>
      <point x="698" y="0" type="line"/>
    </contour>
  </outline>
</glyph>
<glyph name="brokenbar" format="1">
  <advance width="510"/>
  <unicode hex="00A6"/>
  <outline>
    <contour>
      <point x="178" y="-491" type="line"/>
      <point x="178" y="393" type="line"/>
      <point x="335" y="393" type="line"/>
      <point x="335" y="-491" type="line"/>
    </contour>
    <contour>
      <point x="178" y="677" type="line"/>
      <point x="178" y="1545" type="line"/>
      <point x="335" y="1545" type="line"/>
      <point x="335" y="677" type="line"/>
    </contour>
  </outline>
</glyph>
<glyph name="section" format="1">
  <advance width="1092"/>
  <unicode hex="00A7"/>
  <outline>
    <contour>
      <point x="487" y="-48" type="curve" smooth="yes"/>
      <point x="595" y="-48"/>
      <point x="692" y="-18"/>
      <point x="760" y="30" type="curve" smooth="yes"/>
      <point x="826" y="76"/>
      <point x="883" y="146"/>
      <point x="883" y="252" type="curve" smooth="yes"/>
      <point x="883" y="378"/>
      <point x="805" y="437"/>
      <point x="720" y="480" type="curve"/>
      <point x="803" y="531"/>
      <point x="906" y="606"/>
      <point x="906" y="737" type="curve" smooth="yes"/>
      <point x="906" y="772"/>
      <point x="897" y="804"/>
      <point x="881" y="832" type="curve" smooth="yes"/>
      <point x="807" y="957"/>
      <point x="635" y="1001"/>
      <point x="510" y="1072" type="curve" smooth="yes"/>
      <point x="454" y="1104"/>
      <point x="402" y="1140"/>
      <point x="402" y="1221" type="curve" smooth="yes"/>
      <point x="402" y="1328"/>
      <point x="503" y="1356"/>
      <point x="608" y="1356" type="curve" smooth="yes"/>
      <point x="689" y="1356"/>
      <point x="769" y="1332"/>
      <point x="829" y="1304" type="curve"/>
      <point x="827" y="1452" type="line"/>
      <point x="752" y="1475"/>
      <point x="692" y="1493"/>
      <point x="603" y="1493" type="curve" smooth="yes"/>
      <point x="411" y="1493"/>
      <point x="231" y="1416"/>
      <point x="231" y="1217" type="curve" smooth="yes"/>
      <point x="231" y="1090"/>
      <point x="299" y="1027"/>
      <point x="384" y="975" type="curve"/>
      <point x="296" y="931"/>
      <point x="195" y="859"/>
      <point x="195" y="729" type="curve" smooth="yes"/>
      <point x="195" y="697"/>
      <point x="201" y="667"/>
      <point x="212" y="640" type="curve" smooth="yes"/>
      <point x="250" y="547"/>
      <point x="337" y="494"/>
      <point x="429" y="454" type="curve"/>
      <point x="509" y="418" type="line" smooth="yes"/>
      <point x="541" y="404"/>
      <point x="570" y="391"/>
      <point x="595" y="379" type="curve" smooth="yes"/>
      <point x="651" y="352"/>
      <point x="711" y="322"/>
      <point x="711" y="243" type="curve" smooth="yes"/>
      <point x="711" y="221"/>
      <point x="707" y="201"/>
      <point x="696" y="182" type="curve" smooth="yes"/>
      <point x="661" y="119"/>
      <point x="579" y="89"/>
      <point x="482" y="89" type="curve" smooth="yes"/>
      <point x="382" y="89"/>
      <point x="303" y="116"/>
      <point x="220" y="153" type="curve"/>
      <point x="222" y="4" type="line"/>
      <point x="298" y="-27"/>
      <point x="389" y="-48"/>
    </contour>
    <contour>
      <point x="592" y="547" type="curve"/>
      <point x="559" y="561"/>
      <point x="530" y="574"/>
      <point x="503" y="587" type="curve" smooth="yes"/>
      <point x="442" y="616"/>
      <point x="372" y="653"/>
      <point x="372" y="741" type="curve" smooth="yes"/>
      <point x="372" y="831"/>
      <point x="442" y="880"/>
      <point x="500" y="912" type="curve"/>
      <point x="577" y="868"/>
      <point x="728" y="846"/>
      <point x="728" y="723" type="curve" smooth="yes"/>
      <point x="728" y="703"/>
      <point x="725" y="685"/>
      <point x="716" y="668" type="curve" smooth="yes"/>
      <point x="690" y="615"/>
      <point x="639" y="578"/>
    </contour>
  </outline>
</glyph>
<glyph name="dieresis" format="1">
  <advance width="896"/>
  <unicode hex="00A8"/>
  <outline>
    <contour>
      <point x="200" y="1480" type="curve" smooth="yes"/>
      <point x="200" y="1504" type="line" smooth="yes"/>
      <point x="200" y="1549"/>
      <point x="237" y="1586"/>
      <point x="282" y="1586" type="curve" smooth="yes"/>
      <point x="327" y="1586"/>
      <point x="364" y="1549"/>
      <point x="364" y="1504" type="curve" smooth="yes"/>
      <point x="364" y="1480" type="line" smooth="yes"/>
      <point x="364" y="1435"/>
      <point x="327" y="1398"/>
      <point x="282" y="1398" type="curve" smooth="yes"/>
      <point x="237" y="1398"/>
      <point x="200" y="1435"/>
    </contour>
    <contour>
      <point x="532" y="1480" type="curve" smooth="yes"/>
      <point x="532" y="1504" type="line" smooth="yes"/>
      <point x="532" y="1549"/>
      <point x="569" y="1586"/>
      <point x="614" y="1586" type="curve" smooth="yes"/>
      <point x="659" y="1586"/>
      <point x="696" y="1549"/>
      <point x="696" y="1504" type="curve" smooth="yes"/>
      <point x="696" y="1480" type="line" smooth="yes"/>
      <point x="696" y="1435"/>
      <point x="659" y="1398"/>
      <point x="614" y="1398" type="curve" smooth="yes"/>
      <point x="569" y="1398"/>
      <point x="532" y="1435"/>
    </contour>
  </outline>
</glyph>
<glyph name="copyright" format="1">
  <advance width="1880"/>
  <unicode hex="00A9"/>
  <outline>
    <contour>
      <point x="965" y="291" type="curve" smooth="yes"/>
      <point x="670" y="291"/>
      <point x="506" y="515"/>
      <point x="506" y="771" type="curve" smooth="yes"/>
      <point x="506" y="1084"/>
      <point x="706" y="1250"/>
      <point x="975" y="1250" type="curve" smooth="yes"/>
      <point x="1085" y="1250"/>
      <point x="1180" y="1216"/>
      <point x="1258" y="1147" type="curve"/>
      <point x="1228" y="1027" type="line"/>
      <point x="1158" y="1090"/>
      <point x="1072" y="1122"/>
      <point x="969" y="1122" type="curve" smooth="yes"/>
      <point x="759" y="1122"/>
      <point x="659" y="962"/>
      <point x="659" y="775" type="curve" smooth="yes"/>
      <point x="659" y="546"/>
      <point x="784" y="422"/>
      <point x="995" y="422" type="curve" smooth="yes"/>
      <point x="1092" y="422"/>
      <point x="1166" y="453"/>
      <point x="1224" y="502" type="curve"/>
      <point x="1261" y="381" type="line"/>
      <point x="1178" y="321"/>
      <point x="1080" y="291"/>
    </contour>
    <contour>
      <point x="940" y="1522" type="curve" smooth="yes"/>
      <point x="1354" y="1522"/>
      <point x="1686" y="1183"/>
      <point x="1686" y="769" type="curve" smooth="yes"/>
      <point x="1686" y="356"/>
      <point x="1354" y="17"/>
      <point x="940" y="17" type="curve" smooth="yes"/>
      <point x="526" y="17"/>
      <point x="196" y="356"/>
      <point x="196" y="769" type="curve" smooth="yes"/>
      <point x="196" y="1183"/>
      <point x="526" y="1522"/>
    </contour>
    <contour>
      <point x="939" y="122" type="curve" smooth="yes"/>
      <point x="1290" y="122"/>
      <point x="1562" y="416"/>
      <point x="1562" y="767" type="curve" smooth="yes"/>
      <point x="1562" y="1119"/>
      <point x="1290" y="1413"/>
      <point x="939" y="1413" type="curve" smooth="yes"/>
      <point x="587" y="1413"/>
      <point x="317" y="1119"/>
      <point x="317" y="767" type="curve" smooth="yes"/>
      <point x="317" y="416"/>
      <point x="587" y="122"/>
    </contour>
  </outline>
</glyph>
<glyph name="ordfeminine" format="1">
  <advance width="755"/>
  <unicode hex="00AA"/>
  <outline>
    <contour>
      <point x="327" y="768" type="curve" smooth="yes"/>
      <point x="427" y="768"/>
      <point x="502" y="805"/>
      <point x="547" y="860" type="curve"/>
      <point x="553" y="786" type="line"/>
      <point x="684" y="786" type="line"/>
      <point x="679" y="846"/>
      <point x="677" y="870"/>
      <point x="677" y="914" type="curve" smooth="yes"/>
      <point x="679" y="1235" type="line"/>
      <point x="679" y="1400"/>
      <point x="568" y="1477"/>
      <point x="404" y="1477" type="curve" smooth="yes"/>
      <point x="272" y="1477"/>
      <point x="172" y="1436"/>
      <point x="121" y="1350" type="curve"/>
      <point x="188" y="1275" type="line"/>
      <point x="232" y="1340"/>
      <point x="299" y="1369"/>
      <point x="398" y="1369" type="curve" smooth="yes"/>
      <point x="508" y="1369"/>
      <point x="546" y="1329"/>
      <point x="546" y="1219" type="curve" smooth="yes"/>
      <point x="546" y="1211" type="line"/>
      <point x="472" y="1201"/>
      <point x="393" y="1202"/>
      <point x="319" y="1192" type="curve"/>
      <point x="199" y="1174"/>
      <point x="76" y="1112"/>
      <point x="76" y="975" type="curve" smooth="yes"/>
      <point x="76" y="944"/>
      <point x="82" y="916"/>
      <point x="95" y="890" type="curve" smooth="yes"/>
      <point x="132" y="814"/>
      <point x="215" y="768"/>
    </contour>
    <contour>
      <point x="348" y="871" type="curve" smooth="yes"/>
      <point x="270" y="871"/>
      <point x="212" y="899"/>
      <point x="212" y="977" type="curve" smooth="yes"/>
      <point x="212" y="1115"/>
      <point x="434" y="1088"/>
      <point x="546" y="1110" type="curve"/>
      <point x="546" y="1085" type="line"/>
      <point x="540" y="962"/>
      <point x="478" y="871"/>
    </contour>
  </outline>
</glyph>
<glyph name="guillemotleft" format="1">
  <advance width="1143"/>
  <unicode hex="00AB"/>
  <outline>
    <contour>
      <point x="514" y="171" type="line"/>
      <point x="246" y="541" type="line"/>
      <point x="520" y="914" type="line"/>
      <point x="673" y="914" type="line"/>
      <point x="416" y="541" type="line"/>
      <point x="665" y="171" type="line"/>
    </contour>
    <contour>
      <point x="873" y="171" type="line"/>
      <point x="611" y="541" type="line"/>
      <point x="878" y="914" type="line"/>
      <point x="1037" y="914" type="line"/>
      <point x="774" y="541" type="line"/>
      <point x="1030" y="171" type="line"/>
    </contour>
  </outline>
</glyph>
<glyph name="logicalnot" format="1">
  <advance width="1431"/>
  <unicode hex="00AC"/>
  <outline>
    <contour>
      <point x="1072" y="238" type="line"/>
      <point x="1072" y="659" type="line"/>
      <point x="200" y="659" type="line"/>
      <point x="200" y="798" type="line"/>
      <point x="1222" y="798" type="line"/>
      <point x="1222" y="238" type="line"/>
    </contour>
  </outline>
</glyph>
<glyph name="registered" format="1">
  <advance width="1784"/>
  <unicode hex="00AE"/>
  <outline>
    <contour>
      <point x="592" y="273" type="line"/>
      <point x="734" y="273" type="line"/>
      <point x="734" y="664" type="line"/>
      <point x="866" y="664" type="line"/>
      <point x="925" y="625"/>
      <point x="967" y="557"/>
      <point x="1007" y="485" type="curve" smooth="yes"/>
      <point x="1125" y="273" type="line"/>
      <point x="1286" y="273" type="line"/>
      <point x="1254" y="327"/>
      <point x="1227" y="375"/>
      <point x="1201" y="418" type="curve" smooth="yes"/>
      <point x="1142" y="515"/>
      <point x="1088" y="609"/>
      <point x="1014" y="681" type="curve"/>
      <point x="1154" y="700"/>
      <point x="1268" y="775"/>
      <point x="1268" y="935" type="curve" smooth="yes"/>
      <point x="1268" y="1018"/>
      <point x="1234" y="1082"/>
      <point x="1166" y="1126" type="curve" smooth="yes"/>
      <point x="1098" y="1170"/>
      <point x="994" y="1192"/>
      <point x="854" y="1192" type="curve" smooth="yes"/>
      <point x="592" y="1192" type="line"/>
    </contour>
    <contour>
      <point x="897" y="-32" type="curve" smooth="yes"/>
      <point x="1136" y="-32"/>
      <point x="1313" y="67"/>
      <point x="1440" y="192" type="curve" smooth="yes"/>
      <point x="1564" y="313"/>
      <point x="1673" y="485"/>
      <point x="1673" y="725" type="curve" smooth="yes"/>
      <point x="1673" y="794"/>
      <point x="1663" y="860"/>
      <point x="1644" y="924" type="curve" smooth="yes"/>
      <point x="1603" y="1059"/>
      <point x="1529" y="1170"/>
      <point x="1440" y="1258" type="curve" smooth="yes"/>
      <point x="1312" y="1383"/>
      <point x="1133" y="1483"/>
      <point x="891" y="1483" type="curve" smooth="yes"/>
      <point x="652" y="1483"/>
      <point x="475" y="1385"/>
      <point x="347" y="1260" type="curve" smooth="yes"/>
      <point x="223" y="1139"/>
      <point x="113" y="967"/>
      <point x="113" y="726" type="curve" smooth="yes"/>
      <point x="113" y="657"/>
      <point x="123" y="590"/>
      <point x="142" y="526" type="curve" smooth="yes"/>
      <point x="183" y="391"/>
      <point x="256" y="280"/>
      <point x="346" y="192" type="curve" smooth="yes"/>
      <point x="474" y="67"/>
      <point x="655" y="-32"/>
    </contour>
    <contour>
      <point x="896" y="85" type="curve" smooth="yes"/>
      <point x="696" y="85"/>
      <point x="536" y="164"/>
      <point x="428" y="270" type="curve" smooth="yes"/>
      <point x="323" y="373"/>
      <point x="240" y="527"/>
      <point x="240" y="727" type="curve" smooth="yes"/>
      <point x="240" y="926"/>
      <point x="323" y="1079"/>
      <point x="428" y="1182" type="curve" smooth="yes"/>
      <point x="535" y="1287"/>
      <point x="694" y="1366"/>
      <point x="892" y="1366" type="curve" smooth="yes"/>
      <point x="1091" y="1366"/>
      <point x="1250" y="1285"/>
      <point x="1357" y="1180" type="curve" smooth="yes"/>
      <point x="1462" y="1077"/>
      <point x="1546" y="924"/>
      <point x="1546" y="724" type="curve" smooth="yes"/>
      <point x="1546" y="519"/>
      <point x="1464" y="372"/>
      <point x="1359" y="270" type="curve" smooth="yes"/>
      <point x="1251" y="165"/>
      <point x="1100" y="85"/>
    </contour>
    <contour>
      <point x="732" y="783" type="line"/>
      <point x="732" y="1072" type="line"/>
      <point x="851" y="1072" type="line" smooth="yes"/>
      <point x="998" y="1072"/>
      <point x="1119" y="1071"/>
      <point x="1119" y="920" type="curve" smooth="yes"/>
      <point x="1119" y="784"/>
      <point x="984" y="783"/>
      <point x="852" y="783" type="curve" smooth="yes"/>
    </contour>
  </outline>
</glyph>
<glyph name="macron" format="1">
  <advance width="972"/>
  <unicode hex="00AF"/>
  <outline>
    <contour>
      <point x="200" y="1426" type="line"/>
      <point x="200" y="1560" type="line"/>
      <point x="772" y="1560" type="line"/>
      <point x="772" y="1426" type="line"/>
    </contour>
  </outline>
</glyph>
<glyph name="degree" format="1">
  <advance width="854"/>
  <unicode hex="00B0"/>
  <outline>
    <contour>
      <point x="424" y="971" type="curve" smooth="yes"/>
      <point x="397" y="971"/>
      <point x="371" y="976"/>
      <point x="348" y="985" type="curve" smooth="yes"/>
      <point x="285" y="1010"/>
      <point x="230" y="1064"/>
      <point x="230" y="1151" type="curve" smooth="yes"/>
      <point x="230" y="1176"/>
      <point x="236" y="1200"/>
      <point x="246" y="1222" type="curve" smooth="yes"/>
      <point x="275" y="1282"/>
      <point x="337" y="1328"/>
      <point x="424" y="1328" type="curve" smooth="yes"/>
      <point x="450" y="1328"/>
      <point x="474" y="1323"/>
      <point x="498" y="1314" type="curve" smooth="yes"/>
      <point x="561" y="1290"/>
      <point x="618" y="1237"/>
      <point x="618" y="1151" type="curve" smooth="yes"/>
      <point x="618" y="1126"/>
      <point x="613" y="1102"/>
      <point x="603" y="1080" type="curve" smooth="yes"/>
      <point x="575" y="1019"/>
      <point x="512" y="971"/>
    </contour>
    <contour>
      <point x="424" y="855" type="curve" smooth="yes"/>
      <point x="467" y="855"/>
      <point x="507" y="862"/>
      <point x="546" y="878" type="curve" smooth="yes"/>
      <point x="648" y="919"/>
      <point x="743" y="1010"/>
      <point x="743" y="1150" type="curve" smooth="yes"/>
      <point x="743" y="1191"/>
      <point x="735" y="1228"/>
      <point x="718" y="1264" type="curve" smooth="yes"/>
      <point x="671" y="1363"/>
      <point x="568" y="1444"/>
      <point x="424" y="1444" type="curve" smooth="yes"/>
      <point x="381" y="1444"/>
      <point x="340" y="1436"/>
      <point x="301" y="1421" type="curve" smooth="yes"/>
      <point x="199" y="1380"/>
      <point x="105" y="1289"/>
      <point x="105" y="1150" type="curve" smooth="yes"/>
      <point x="105" y="1109"/>
      <point x="113" y="1072"/>
      <point x="130" y="1036" type="curve" smooth="yes"/>
      <point x="177" y="937"/>
      <point x="281" y="855"/>
    </contour>
  </outline>
</glyph>
<glyph name="plusminus" format="1">
  <advance width="1451"/>
  <unicode hex="00B1"/>
  <outline>
    <contour>
      <point x="649" y="223" type="line"/>
      <point x="649" y="595" type="line"/>
      <point x="210" y="595" type="line"/>
      <point x="198" y="733" type="line"/>
      <point x="647" y="733" type="line"/>
      <point x="647" y="1107" type="line"/>
      <point x="796" y="1107" type="line"/>
      <point x="796" y="733" type="line"/>
      <point x="1238" y="733" type="line"/>
      <point x="1238" y="595" type="line"/>
      <point x="799" y="595" type="line"/>
      <point x="799" y="223" type="line"/>
    </contour>
    <contour>
      <point x="210" y="0" type="line"/>
      <point x="210" y="138" type="line"/>
      <point x="1242" y="138" type="line"/>
      <point x="1242" y="0" type="line"/>
    </contour>
  </outline>
</glyph>
<glyph name="uni00B3" format="1">
  <advance width="1190"/>
  <unicode hex="00B3"/>
  <outline>
    <contour>
      <point x="481" y="586" type="curve" smooth="yes"/>
      <point x="521" y="586"/>
      <point x="560" y="592"/>
      <point x="596" y="603" type="curve" smooth="yes"/>
      <point x="694" y="634"/>
      <point x="780" y="708"/>
      <point x="780" y="834" type="curve" smooth="yes"/>
      <point x="780" y="937"/>
      <point x="726" y="999"/>
      <point x="652" y="1032" type="curve"/>
      <point x="714" y="1065"/>
      <point x="759" y="1124"/>
      <point x="759" y="1213" type="curve" smooth="yes"/>
      <point x="759" y="1250"/>
      <point x="751" y="1282"/>
      <point x="736" y="1310" type="curve" smooth="yes"/>
      <point x="694" y="1388"/>
      <point x="606" y="1441"/>
      <point x="487" y="1441" type="curve" smooth="yes"/>
      <point x="383" y="1441"/>
      <point x="290" y="1394"/>
      <point x="235" y="1340" type="curve"/>
      <point x="293" y="1244" type="line"/>
      <point x="342" y="1284"/>
      <point x="403" y="1322"/>
      <point x="485" y="1322" type="curve" smooth="yes"/>
      <point x="566" y="1322"/>
      <point x="626" y="1291"/>
      <point x="626" y="1210" type="curve" smooth="yes"/>
      <point x="626" y="1110"/>
      <point x="530" y="1089"/>
      <point x="429" y="1089" type="curve" smooth="yes"/>
      <point x="380" y="1089" type="line"/>
      <point x="380" y="970" type="line"/>
      <point x="406" y="970" type="line" smooth="yes"/>
      <point x="415" y="970"/>
      <point x="429" y="971"/>
      <point x="436" y="971" type="curve" smooth="yes"/>
      <point x="549" y="971"/>
      <point x="651" y="948"/>
      <point x="651" y="837" type="curve" smooth="yes"/>
      <point x="651" y="745"/>
      <point x="570" y="701"/>
      <point x="476" y="701" type="curve" smooth="yes"/>
      <point x="411" y="701"/>
      <point x="351" y="727"/>
      <point x="295" y="779" type="curve"/>
      <point x="235" y="683" type="line"/>
      <point x="292" y="626"/>
      <point x="374" y="586"/>
    </contour>
  </outline>
</glyph>
<glyph name="acute" format="1">
  <advance width="607"/>
  <unicode hex="00B4"/>
  <outline>
    <contour>
      <point x="175" y="1172" type="line"/>
      <point x="401" y="1492" type="line"/>
      <point x="613" y="1492" type="line"/>
      <point x="305" y="1172" type="line"/>
    </contour>
  </outline>
</glyph>
<glyph name="paragraph" format="1">
  <advance width="1150"/>
  <unicode hex="00B6"/>
  <outline>
    <contour>
      <point x="468" y="-166" type="line"/>
      <point x="468" y="935" type="line"/>
      <point x="253" y="935"/>
      <point x="137" y="1051"/>
      <point x="137" y="1239" type="curve" smooth="yes"/>
      <point x="137" y="1503"/>
      <point x="280" y="1560"/>
      <point x="533" y="1560" type="curve" smooth="yes"/>
      <point x="1023" y="1560" type="line"/>
      <point x="1023" y="1436" type="line"/>
      <point x="936" y="1436" type="line"/>
      <point x="936" y="-166" type="line"/>
      <point x="807" y="-166" type="line"/>
      <point x="807" y="1436" type="line"/>
      <point x="606" y="1436" type="line"/>
      <point x="606" y="-166" type="line"/>
    </contour>
  </outline>
</glyph>
<glyph name="periodcentered" format="1">
  <advance width="444"/>
  <unicode hex="00B7"/>
  <outline>
    <contour>
      <point x="76" y="513" type="line"/>
      <point x="76" y="723" type="line"/>
      <point x="293" y="723" type="line"/>
      <point x="293" y="513" type="line"/>
    </contour>
  </outline>
</glyph>
<glyph name="cedilla" format="1">
  <advance width="539"/>
  <unicode hex="00B8"/>
  <outline>
    <contour>
      <point x="237" y="-396" type="curve" smooth="yes"/>
      <point x="358" y="-396"/>
      <point x="478" y="-359"/>
      <point x="478" y="-239" type="curve" smooth="yes"/>
      <point x="478" y="-131"/>
      <point x="382" y="-95"/>
      <point x="278" y="-90" type="curve"/>
      <point x="269" y="-90" type="line"/>
      <point x="287" y="17" type="line"/>
      <point x="190" y="17" type="line"/>
      <point x="157" y="-173" type="line"/>
      <point x="189" y="-171" type="line" smooth="yes"/>
      <point x="200" y="-170"/>
      <point x="217" y="-168"/>
      <point x="226" y="-168" type="curve" smooth="yes"/>
      <point x="286" y="-168"/>
      <point x="335" y="-182"/>
      <point x="335" y="-241" type="curve" smooth="yes"/>
      <point x="335" y="-297"/>
      <point x="287" y="-313"/>
      <point x="221" y="-313" type="curve" smooth="yes"/>
      <point x="167" y="-313"/>
      <point x="120" y="-301"/>
      <point x="70" y="-289" type="curve"/>
      <point x="62" y="-374" type="line"/>
      <point x="116" y="-385"/>
      <point x="177" y="-396"/>
    </contour>
  </outline>
</glyph>
<glyph name="uni00B9" format="1">
  <advance width="1190"/>
  <unicode hex="00B9"/>
  <outline>
    <contour>
      <point x="270" y="604" type="line"/>
      <point x="635" y="604" type="line"/>
      <point x="635" y="720" type="line"/>
      <point x="513" y="720" type="line"/>
      <point x="513" y="1427" type="line"/>
      <point x="408" y="1412" type="line"/>
      <point x="356" y="1381"/>
      <point x="307" y="1354"/>
      <point x="240" y="1333" type="curve"/>
      <point x="239" y="1203" type="line"/>
      <point x="289" y="1222"/>
      <point x="347" y="1248"/>
      <point x="391" y="1271" type="curve"/>
      <point x="391" y="1168" type="line" smooth="yes"/>
      <point x="391" y="1116"/>
      <point x="392" y="1067"/>
      <point x="392" y="1008" type="curve" smooth="yes"/>
      <point x="392" y="723" type="line"/>
      <point x="270" y="723" type="line"/>
    </contour>
  </outline>
</glyph>
<glyph name="uni00B9" format="1">
  <advance width="1200"/>
  <unicode hex="00B9"/>
  <outline>
    <contour>
      <point x="280" y="604" type="line"/>
      <point x="645" y="604" type="line"/>
      <point x="645" y="720" type="line"/>
      <point x="523" y="720" type="line"/>
      <point x="523" y="1427" type="line"/>
      <point x="418" y="1412" type="line"/>
      <point x="366" y="1381"/>
      <point x="317" y="1354"/>
      <point x="250" y="1333" type="curve"/>
      <point x="249" y="1203" type="line"/>
      <point x="299" y="1222"/>
      <point x="357" y="1248"/>
      <point x="401" y="1271" type="curve"/>
      <point x="401" y="1168" type="line" smooth="yes"/>
      <point x="401" y="1116"/>
      <point x="402" y="1067"/>
      <point x="402" y="1008" type="curve" smooth="yes"/>
      <point x="402" y="723" type="line"/>
      <point x="280" y="723" type="line"/>
    </contour>
  </outline>
</glyph>
<glyph name="ordmasculine" format="1">
  <advance width="814"/>
  <unicode hex="00BA"/>
  <outline>
    <contour>
      <point x="411" y="767" type="curve" smooth="yes"/>
      <point x="467" y="767"/>
      <point x="517" y="776"/>
      <point x="561" y="795" type="curve" smooth="yes"/>
      <point x="681" y="845"/>
      <point x="765" y="954"/>
      <point x="765" y="1121" type="curve" smooth="yes"/>
      <point x="765" y="1171"/>
      <point x="757" y="1217"/>
      <point x="742" y="1260" type="curve" smooth="yes"/>
      <point x="696" y="1390"/>
      <point x="581" y="1476"/>
      <point x="410" y="1476" type="curve" smooth="yes"/>
      <point x="354" y="1476"/>
      <point x="306" y="1466"/>
      <point x="261" y="1448" type="curve" smooth="yes"/>
      <point x="140" y="1398"/>
      <point x="53" y="1291"/>
      <point x="53" y="1124" type="curve" smooth="yes"/>
      <point x="53" y="901"/>
      <point x="191" y="767"/>
    </contour>
    <contour>
      <point x="411" y="875" type="curve" smooth="yes"/>
      <point x="269" y="875"/>
      <point x="193" y="977"/>
      <point x="193" y="1123" type="curve" smooth="yes"/>
      <point x="193" y="1264"/>
      <point x="271" y="1369"/>
      <point x="408" y="1369" type="curve" smooth="yes"/>
      <point x="548" y="1369"/>
      <point x="627" y="1264"/>
      <point x="627" y="1119" type="curve" smooth="yes"/>
      <point x="627" y="979"/>
      <point x="548" y="875"/>
    </contour>
  </outline>
</glyph>
<glyph name="guillemotright" format="1">
  <advance width="1152"/>
  <unicode hex="00BB"/>
  <outline>
    <contour>
      <point x="726" y="916" type="line"/>
      <point x="995" y="544" type="line"/>
      <point x="721" y="173" type="line"/>
      <point x="570" y="173" type="line"/>
      <point x="823" y="544" type="line"/>
      <point x="577" y="916" type="line"/>
    </contour>
    <contour>
      <point x="343" y="916" type="line"/>
      <point x="605" y="544" type="line"/>
      <point x="338" y="173" type="line"/>
      <point x="178" y="173" type="line"/>
      <point x="442" y="544" type="line"/>
      <point x="185" y="916" type="line"/>
    </contour>
  </outline>
</glyph>
<glyph name="onequarter" format="1">
  <advance width="2374"/>
  <unicode hex="00BC"/>
  <outline>
    <contour>
      <point x="-337" y="0" type="line"/>
      <point x="542" y="1436" type="line"/>
      <point x="685" y="1436" type="line"/>
      <point x="635" y="1354" type="line"/>
      <point x="673" y="1371"/>
      <point x="706" y="1391"/>
      <point x="741" y="1412" type="curve"/>
      <point x="842" y="1427" type="line"/>
      <point x="842" y="720" type="line"/>
      <point x="959" y="720" type="line"/>
      <point x="959" y="604" type="line"/>
      <point x="609" y="604" type="line"/>
      <point x="609" y="723" type="line"/>
      <point x="726" y="723" type="line"/>
      <point x="726" y="1008" type="line" smooth="yes"/>
      <point x="726" y="1067"/>
      <point x="725" y="1116"/>
      <point x="725" y="1168" type="curve" smooth="yes"/>
      <point x="725" y="1271" type="line"/>
      <point x="683" y="1248"/>
      <point x="627" y="1222"/>
      <point x="579" y="1203" type="curve"/>
      <point x="579" y="1262" type="line"/>
      <point x="-186" y="0" type="line"/>
    </contour>
    <contour>
      <point x="1834" y="615" type="line"/>
      <point x="1834" y="803" type="line"/>
      <point x="1471" y="803" type="line"/>
      <point x="1471" y="894" type="line"/>
      <point x="1822" y="1412" type="line"/>
      <point x="1956" y="1412" type="line"/>
      <point x="1956" y="910" type="line"/>
      <point x="2065" y="910" type="line"/>
      <point x="2075" y="803" type="line"/>
      <point x="1954" y="803" type="line"/>
      <point x="1954" y="615" type="line"/>
    </contour>
    <contour>
      <point x="1604" y="910" type="line"/>
      <point x="1834" y="910" type="line"/>
      <point x="1834" y="1244" type="line"/>
    </contour>
  </outline>
</glyph>
<glyph name="onehalf" format="1">
  <advance width="2666"/>
  <unicode hex="00BD"/>
  <outline>
    <contour>
      <point x="621" y="604" type="line"/>
      <point x="1145" y="604" type="line"/>
      <point x="1145" y="722" type="line"/>
      <point x="796" y="722" type="line"/>
      <point x="884" y="802"/>
      <point x="974" y="879"/>
      <point x="1045" y="968" type="curve" smooth="yes"/>
      <point x="1097" y="1033"/>
      <point x="1147" y="1108"/>
      <point x="1147" y="1213" type="curve" smooth="yes"/>
      <point x="1147" y="1248"/>
      <point x="1139" y="1279"/>
      <point x="1127" y="1307" type="curve" smooth="yes"/>
      <point x="1090" y="1388"/>
      <point x="1007" y="1440"/>
      <point x="894" y="1440" type="curve" smooth="yes"/>
      <point x="762" y="1440"/>
      <point x="670" y="1370"/>
      <point x="629" y="1270" type="curve"/>
      <point x="711" y="1192" type="line"/>
      <point x="743" y="1262"/>
      <point x="797" y="1323"/>
      <point x="888" y="1323" type="curve" smooth="yes"/>
      <point x="964" y="1323"/>
      <point x="1023" y="1286"/>
      <point x="1023" y="1211" type="curve" smooth="yes"/>
      <point x="1023" y="1183"/>
      <point x="1013" y="1152"/>
      <point x="993" y="1118" type="curve" smooth="yes"/>
      <point x="973" y="1084"/>
      <point x="946" y="1047"/>
      <point x="910" y="1006" type="curve" smooth="yes"/>
      <point x="825" y="908"/>
      <point x="723" y="812"/>
      <point x="621" y="715" type="curve"/>
    </contour>
    <contour>
      <point x="1751" y="604" type="line"/>
      <point x="2111" y="604" type="line"/>
      <point x="2111" y="720" type="line"/>
      <point x="1989" y="720" type="line"/>
      <point x="1989" y="1427" type="line"/>
      <point x="1884" y="1412" type="line"/>
      <point x="1833" y="1381"/>
      <point x="1786" y="1354"/>
      <point x="1722" y="1333" type="curve"/>
      <point x="1721" y="1203" type="line"/>
      <point x="1769" y="1222"/>
      <point x="1825" y="1248"/>
      <point x="1867" y="1271" type="curve"/>
      <point x="1867" y="1168" type="line" smooth="yes"/>
      <point x="1867" y="1116"/>
      <point x="1868" y="1067"/>
      <point x="1868" y="1008" type="curve" smooth="yes"/>
      <point x="1868" y="723" type="line"/>
      <point x="1751" y="723" type="line"/>
    </contour>
    <contour>
      <point x="-337" y="0" type="line"/>
      <point x="-186" y="0" type="line"/>
      <point x="685" y="1436" type="line"/>
      <point x="542" y="1436" type="line"/>
    </contour>
  </outline>
</glyph>
<glyph name="threequarters" format="1">
  <advance width="2390"/>
  <unicode hex="00BE"/>
  <outline>
    <contour>
      <point x="-327" y="0" type="line"/>
      <point x="-176" y="0" type="line"/>
      <point x="610" y="1297" type="line"/>
      <point x="641" y="1244" type="line"/>
      <point x="688" y="1284"/>
      <point x="746" y="1322"/>
      <point x="825" y="1322" type="curve" smooth="yes"/>
      <point x="903" y="1322"/>
      <point x="961" y="1291"/>
      <point x="961" y="1210" type="curve" smooth="yes"/>
      <point x="961" y="1110"/>
      <point x="868" y="1089"/>
      <point x="771" y="1089" type="curve" smooth="yes"/>
      <point x="724" y="1089" type="line"/>
      <point x="724" y="970" type="line"/>
      <point x="749" y="970" type="line" smooth="yes"/>
      <point x="758" y="970"/>
      <point x="771" y="971"/>
      <point x="778" y="971" type="curve" smooth="yes"/>
      <point x="886" y="971"/>
      <point x="985" y="948"/>
      <point x="985" y="837" type="curve" smooth="yes"/>
      <point x="985" y="745"/>
      <point x="907" y="701"/>
      <point x="817" y="701" type="curve" smooth="yes"/>
      <point x="755" y="701"/>
      <point x="697" y="727"/>
      <point x="643" y="779" type="curve"/>
      <point x="585" y="683" type="line"/>
      <point x="640" y="626"/>
      <point x="718" y="586"/>
      <point x="821" y="586" type="curve" smooth="yes"/>
      <point x="859" y="586"/>
      <point x="897" y="592"/>
      <point x="932" y="603" type="curve" smooth="yes"/>
      <point x="1028" y="634"/>
      <point x="1114" y="708"/>
      <point x="1114" y="834" type="curve" smooth="yes"/>
      <point x="1114" y="937"/>
      <point x="1060" y="999"/>
      <point x="986" y="1032" type="curve"/>
      <point x="1048" y="1065"/>
      <point x="1093" y="1124"/>
      <point x="1093" y="1213" type="curve" smooth="yes"/>
      <point x="1093" y="1250"/>
      <point x="1085" y="1282"/>
      <point x="1070" y="1310" type="curve" smooth="yes"/>
      <point x="1028" y="1388"/>
      <point x="941" y="1441"/>
      <point x="827" y="1441" type="curve" smooth="yes"/>
      <point x="772" y="1441"/>
      <point x="719" y="1427"/>
      <point x="675" y="1405" type="curve"/>
      <point x="695" y="1436" type="line"/>
      <point x="552" y="1436" type="line"/>
    </contour>
    <contour>
      <point x="1849" y="615" type="line"/>
      <point x="1969" y="615" type="line"/>
      <point x="1969" y="803" type="line"/>
      <point x="2090" y="803" type="line"/>
      <point x="2080" y="910" type="line"/>
      <point x="1971" y="910" type="line"/>
      <point x="1971" y="1412" type="line"/>
      <point x="1837" y="1412" type="line"/>
      <point x="1486" y="894" type="line"/>
      <point x="1486" y="803" type="line"/>
      <point x="1849" y="803" type="line"/>
    </contour>
    <contour>
      <point x="1620" y="910" type="line"/>
      <point x="1849" y="1244" type="line"/>
      <point x="1849" y="910" type="line"/>
    </contour>
  </outline>
</glyph>
<glyph name="questiondown" format="1">
  <advance width="1019"/>
  <unicode hex="00BF"/>
  <outline>
    <contour>
      <point x="607" y="-16" type="curve" smooth="yes"/>
      <point x="334" y="-16"/>
      <point x="183" y="129"/>
      <point x="183" y="334" type="curve" smooth="yes"/>
      <point x="183" y="680"/>
      <point x="597" y="723"/>
      <point x="597" y="1020" type="curve" smooth="yes"/>
      <point x="597" y="1043"/>
      <point x="595" y="1069"/>
      <point x="591" y="1099" type="curve"/>
      <point x="714" y="1099" type="line"/>
      <point x="719" y="1051"/>
      <point x="724" y="987"/>
      <point x="724" y="937" type="curve" smooth="yes"/>
      <point x="724" y="683"/>
      <point x="352" y="622"/>
      <point x="352" y="342" type="curve" smooth="yes"/>
      <point x="352" y="90"/>
      <point x="706" y="103"/>
      <point x="887" y="205" type="curve"/>
      <point x="887" y="54" type="line"/>
      <point x="807" y="15"/>
      <point x="712" y="-16"/>
    </contour>
    <contour>
      <point x="644" y="1256" type="curve" smooth="yes"/>
      <point x="578" y="1256"/>
      <point x="541" y="1305"/>
      <point x="541" y="1362" type="curve" smooth="yes"/>
      <point x="541" y="1428"/>
      <point x="593" y="1467"/>
      <point x="645" y="1467" type="curve" smooth="yes"/>
      <point x="714" y="1467"/>
      <point x="752" y="1418"/>
      <point x="752" y="1361" type="curve" smooth="yes"/>
      <point x="752" y="1295"/>
      <point x="698" y="1256"/>
    </contour>
  </outline>
</glyph>
<glyph name="Acircumflex" format="1">
  <advance width="1425"/>
  <unicode hex="00C2"/>
  <outline>
    <contour>
      <point x="617" y="1456" type="line"/>
      <point x="13" y="0" type="line"/>
      <point x="199" y="0" type="line"/>
      <point x="355" y="397" type="line"/>
      <point x="1053" y="397" type="line"/>
      <point x="1216" y="0" type="line"/>
      <point x="1407" y="0" type="line"/>
      <point x="802" y="1456" type="line"/>
    </contour>
    <contour>
      <point x="707" y="1298" type="curve"/>
      <point x="721" y="1252"/>
      <point x="742" y="1192"/>
      <point x="760" y="1150" type="curve" smooth="yes"/>
      <point x="994" y="545" type="line"/>
      <point x="410" y="545" type="line"/>
      <point x="655" y="1149" type="line" smooth="yes"/>
      <point x="670" y="1191"/>
      <point x="692" y="1252"/>
    </contour>
    <contour>
      <point x="406" y="1600" type="line"/>
      <point x="532" y="1600" type="line"/>
      <point x="710" y="1816" type="line"/>
      <point x="888" y="1600" type="line"/>
      <point x="1020" y="1600" type="line"/>
      <point x="791" y="1924" type="line"/>
      <point x="634" y="1924" type="line"/>
    </contour>
  </outline>
</glyph>
<glyph name="AE" format="1">
  <advance width="1971"/>
  <unicode hex="00C6"/>
  <outline>
    <contour>
      <point x="5" y="0" type="line"/>
      <point x="813" y="1456" type="line"/>
      <point x="1822" y="1456" type="line"/>
      <point x="1822" y="1308" type="line"/>
      <point x="1123" y="1308" type="line"/>
      <point x="1159" y="820" type="line"/>
      <point x="1781" y="820" type="line"/>
      <point x="1781" y="672" type="line"/>
      <point x="1177" y="672" type="line"/>
      <point x="1217" y="148" type="line"/>
      <point x="1845" y="148" type="line"/>
      <point x="1845" y="0" type="line"/>
      <point x="1070" y="0" type="line"/>
      <point x="1040" y="398" type="line"/>
      <point x="420" y="398" type="line"/>
      <point x="201" y="0" type="line"/>
    </contour>
    <contour>
      <point x="496" y="546" type="line"/>
      <point x="1022" y="546" type="line"/>
      <point x="964" y="1308" type="line"/>
      <point x="916" y="1308" type="line"/>
    </contour>
  </outline>
</glyph>
<glyph name="Ccedilla" format="1">
  <advance width="1391"/>
  <unicode hex="00C7"/>
  <outline>
    <contour>
      <point x="809" y="-396" type="curve" smooth="yes"/>
      <point x="930" y="-396"/>
      <point x="1050" y="-359"/>
      <point x="1050" y="-239" type="curve" smooth="yes"/>
      <point x="1050" y="-131"/>
      <point x="954" y="-95"/>
      <point x="850" y="-90" type="curve" smooth="yes"/>
      <point x="841" y="-90" type="line"/>
      <point x="859" y="17" type="line"/>
      <point x="762" y="17" type="line"/>
      <point x="729" y="-173" type="line"/>
      <point x="761" y="-171" type="line" smooth="yes"/>
      <point x="772" y="-170"/>
      <point x="789" y="-168"/>
      <point x="798" y="-168" type="curve" smooth="yes"/>
      <point x="858" y="-168"/>
      <point x="907" y="-182"/>
      <point x="907" y="-241" type="curve" smooth="yes"/>
      <point x="907" y="-297"/>
      <point x="859" y="-313"/>
      <point x="793" y="-313" type="curve" smooth="yes"/>
      <point x="739" y="-313"/>
      <point x="692" y="-301"/>
      <point x="642" y="-289" type="curve"/>
      <point x="634" y="-374" type="line"/>
      <point x="688" y="-385"/>
      <point x="749" y="-396"/>
    </contour>
    <contour>
      <point x="816" y="-22" type="curve" smooth="yes"/>
      <point x="1017" y="-22"/>
      <point x="1176" y="31"/>
      <point x="1295" y="127" type="curve"/>
      <point x="1238" y="267" type="line"/>
      <point x="1137" y="179"/>
      <point x="1002" y="130"/>
      <point x="821" y="130" type="curve" smooth="yes"/>
      <point x="465" y="130"/>
      <point x="295" y="382"/>
      <point x="295" y="725" type="curve" smooth="yes"/>
      <point x="295" y="1076"/>
      <point x="483" y="1331"/>
      <point x="837" y="1331" type="curve" smooth="yes"/>
      <point x="974" y="1331"/>
      <point x="1101" y="1283"/>
      <point x="1202" y="1206" type="curve"/>
      <point x="1281" y="1332" type="line"/>
      <point x="1171" y="1414"/>
      <point x="1038" y="1483"/>
      <point x="818" y="1483" type="curve" smooth="yes"/>
      <point x="390" y="1483"/>
      <point x="112" y="1168"/>
      <point x="112" y="726" type="curve" smooth="yes"/>
      <point x="112" y="287"/>
      <point x="375" y="-22"/>
    </contour>
  </outline>
</glyph>
<glyph name="Egrave" format="1">
  <advance width="1187"/>
  <unicode hex="00C8"/>
  <outline>
    <contour>
      <point x="174" y="0" type="line"/>
      <point x="1091" y="0" type="line"/>
      <point x="1091" y="148" type="line"/>
      <point x="346" y="148" type="line"/>
      <point x="346" y="672" type="line"/>
      <point x="1003" y="672" type="line"/>
      <point x="1003" y="820" type="line"/>
      <point x="346" y="820" type="line"/>
      <point x="346" y="1308" type="line"/>
      <point x="1041" y="1308" type="line"/>
      <point x="1041" y="1456" type="line"/>
      <point x="174" y="1456" type="line"/>
    </contour>
    <contour>
      <point x="608" y="1602" type="line"/>
      <point x="737" y="1602" type="line"/>
      <point x="490" y="1922" type="line"/>
      <point x="276" y="1922" type="line"/>
    </contour>
  </outline>
</glyph>
<glyph name="Eacute" format="1">
  <advance width="1187"/>
  <unicode hex="00C9"/>
  <outline>
    <contour>
      <point x="174" y="0" type="line"/>
      <point x="1091" y="0" type="line"/>
      <point x="1091" y="148" type="line"/>
      <point x="346" y="148" type="line"/>
      <point x="346" y="672" type="line"/>
      <point x="1003" y="672" type="line"/>
      <point x="1003" y="820" type="line"/>
      <point x="346" y="820" type="line"/>
      <point x="346" y="1308" type="line"/>
      <point x="1041" y="1308" type="line"/>
      <point x="1041" y="1456" type="line"/>
      <point x="174" y="1456" type="line"/>
    </contour>
    <contour>
      <point x="562" y="1602" type="line"/>
      <point x="692" y="1602" type="line"/>
      <point x="1000" y="1922" type="line"/>
      <point x="788" y="1922" type="line"/>
    </contour>
  </outline>
</glyph>
<glyph name="Ecircumflex" format="1">
  <advance width="1187"/>
  <unicode hex="00CA"/>
  <outline>
    <contour>
      <point x="174" y="1456" type="line"/>
      <point x="174" y="0" type="line"/>
      <point x="1091" y="0" type="line"/>
      <point x="1091" y="148" type="line"/>
      <point x="346" y="148" type="line"/>
      <point x="346" y="672" type="line"/>
      <point x="1003" y="672" type="line"/>
      <point x="1003" y="820" type="line"/>
      <point x="346" y="820" type="line"/>
      <point x="346" y="1308" type="line"/>
      <point x="1041" y="1308" type="line"/>
      <point x="1041" y="1456" type="line"/>
    </contour>
    <contour>
      <point x="336" y="1600" type="line"/>
      <point x="462" y="1600" type="line"/>
      <point x="640" y="1816" type="line"/>
      <point x="818" y="1600" type="line"/>
      <point x="950" y="1600" type="line"/>
      <point x="721" y="1924" type="line"/>
      <point x="564" y="1924" type="line"/>
    </contour>
  </outline>
</glyph>
<glyph name="Igrave" format="1">
  <advance width="544"/>
  <unicode hex="00CC"/>
  <outline>
    <contour>
      <point x="237" y="1602" type="line"/>
      <point x="366" y="1602" type="line"/>
      <point x="119" y="1922" type="line"/>
      <point x="-95" y="1922" type="line"/>
    </contour>
    <contour>
      <point x="186" y="0" type="line"/>
      <point x="358" y="0" type="line"/>
      <point x="358" y="1456" type="line"/>
      <point x="186" y="1456" type="line"/>
    </contour>
  </outline>
</glyph>
<glyph name="Iacute" format="1">
  <advance width="544"/>
  <unicode hex="00CD"/>
  <outline>
    <contour>
      <point x="186" y="0" type="line"/>
      <point x="358" y="0" type="line"/>
      <point x="358" y="1456" type="line"/>
      <point x="186" y="1456" type="line"/>
    </contour>
    <contour>
      <point x="191" y="1602" type="line"/>
      <point x="321" y="1602" type="line"/>
      <point x="629" y="1922" type="line"/>
      <point x="417" y="1922" type="line"/>
    </contour>
  </outline>
</glyph>
<glyph name="Icircumflex" format="1">
  <advance width="544"/>
  <unicode hex="00CE"/>
  <outline>
    <contour>
      <point x="186" y="1456" type="line"/>
      <point x="186" y="0" type="line"/>
      <point x="358" y="0" type="line"/>
      <point x="358" y="1456" type="line"/>
    </contour>
    <contour>
      <point x="-35" y="1600" type="line"/>
      <point x="91" y="1600" type="line"/>
      <point x="269" y="1816" type="line"/>
      <point x="447" y="1600" type="line"/>
      <point x="579" y="1600" type="line"/>
      <point x="350" y="1924" type="line"/>
      <point x="193" y="1924" type="line"/>
    </contour>
  </outline>
</glyph>
<glyph name="Idieresis" format="1">
  <advance width="544"/>
  <unicode hex="00CF"/>
  <outline>
    <contour>
      <point x="24" y="1613" type="line"/>
      <point x="188" y="1613" type="line"/>
      <point x="188" y="1776" type="line"/>
      <point x="24" y="1776" type="line"/>
    </contour>
    <contour>
      <point x="186" y="0" type="line"/>
      <point x="358" y="0" type="line"/>
      <point x="358" y="1456" type="line"/>
      <point x="186" y="1456" type="line"/>
    </contour>
    <contour>
      <point x="356" y="1613" type="line"/>
      <point x="520" y="1613" type="line"/>
      <point x="520" y="1776" type="line"/>
      <point x="356" y="1776" type="line"/>
    </contour>
  </outline>
</glyph>
<glyph name="Eth" format="1">
  <advance width="1518"/>
  <unicode hex="00D0"/>
  <outline>
    <contour>
      <point x="43" y="800" type="line"/>
      <point x="610" y="800" type="line"/>
      <point x="610" y="672" type="line"/>
      <point x="43" y="672" type="line"/>
    </contour>
    <component base="D"/>
  </outline>
</glyph>
<glyph name="Ntilde" format="1">
  <advance width="1570"/>
  <unicode hex="00D1"/>
  <outline>
    <contour>
      <point x="174" y="0" type="line"/>
      <point x="346" y="0" type="line"/>
      <point x="346" y="1237" type="line"/>
      <point x="418" y="1113" type="line"/>
      <point x="1188" y="0" type="line"/>
      <point x="1396" y="0" type="line"/>
      <point x="1396" y="1456" type="line"/>
      <point x="1225" y="1456" type="line"/>
      <point x="1225" y="215" type="line"/>
      <point x="1147" y="342" type="line"/>
      <point x="380" y="1456" type="line"/>
      <point x="174" y="1456" type="line"/>
    </contour>
    <contour>
      <point x="473" y="1633" type="curve"/>
      <point x="578" y="1633" type="line"/>
      <point x="585" y="1690"/>
      <point x="615" y="1718"/>
      <point x="669" y="1718" type="curve" smooth="yes"/>
      <point x="764" y="1718"/>
      <point x="826" y="1650"/>
      <point x="922" y="1650" type="curve" smooth="yes"/>
      <point x="1046" y="1650"/>
      <point x="1104" y="1752"/>
      <point x="1117" y="1865" type="curve"/>
      <point x="1009" y="1865" type="line"/>
      <point x="1002" y="1814"/>
      <point x="975" y="1775"/>
      <point x="922" y="1775" type="curve" smooth="yes"/>
      <point x="903" y="1775"/>
      <point x="883" y="1779"/>
      <point x="863" y="1786" type="curve" smooth="yes"/>
      <point x="805" y="1807"/>
      <point x="748" y="1843"/>
      <point x="672" y="1843" type="curve" smooth="yes"/>
      <point x="548" y="1843"/>
      <point x="483" y="1749"/>
    </contour>
  </outline>
</glyph>
<glyph name="Oacute" format="1">
  <advance width="1660"/>
  <unicode hex="00D3"/>
  <outline>
    <contour>
      <point x="830" y="127" type="curve" smooth="yes"/>
      <point x="552" y="127"/>
      <point x="296" y="330"/>
      <point x="296" y="729" type="curve" smooth="yes"/>
      <point x="296" y="1128"/>
      <point x="552" y="1331"/>
      <point x="830" y="1331" type="curve" smooth="yes"/>
      <point x="1108" y="1331"/>
      <point x="1364" y="1128"/>
      <point x="1364" y="729" type="curve" smooth="yes"/>
      <point x="1364" y="330"/>
      <point x="1108" y="127"/>
    </contour>
    <contour>
      <point x="830" y="-25" type="curve" smooth="yes"/>
      <point x="1304" y="-25"/>
      <point x="1548" y="336"/>
      <point x="1548" y="728" type="curve" smooth="yes"/>
      <point x="1548" y="1122"/>
      <point x="1304" y="1483"/>
      <point x="830" y="1483" type="curve" smooth="yes"/>
      <point x="356" y="1483"/>
      <point x="112" y="1122"/>
      <point x="112" y="728" type="curve" smooth="yes"/>
      <point x="112" y="336"/>
      <point x="356" y="-25"/>
    </contour>
    <contour>
      <point x="746" y="146" type="line"/>
      <point x="876" y="146" type="line"/>
      <point x="1184" y="466" type="line"/>
      <point x="972" y="466" type="line"/>
    </contour>
  </outline>
</glyph>
<glyph name="Ocircumflex" format="1">
  <advance width="1660"/>
  <unicode hex="00D4"/>
  <outline>
    <contour>
      <point x="830" y="1483" type="curve" smooth="yes"/>
      <point x="356" y="1483"/>
      <point x="112" y="1122"/>
      <point x="112" y="728" type="curve" smooth="yes"/>
      <point x="112" y="336"/>
      <point x="356" y="-25"/>
      <point x="830" y="-25" type="curve" smooth="yes"/>
      <point x="1304" y="-25"/>
      <point x="1548" y="336"/>
      <point x="1548" y="728" type="curve" smooth="yes"/>
      <point x="1548" y="1122"/>
      <point x="1304" y="1483"/>
    </contour>
    <contour>
      <point x="830" y="1331" type="curve" smooth="yes"/>
      <point x="1108" y="1331"/>
      <point x="1364" y="1128"/>
      <point x="1364" y="729" type="curve" smooth="yes"/>
      <point x="1364" y="330"/>
      <point x="1108" y="127"/>
      <point x="830" y="127" type="curve" smooth="yes"/>
      <point x="552" y="127"/>
      <point x="296" y="330"/>
      <point x="296" y="729" type="curve" smooth="yes"/>
      <point x="296" y="1128"/>
      <point x="552" y="1331"/>
    </contour>
    <contour>
      <point x="520" y="144" type="line"/>
      <point x="646" y="144" type="line"/>
      <point x="824" y="360" type="line"/>
      <point x="1002" y="144" type="line"/>
      <point x="1134" y="144" type="line"/>
      <point x="905" y="468" type="line"/>
      <point x="748" y="468" type="line"/>
    </contour>
  </outline>
</glyph>
<glyph name="Otilde" format="1">
  <advance width="1660"/>
  <unicode hex="00D5"/>
  <outline>
    <contour>
      <point x="505" y="177" type="line"/>
      <point x="515" y="293"/>
      <point x="580" y="387"/>
      <point x="704" y="387" type="curve" smooth="yes"/>
      <point x="780" y="387"/>
      <point x="837" y="351"/>
      <point x="895" y="330" type="curve" smooth="yes"/>
      <point x="915" y="323"/>
      <point x="935" y="319"/>
      <point x="954" y="319" type="curve" smooth="yes"/>
      <point x="1007" y="319"/>
      <point x="1034" y="358"/>
      <point x="1041" y="409" type="curve"/>
      <point x="1149" y="409" type="line"/>
      <point x="1136" y="296"/>
      <point x="1078" y="194"/>
      <point x="954" y="194" type="curve" smooth="yes"/>
      <point x="858" y="194"/>
      <point x="796" y="262"/>
      <point x="701" y="262" type="curve" smooth="yes"/>
      <point x="647" y="262"/>
      <point x="617" y="234"/>
      <point x="610" y="177" type="curve"/>
    </contour>
    <contour>
      <point x="830" y="127" type="curve" smooth="yes"/>
      <point x="552" y="127"/>
      <point x="296" y="330"/>
      <point x="296" y="729" type="curve" smooth="yes"/>
      <point x="296" y="1128"/>
      <point x="552" y="1331"/>
      <point x="830" y="1331" type="curve" smooth="yes"/>
      <point x="1108" y="1331"/>
      <point x="1364" y="1128"/>
      <point x="1364" y="729" type="curve" smooth="yes"/>
      <point x="1364" y="330"/>
      <point x="1108" y="127"/>
    </contour>
    <contour>
      <point x="830" y="-25" type="curve" smooth="yes"/>
      <point x="1304" y="-25"/>
      <point x="1548" y="336"/>
      <point x="1548" y="728" type="curve" smooth="yes"/>
      <point x="1548" y="1122"/>
      <point x="1304" y="1483"/>
      <point x="830" y="1483" type="curve" smooth="yes"/>
      <point x="356" y="1483"/>
      <point x="112" y="1122"/>
      <point x="112" y="728" type="curve" smooth="yes"/>
      <point x="112" y="336"/>
      <point x="356" y="-25"/>
    </contour>
  </outline>
</glyph>
<glyph name="Odieresis" format="1">
  <advance width="1660"/>
  <unicode hex="00D6"/>
  <outline>
    <contour>
      <point x="579" y="157" type="line"/>
      <point x="579" y="320" type="line"/>
      <point x="743" y="320" type="line"/>
      <point x="743" y="157" type="line"/>
    </contour>
    <contour>
      <point x="830" y="127" type="curve" smooth="yes"/>
      <point x="552" y="127"/>
      <point x="296" y="330"/>
      <point x="296" y="729" type="curve" smooth="yes"/>
      <point x="296" y="1128"/>
      <point x="552" y="1331"/>
      <point x="830" y="1331" type="curve" smooth="yes"/>
      <point x="1108" y="1331"/>
      <point x="1364" y="1128"/>
      <point x="1364" y="729" type="curve" smooth="yes"/>
      <point x="1364" y="330"/>
      <point x="1108" y="127"/>
    </contour>
    <contour>
      <point x="830" y="-25" type="curve" smooth="yes"/>
      <point x="1304" y="-25"/>
      <point x="1548" y="336"/>
      <point x="1548" y="728" type="curve" smooth="yes"/>
      <point x="1548" y="1122"/>
      <point x="1304" y="1483"/>
      <point x="830" y="1483" type="curve" smooth="yes"/>
      <point x="356" y="1483"/>
      <point x="112" y="1122"/>
      <point x="112" y="728" type="curve" smooth="yes"/>
      <point x="112" y="336"/>
      <point x="356" y="-25"/>
    </contour>
    <contour>
      <point x="911" y="157" type="line"/>
      <point x="911" y="320" type="line"/>
      <point x="1075" y="320" type="line"/>
      <point x="1075" y="157" type="line"/>
    </contour>
  </outline>
</glyph>
<glyph name="multiply" format="1">
  <advance width="1455"/>
  <unicode hex="00D7"/>
  <outline>
    <contour>
      <point x="435" y="154" type="line"/>
      <point x="332" y="257" type="line"/>
      <point x="626" y="554" type="line"/>
      <point x="332" y="851" type="line"/>
      <point x="435" y="954" type="line"/>
      <point x="726" y="657" type="line"/>
      <point x="1016" y="954" type="line"/>
      <point x="1120" y="850" type="line"/>
      <point x="825" y="554" type="line"/>
      <point x="1120" y="258" type="line"/>
      <point x="1016" y="154" type="line"/>
      <point x="726" y="450" type="line"/>
    </contour>
  </outline>
</glyph>
<glyph name="Oslash" format="1">
  <advance width="1620"/>
  <unicode hex="00D8"/>
  <outline>
    <contour>
      <point x="512" y="-165" type="line"/>
      <point x="396" y="-121" type="line"/>
      <point x="469" y="58" type="line"/>
      <point x="235" y="187"/>
      <point x="112" y="450"/>
      <point x="112" y="728" type="curve" smooth="yes"/>
      <point x="112" y="1122"/>
      <point x="354" y="1483"/>
      <point x="809" y="1483" type="curve" smooth="yes"/>
      <point x="891" y="1483"/>
      <point x="965" y="1471"/>
      <point x="1032" y="1450" type="curve"/>
      <point x="1103" y="1625" type="line"/>
      <point x="1223" y="1581" type="line"/>
      <point x="1149" y="1399" type="line"/>
      <point x="1382" y="1270"/>
      <point x="1505" y="1007"/>
      <point x="1505" y="728" type="curve" smooth="yes"/>
      <point x="1505" y="336"/>
      <point x="1264" y="-25"/>
      <point x="809" y="-25" type="curve" smooth="yes"/>
      <point x="726" y="-25"/>
      <point x="651" y="-13"/>
      <point x="583" y="9" type="curve"/>
    </contour>
    <contour>
      <point x="530" y="211" type="curve"/>
      <point x="973" y="1304" type="line"/>
      <point x="920" y="1322"/>
      <point x="866" y="1331"/>
      <point x="809" y="1331" type="curve" smooth="yes"/>
      <point x="542" y="1331"/>
      <point x="296" y="1128"/>
      <point x="296" y="729" type="curve" smooth="yes"/>
      <point x="296" y="479"/>
      <point x="392" y="305"/>
    </contour>
    <contour>
      <point x="809" y="127" type="curve" smooth="yes"/>
      <point x="1076" y="127"/>
      <point x="1321" y="330"/>
      <point x="1321" y="729" type="curve" smooth="yes"/>
      <point x="1321" y="979"/>
      <point x="1224" y="1152"/>
      <point x="1087" y="1246" type="curve"/>
      <point x="643" y="155" type="line"/>
      <point x="696" y="136"/>
      <point x="751" y="127"/>
    </contour>
  </outline>
</glyph>
<glyph name="Oslash" format="1">
  <advance width="1663"/>
  <unicode hex="00D8"/>
  <outline>
    <contour>
      <point x="521" y="-165" type="line"/>
      <point x="1262" y="1581" type="line"/>
      <point x="1137" y="1625" type="line"/>
      <point x="400" y="-121" type="line"/>
    </contour>
    <contour>
      <point x="830" y="1483" type="curve" smooth="yes"/>
      <point x="356" y="1483"/>
      <point x="112" y="1122"/>
      <point x="112" y="728" type="curve" smooth="yes"/>
      <point x="112" y="336"/>
      <point x="356" y="-25"/>
      <point x="830" y="-25" type="curve" smooth="yes"/>
      <point x="1304" y="-25"/>
      <point x="1548" y="336"/>
      <point x="1548" y="728" type="curve" smooth="yes"/>
      <point x="1548" y="1122"/>
      <point x="1304" y="1483"/>
    </contour>
    <contour>
      <point x="830" y="1331" type="curve" smooth="yes"/>
      <point x="1108" y="1331"/>
      <point x="1364" y="1128"/>
      <point x="1364" y="729" type="curve" smooth="yes"/>
      <point x="1364" y="330"/>
      <point x="1108" y="127"/>
      <point x="830" y="127" type="curve" smooth="yes"/>
      <point x="552" y="127"/>
      <point x="296" y="330"/>
      <point x="296" y="729" type="curve" smooth="yes"/>
      <point x="296" y="1128"/>
      <point x="552" y="1331"/>
    </contour>
  </outline>
</glyph>
<glyph name="Ucircumflex" format="1">
  <advance width="1473"/>
  <unicode hex="00DB"/>
  <outline>
    <contour>
      <point x="1138" y="1456" type="line"/>
      <point x="1138" y="539" type="line" smooth="yes"/>
      <point x="1138" y="279"/>
      <point x="999" y="123"/>
      <point x="747" y="123" type="curve" smooth="yes"/>
      <point x="475" y="123"/>
      <point x="336" y="260"/>
      <point x="336" y="546" type="curve" smooth="yes"/>
      <point x="336" y="1456" type="line"/>
      <point x="164" y="1456" type="line"/>
      <point x="164" y="541" type="line" smooth="yes"/>
      <point x="164" y="157"/>
      <point x="365" y="-22"/>
      <point x="749" y="-22" type="curve" smooth="yes"/>
      <point x="1111" y="-22"/>
      <point x="1307" y="191"/>
      <point x="1309" y="551" type="curve" smooth="yes"/>
      <point x="1309" y="1456" type="line"/>
    </contour>
    <contour>
      <point x="432" y="1600" type="line"/>
      <point x="558" y="1600" type="line"/>
      <point x="736" y="1816" type="line"/>
      <point x="914" y="1600" type="line"/>
      <point x="1046" y="1600" type="line"/>
      <point x="817" y="1924" type="line"/>
      <point x="660" y="1924" type="line"/>
    </contour>
  </outline>
</glyph>
<glyph name="Yacute" format="1">
  <advance width="1256"/>
  <unicode hex="00DD"/>
  <outline>
    <contour>
      <point x="537" y="0" type="line"/>
      <point x="709" y="0" type="line"/>
      <point x="709" y="585" type="line"/>
      <point x="1252" y="1456" type="line"/>
      <point x="1061" y="1456" type="line"/>
      <point x="626" y="727" type="line"/>
      <point x="195" y="1456" type="line"/>
      <point x="4" y="1456" type="line"/>
      <point x="537" y="582" type="line"/>
    </contour>
    <contour>
      <point x="546" y="1602" type="line"/>
      <point x="676" y="1602" type="line"/>
      <point x="984" y="1922" type="line"/>
      <point x="772" y="1922" type="line"/>
    </contour>
  </outline>
</glyph>
<glyph name="Thorn" format="1">
  <advance width="1261"/>
  <unicode hex="00DE"/>
  <outline>
    <contour>
      <point x="213" y="0" type="line"/>
      <point x="385" y="0" type="line"/>
      <point x="385" y="443" type="line"/>
      <point x="651" y="443" type="line" smooth="yes"/>
      <point x="973" y="443"/>
      <point x="1187.0" y="553.519666498"/>
      <point x="1187" y="876" type="curve" smooth="yes"/>
      <point x="1187" y="1231"/>
      <point x="941" y="1312"/>
      <point x="600" y="1312" type="curve" smooth="yes"/>
      <point x="385" y="1312" type="line"/>
      <point x="385" y="1456" type="line"/>
      <point x="213" y="1456" type="line"/>
    </contour>
    <contour>
      <point x="385" y="592" type="line"/>
      <point x="385" y="1164" type="line"/>
      <point x="642" y="1164" type="line" smooth="yes"/>
      <point x="872" y="1164"/>
      <point x="1003" y="1114"/>
      <point x="1003" y="874" type="curve" smooth="yes"/>
      <point x="1003.0" y="673.538857367"/>
      <point x="899" y="592"/>
      <point x="689" y="592" type="curve" smooth="yes"/>
    </contour>
  </outline>
</glyph>
<glyph name="germandbls" format="1">
  <advance width="1267"/>
  <unicode hex="00DF"/>
  <outline>
    <contour>
      <point x="802" y="-23" type="curve" smooth="yes"/>
      <point x="851" y="-23"/>
      <point x="898" y="-14"/>
      <point x="944" y="3" type="curve" smooth="yes"/>
      <point x="1074" y="52"/>
      <point x="1183" y="164"/>
      <point x="1183" y="341" type="curve" smooth="yes"/>
      <point x="1183" y="407"/>
      <point x="1170" y="464"/>
      <point x="1143" y="514" type="curve" smooth="yes"/>
      <point x="1064" y="661"/>
      <point x="906" y="747"/>
      <point x="732" y="798" type="curve" smooth="yes"/>
      <point x="713" y="804"/>
      <point x="703" y="810"/>
      <point x="703" y="816" type="curve" smooth="yes"/>
      <point x="703" y="827"/>
      <point x="720" y="834"/>
      <point x="729" y="838" type="curve" smooth="yes"/>
      <point x="798" y="868"/>
      <point x="862" y="916"/>
      <point x="913" y="968" type="curve" smooth="yes"/>
      <point x="965" y="1020"/>
      <point x="1021" y="1093"/>
      <point x="1021" y="1192" type="curve" smooth="yes"/>
      <point x="1021" y="1236"/>
      <point x="1012" y="1277"/>
      <point x="994" y="1316" type="curve" smooth="yes"/>
      <point x="935" y="1440"/>
      <point x="798" y="1511"/>
      <point x="614" y="1511" type="curve" smooth="yes"/>
      <point x="545" y="1511"/>
      <point x="484" y="1501"/>
      <point x="430" y="1480" type="curve" smooth="yes"/>
      <point x="277" y="1420"/>
      <point x="184" y="1282"/>
      <point x="184" y="1071" type="curve" smooth="yes"/>
      <point x="186" y="0" type="line"/>
      <point x="351" y="0" type="line"/>
      <point x="351" y="101"/>
      <point x="350" y="217"/>
      <point x="350" y="326" type="curve" smooth="yes"/>
      <point x="350" y="450"/>
      <point x="348" y="587"/>
      <point x="348" y="711" type="curve" smooth="yes"/>
      <point x="348" y="820"/>
      <point x="347" y="937"/>
      <point x="347" y="1038" type="curve" smooth="yes"/>
      <point x="347" y="1228"/>
      <point x="423" y="1382"/>
      <point x="613" y="1382" type="curve" smooth="yes"/>
      <point x="741" y="1382"/>
      <point x="833" y="1318"/>
      <point x="833" y="1191" type="curve" smooth="yes"/>
      <point x="833" y="1157"/>
      <point x="827" y="1125"/>
      <point x="814" y="1095" type="curve" smooth="yes"/>
      <point x="773" y="1001"/>
      <point x="691" y="934"/>
      <point x="598" y="892" type="curve"/>
      <point x="582" y="756" type="line"/>
      <point x="682" y="699"/>
      <point x="787" y="641"/>
      <point x="868" y="570" type="curve" smooth="yes"/>
      <point x="934" y="512"/>
      <point x="996" y="437"/>
      <point x="996" y="322" type="curve" smooth="yes"/>
      <point x="996" y="197"/>
      <point x="921" y="109"/>
      <point x="798" y="109" type="curve" smooth="yes"/>
      <point x="689" y="109"/>
      <point x="607" y="173"/>
      <point x="546" y="243" type="curve"/>
      <point x="481" y="138" type="line"/>
      <point x="553" y="47"/>
      <point x="658" y="-23"/>
    </contour>
  </outline>
</glyph>
<glyph name="adieresis" format="1">
  <advance width="1205"/>
  <unicode hex="00E4"/>
  <outline>
    <contour>
      <point x="506" y="-22" type="curve" smooth="yes"/>
      <point x="664" y="-22"/>
      <point x="814" y="53"/>
      <point x="882" y="166" type="curve"/>
      <point x="905" y="64"/>
      <point x="998" y="-4"/>
      <point x="1114" y="-4" type="curve"/>
      <point x="1148" y="139" type="line"/>
      <point x="1073" y="139"/>
      <point x="1023" y="198"/>
      <point x="1023" y="286" type="curve" smooth="yes"/>
      <point x="1023" y="962" type="line"/>
      <point x="943" y="1014"/>
      <point x="800" y="1048"/>
      <point x="666" y="1048" type="curve" smooth="yes"/>
      <point x="320" y="1048"/>
      <point x="90" y="804"/>
      <point x="90" y="438" type="curve" smooth="yes"/>
      <point x="90" y="162"/>
      <point x="256" y="-22"/>
    </contour>
    <contour>
      <point x="531" y="116" type="curve" smooth="yes"/>
      <point x="368" y="116"/>
      <point x="260" y="249"/>
      <point x="260" y="448" type="curve" smooth="yes"/>
      <point x="260" y="723"/>
      <point x="421" y="907"/>
      <point x="663" y="907" type="curve" smooth="yes"/>
      <point x="739" y="907"/>
      <point x="817" y="893"/>
      <point x="859" y="872" type="curve"/>
      <point x="859" y="453" type="line" smooth="yes"/>
      <point x="859" y="261"/>
      <point x="728" y="116"/>
    </contour>
    <contour>
      <point x="382" y="1183" type="line"/>
      <point x="546" y="1183" type="line"/>
      <point x="546" y="1346" type="line"/>
      <point x="382" y="1346" type="line"/>
    </contour>
    <contour>
      <point x="714" y="1183" type="line"/>
      <point x="878" y="1183" type="line"/>
      <point x="878" y="1346" type="line"/>
      <point x="714" y="1346" type="line"/>
    </contour>
  </outline>
</glyph>
<glyph name="aring" format="1">
  <advance width="1205"/>
  <unicode hex="00E5"/>
  <outline>
    <contour>
      <point x="506" y="-22" type="curve" smooth="yes"/>
      <point x="664" y="-22"/>
      <point x="814" y="53"/>
      <point x="882" y="166" type="curve"/>
      <point x="905" y="64"/>
      <point x="998" y="-4"/>
      <point x="1114" y="-4" type="curve"/>
      <point x="1148" y="139" type="line"/>
      <point x="1073" y="139"/>
      <point x="1023" y="198"/>
      <point x="1023" y="286" type="curve" smooth="yes"/>
      <point x="1023" y="962" type="line"/>
      <point x="943" y="1014"/>
      <point x="800" y="1048"/>
      <point x="666" y="1048" type="curve" smooth="yes"/>
      <point x="320" y="1048"/>
      <point x="90" y="804"/>
      <point x="90" y="438" type="curve" smooth="yes"/>
      <point x="90" y="162"/>
      <point x="256" y="-22"/>
    </contour>
    <contour>
      <point x="631" y="1149" type="curve" smooth="yes"/>
      <point x="659" y="1149"/>
      <point x="686" y="1154"/>
      <point x="711" y="1164" type="curve" smooth="yes"/>
      <point x="778" y="1190"/>
      <point x="840" y="1249"/>
      <point x="840" y="1340" type="curve" smooth="yes"/>
      <point x="840" y="1366"/>
      <point x="835" y="1391"/>
      <point x="824" y="1414" type="curve" smooth="yes"/>
      <point x="794" y="1480"/>
      <point x="725" y="1530"/>
      <point x="630" y="1530" type="curve" smooth="yes"/>
      <point x="601" y="1530"/>
      <point x="573" y="1526"/>
      <point x="548" y="1516" type="curve" smooth="yes"/>
      <point x="480" y="1490"/>
      <point x="420" y="1431"/>
      <point x="420" y="1339" type="curve" smooth="yes"/>
      <point x="420" y="1312"/>
      <point x="425" y="1287"/>
      <point x="436" y="1264" type="curve" smooth="yes"/>
      <point x="467" y="1199"/>
      <point x="536" y="1149"/>
    </contour>
    <contour>
      <point x="531" y="116" type="curve" smooth="yes"/>
      <point x="368" y="116"/>
      <point x="260" y="249"/>
      <point x="260" y="448" type="curve" smooth="yes"/>
      <point x="260" y="723"/>
      <point x="421" y="907"/>
      <point x="663" y="907" type="curve" smooth="yes"/>
      <point x="739" y="907"/>
      <point x="817" y="893"/>
      <point x="859" y="872" type="curve"/>
      <point x="859" y="453" type="line" smooth="yes"/>
      <point x="859" y="261"/>
      <point x="728" y="116"/>
    </contour>
    <contour>
      <point x="629" y="1235" type="curve" smooth="yes"/>
      <point x="564" y="1235"/>
      <point x="519" y="1276"/>
      <point x="519" y="1340" type="curve" smooth="yes"/>
      <point x="519" y="1400"/>
      <point x="569" y="1445"/>
      <point x="629" y="1445" type="curve" smooth="yes"/>
      <point x="691" y="1445"/>
      <point x="740" y="1402"/>
      <point x="740" y="1340" type="curve" smooth="yes"/>
      <point x="740" y="1280"/>
      <point x="689" y="1235"/>
    </contour>
  </outline>
</glyph>
<glyph name="ae" format="1">
  <advance width="1817"/>
  <unicode hex="00E6"/>
  <outline>
    <contour>
      <point x="451" y="-22" type="curve" smooth="yes"/>
      <point x="671" y="-22"/>
      <point x="795" y="95"/>
      <point x="863" y="230" type="curve"/>
      <point x="908" y="80"/>
      <point x="1054" y="-22"/>
      <point x="1242" y="-22" type="curve" smooth="yes"/>
      <point x="1456" y="-22"/>
      <point x="1592" y="65"/>
      <point x="1674" y="206" type="curve"/>
      <point x="1587" y="292" type="line"/>
      <point x="1521" y="193"/>
      <point x="1407" y="115"/>
      <point x="1252" y="115" type="curve" smooth="yes"/>
      <point x="1039" y="115"/>
      <point x="951" y="253"/>
      <point x="951" y="463" type="curve" smooth="yes"/>
      <point x="951" y="468"/>
      <point x="952" y="485"/>
      <point x="952" y="489" type="curve"/>
      <point x="1707" y="489" type="line"/>
      <point x="1707" y="524" type="line" smooth="yes"/>
      <point x="1707" y="845"/>
      <point x="1553" y="1048"/>
      <point x="1261" y="1048" type="curve" smooth="yes"/>
      <point x="1094" y="1048"/>
      <point x="943" y="941"/>
      <point x="887" y="806" type="curve"/>
      <point x="845" y="956"/>
      <point x="726" y="1048"/>
      <point x="560" y="1048" type="curve" smooth="yes"/>
      <point x="363" y="1048"/>
      <point x="227" y="985"/>
      <point x="158" y="856" type="curve"/>
      <point x="248" y="763" type="line"/>
      <point x="308" y="864"/>
      <point x="401" y="907"/>
      <point x="550" y="907" type="curve" smooth="yes"/>
      <point x="716" y="907"/>
      <point x="781" y="793"/>
      <point x="781" y="628" type="curve" smooth="yes"/>
      <point x="781" y="605" type="line"/>
      <point x="453" y="605"/>
      <point x="91" y="611"/>
      <point x="91" y="282" type="curve" smooth="yes"/>
      <point x="91" y="92"/>
      <point x="232" y="-22"/>
    </contour>
    <contour>
      <point x="474" y="115" type="curve" smooth="yes"/>
      <point x="347" y="115"/>
      <point x="260" y="163"/>
      <point x="260" y="290" type="curve" smooth="yes"/>
      <point x="260" y="461"/>
      <point x="452" y="481"/>
      <point x="637" y="486" type="curve"/>
      <point x="783" y="489" type="line"/>
      <point x="783" y="272"/>
      <point x="694" y="115"/>
    </contour>
    <contour>
      <point x="953" y="606" type="line"/>
      <point x="965" y="761"/>
      <point x="1065" y="907"/>
      <point x="1260" y="907" type="curve" smooth="yes"/>
      <point x="1450" y="907"/>
      <point x="1527" y="780"/>
      <point x="1544" y="606" type="curve"/>
    </contour>
  </outline>
</glyph>
<glyph name="eth" format="1">
  <advance width="1173"/>
  <unicode hex="00F0"/>
  <outline>
    <contour>
      <point x="589" y="-22" type="curve" smooth="yes"/>
      <point x="926" y="-22"/>
      <point x="1100" y="267"/>
      <point x="1077" y="672" type="curve" smooth="yes"/>
      <point x="1047" y="1198"/>
      <point x="693" y="1416"/>
      <point x="467" y="1490" type="curve"/>
      <point x="392" y="1383" type="line"/>
      <point x="534" y="1340"/>
      <point x="903" y="1140"/>
      <point x="902" y="733" type="curve"/>
      <point x="902" y="723" type="line"/>
      <point x="833" y="838"/>
      <point x="729" y="915"/>
      <point x="556" y="915" type="curve" smooth="yes"/>
      <point x="299" y="915"/>
      <point x="98.0" y="738.293238732"/>
      <point x="98" y="446" type="curve" smooth="yes"/>
      <point x="98.0" y="185.789303589"/>
      <point x="288" y="-22"/>
    </contour>
    <contour>
      <point x="582" y="118" type="curve" smooth="yes"/>
      <point x="408" y="118"/>
      <point x="274.0" y="238.614846357"/>
      <point x="274" y="441" type="curve" smooth="yes"/>
      <point x="274" y="638"/>
      <point x="391" y="775"/>
      <point x="582" y="775" type="curve" smooth="yes"/>
      <point x="745" y="775"/>
      <point x="845" y="664"/>
      <point x="887" y="536" type="curve"/>
      <point x="887" y="310"/>
      <point x="798" y="118"/>
    </contour>
    <contour>
      <point x="467" y="1156" type="line"/>
      <point x="529" y="1061" type="line"/>
      <point x="994" y="1361" type="line"/>
      <point x="933" y="1456" type="line"/>
    </contour>
  </outline>
</glyph>
<glyph name="divide" format="1">
  <advance width="1435"/>
  <unicode hex="00F7"/>
  <outline>
    <contour>
      <point x="612" y="873" type="line"/>
      <point x="820" y="873" type="line"/>
      <point x="820" y="1083" type="line"/>
      <point x="612" y="1083" type="line"/>
    </contour>
    <contour>
      <point x="198" y="485" type="line"/>
      <point x="1224" y="485" type="line"/>
      <point x="1224" y="624" type="line"/>
      <point x="198" y="624" type="line"/>
    </contour>
    <contour>
      <point x="612" y="21" type="line"/>
      <point x="820" y="21" type="line"/>
      <point x="820" y="231" type="line"/>
      <point x="612" y="231" type="line"/>
    </contour>
  </outline>
</glyph>
<glyph name="oslash" format="1">
  <advance width="1209"/>
  <unicode hex="00F8"/>
  <outline>
    <contour>
      <point x="343" y="-261" type="line"/>
      <point x="247" y="-229" type="line"/>
      <point x="355" y="37" type="line"/>
      <point x="192" y="121"/>
      <point x="92" y="290"/>
      <point x="92" y="511" type="curve" smooth="yes"/>
      <point x="92" y="833"/>
      <point x="303" y="1048"/>
      <point x="607" y="1048" type="curve" smooth="yes"/>
      <point x="661" y="1048"/>
      <point x="711" y="1041"/>
      <point x="758" y="1028" type="curve"/>
      <point x="859" y="1277" type="line"/>
      <point x="959" y="1245" type="line"/>
      <point x="853" y="990" type="line"/>
      <point x="1013" y="906"/>
      <point x="1114" y="735"/>
      <point x="1114" y="513" type="curve" smooth="yes"/>
      <point x="1114" y="192"/>
      <point x="908" y="-22"/>
      <point x="608" y="-22" type="curve" smooth="yes"/>
      <point x="551" y="-22"/>
      <point x="498" y="-15"/>
      <point x="449" y="-1" type="curve"/>
    </contour>
    <contour>
      <point x="412" y="175" type="curve"/>
      <point x="704" y="894" type="line"/>
      <point x="674" y="903"/>
      <point x="642" y="907"/>
      <point x="607" y="907" type="curve" smooth="yes"/>
      <point x="401" y="907"/>
      <point x="262" y="748"/>
      <point x="262" y="509" type="curve" smooth="yes"/>
      <point x="262" y="359"/>
      <point x="318" y="241"/>
    </contour>
    <contour>
      <point x="608" y="116" type="curve" smooth="yes"/>
      <point x="810" y="116"/>
      <point x="944" y="274"/>
      <point x="944" y="511" type="curve" smooth="yes"/>
      <point x="944" y="663"/>
      <point x="888" y="783"/>
      <point x="796" y="849" type="curve"/>
      <point x="503" y="131" type="line"/>
      <point x="536" y="121"/>
      <point x="571" y="116"/>
    </contour>
  </outline>
</glyph>
<glyph name="thorn" format="1">
  <advance width="1213"/>
  <unicode hex="00FE"/>
  <outline>
    <contour>
      <point x="158" y="-427" type="line"/>
      <point x="158" y="1455" type="line"/>
      <point x="325" y="1455" type="line"/>
      <point x="325" y="882" type="line"/>
      <point x="396" y="982"/>
      <point x="499" y="1051"/>
      <point x="654" y="1051" type="curve" smooth="yes"/>
      <point x="888" y="1051"/>
      <point x="1028" y="916"/>
      <point x="1084" y="728" type="curve" smooth="yes"/>
      <point x="1103" y="664"/>
      <point x="1113" y="598"/>
      <point x="1113" y="527" type="curve" smooth="yes"/>
      <point x="1113" y="284"/>
      <point x="1011" y="106"/>
      <point x="852" y="22" type="curve" smooth="yes"/>
      <point x="795" y="-8"/>
      <point x="730" y="-23"/>
      <point x="654" y="-23" type="curve" smooth="yes"/>
      <point x="516" y="-23"/>
      <point x="406" y="30"/>
      <point x="323" y="135" type="curve"/>
      <point x="323" y="-427" type="line"/>
    </contour>
    <contour>
      <point x="631" y="109" type="curve" smooth="yes"/>
      <point x="848" y="109"/>
      <point x="937" y="296"/>
      <point x="937" y="521" type="curve" smooth="yes"/>
      <point x="937" y="745"/>
      <point x="853" y="917"/>
      <point x="637" y="917" type="curve" smooth="yes"/>
      <point x="408" y="917"/>
      <point x="323" y="732"/>
      <point x="323" y="494" type="curve" smooth="yes"/>
      <point x="323" y="321"/>
      <point x="387" y="195"/>
      <point x="499" y="138" type="curve" smooth="yes"/>
      <point x="537" y="119"/>
      <point x="581" y="109"/>
    </contour>
  </outline>
</glyph>
<glyph name="Emacron" format="1">
  <advance width="1187"/>
  <unicode hex="0112"/>
  <outline>
    <contour>
      <point x="174" y="0" type="line"/>
      <point x="1091" y="0" type="line"/>
      <point x="1091" y="148" type="line"/>
      <point x="346" y="148" type="line"/>
      <point x="346" y="672" type="line"/>
      <point x="1003" y="672" type="line"/>
      <point x="1003" y="820" type="line"/>
      <point x="346" y="820" type="line"/>
      <point x="346" y="1308" type="line"/>
      <point x="1041" y="1308" type="line"/>
      <point x="1041" y="1456" type="line"/>
      <point x="174" y="1456" type="line"/>
    </contour>
    <contour>
      <point x="357" y="1613" type="line"/>
      <point x="929" y="1613" type="line"/>
      <point x="929" y="1747" type="line"/>
      <point x="357" y="1747" type="line"/>
    </contour>
  </outline>
</glyph>
<glyph name="Eogonek" format="1">
  <advance width="1187"/>
  <unicode hex="0118"/>
  <outline>
    <contour>
      <point x="174" y="1456" type="line"/>
      <point x="174" y="0" type="line"/>
      <point x="1091" y="0" type="line"/>
      <point x="1091" y="148" type="line"/>
      <point x="346" y="148" type="line"/>
      <point x="346" y="672" type="line"/>
      <point x="1003" y="672" type="line"/>
      <point x="1003" y="820" type="line"/>
      <point x="346" y="820" type="line"/>
      <point x="346" y="1308" type="line"/>
      <point x="1041" y="1308" type="line"/>
      <point x="1041" y="1456" type="line"/>
    </contour>
    <contour>
      <point x="799" y="-296" type="curve" smooth="yes"/>
      <point x="833" y="-357"/>
      <point x="906" y="-390"/>
      <point x="1000" y="-390" type="curve" smooth="yes"/>
      <point x="1064" y="-390"/>
      <point x="1131" y="-380"/>
      <point x="1177" y="-361" type="curve"/>
      <point x="1177" y="-250" type="line"/>
      <point x="1131" y="-268"/>
      <point x="1087" y="-281"/>
      <point x="1023" y="-281" type="curve" smooth="yes"/>
      <point x="972" y="-281"/>
      <point x="923" y="-250"/>
      <point x="923" y="-199" type="curve" smooth="yes"/>
      <point x="923" y="-183"/>
      <point x="928" y="-167"/>
      <point x="938" y="-151" type="curve" smooth="yes"/>
      <point x="980" y="-86"/>
      <point x="1057" y="-42"/>
      <point x="1126" y="0" type="curve"/>
      <point x="997" y="12" type="line"/>
      <point x="943" y="-14"/>
      <point x="889" y="-49"/>
      <point x="849" y="-89" type="curve" smooth="yes"/>
      <point x="816" y="-122"/>
      <point x="782" y="-167"/>
      <point x="782" y="-225" type="curve" smooth="yes"/>
      <point x="782" y="-252"/>
      <point x="788" y="-276"/>
    </contour>
  </outline>
</glyph>
<glyph name="eogonek" format="1">
  <advance width="1070"/>
  <unicode hex="0119"/>
  <outline>
    <contour>
      <point x="711" y="-354" type="curve" smooth="yes"/>
      <point x="775" y="-354"/>
      <point x="842" y="-344"/>
      <point x="888" y="-325" type="curve"/>
      <point x="888" y="-214" type="line"/>
      <point x="842" y="-232"/>
      <point x="798" y="-245"/>
      <point x="734" y="-245" type="curve" smooth="yes"/>
      <point x="683" y="-245"/>
      <point x="634" y="-214"/>
      <point x="634" y="-163" type="curve" smooth="yes"/>
      <point x="634" y="-147"/>
      <point x="639" y="-131"/>
      <point x="649" y="-115" type="curve" smooth="yes"/>
      <point x="679" y="-68"/>
      <point x="727" y="-33"/>
      <point x="777" y="-1" type="curve"/>
      <point x="876" y="26"/>
      <point x="965" y="78"/>
      <point x="1031" y="146" type="curve"/>
      <point x="948" y="252" type="line"/>
      <point x="881" y="176"/>
      <point x="758" y="116"/>
      <point x="619" y="116" type="curve" smooth="yes"/>
      <point x="471" y="116"/>
      <point x="325" y="219"/>
      <point x="285" y="371" type="curve"/>
      <point x="673" y="425"/>
      <point x="964" y="506"/>
      <point x="964" y="751" type="curve" smooth="yes"/>
      <point x="964" y="918"/>
      <point x="826" y="1048"/>
      <point x="610" y="1048" type="curve" smooth="yes"/>
      <point x="281" y="1048"/>
      <point x="90" y="797"/>
      <point x="90" y="516" type="curve" smooth="yes"/>
      <point x="90" y="196"/>
      <point x="303" y="-11"/>
      <point x="595" y="-22" type="curve"/>
      <point x="582" y="-32"/>
      <point x="571" y="-42"/>
      <point x="560" y="-53" type="curve" smooth="yes"/>
      <point x="527" y="-86"/>
      <point x="493" y="-131"/>
      <point x="493" y="-189" type="curve" smooth="yes"/>
      <point x="493" y="-216"/>
      <point x="499" y="-240"/>
      <point x="510" y="-260" type="curve" smooth="yes"/>
      <point x="544" y="-321"/>
      <point x="617" y="-354"/>
    </contour>
    <contour>
      <point x="273" y="490" type="curve"/>
      <point x="271" y="506"/>
      <point x="270" y="525"/>
      <point x="270" y="539" type="curve" smooth="yes"/>
      <point x="270" y="786"/>
      <point x="445" y="907"/>
      <point x="611" y="907" type="curve" smooth="yes"/>
      <point x="732" y="907"/>
      <point x="801" y="846"/>
      <point x="801" y="755" type="curve" smooth="yes"/>
      <point x="801" y="594"/>
      <point x="581" y="534"/>
    </contour>
  </outline>
</glyph>
<glyph name="gcommaaccent" format="1">
  <advance width="1119"/>
  <unicode hex="0123"/>
  <outline>
    <contour>
      <point x="514" y="-494" type="curve" smooth="yes"/>
      <point x="417" y="-494"/>
      <point x="289" y="-470"/>
      <point x="189" y="-433" type="curve"/>
      <point x="208" y="-280" type="line"/>
      <point x="298" y="-326"/>
      <point x="416" y="-357"/>
      <point x="501" y="-357" type="curve" smooth="yes"/>
      <point x="702" y="-357"/>
      <point x="835" y="-232"/>
      <point x="835" y="-44" type="curve" smooth="yes"/>
      <point x="835" y="133" type="line"/>
      <point x="763" y="39"/>
      <point x="632" y="-22"/>
      <point x="496" y="-22" type="curve" smooth="yes"/>
      <point x="256" y="-22"/>
      <point x="90" y="162"/>
      <point x="90" y="438" type="curve" smooth="yes"/>
      <point x="90" y="804"/>
      <point x="318" y="1048"/>
      <point x="650" y="1048" type="curve" smooth="yes"/>
      <point x="779" y="1048"/>
      <point x="919" y="1014"/>
      <point x="999" y="962" type="curve"/>
      <point x="999" y="-23" type="line" smooth="yes"/>
      <point x="999" y="-306"/>
      <point x="801" y="-494"/>
    </contour>
    <contour>
      <point x="520" y="116" type="curve" smooth="yes"/>
      <point x="709" y="116"/>
      <point x="835" y="261"/>
      <point x="835" y="453" type="curve" smooth="yes"/>
      <point x="835" y="872" type="line"/>
      <point x="795" y="893"/>
      <point x="720" y="907"/>
      <point x="647" y="907" type="curve" smooth="yes"/>
      <point x="415" y="907"/>
      <point x="260" y="723"/>
      <point x="260" y="448" type="curve" smooth="yes"/>
      <point x="260" y="249"/>
      <point x="364" y="116"/>
    </contour>
    <contour>
      <point x="416" y="1162" type="line"/>
      <point x="573" y="1625" type="line"/>
      <point x="699" y="1625" type="line"/>
      <point x="596" y="1162" type="line"/>
    </contour>
  </outline>
</glyph>
<glyph name="hbar" format="1">
  <advance width="1222"/>
  <unicode hex="0127"/>
  <outline>
    <contour>
      <point x="686" y="1048" type="curve" smooth="yes"/>
      <point x="519" y="1048"/>
      <point x="354" y="965"/>
      <point x="298" y="842" type="curve"/>
      <point x="316" y="532" type="line"/>
      <point x="316" y="795"/>
      <point x="499" y="907"/>
      <point x="651" y="907" type="curve" smooth="yes"/>
      <point x="805" y="907"/>
      <point x="867" y="804"/>
      <point x="867" y="562" type="curve"/>
      <point x="865" y="284" type="line" smooth="yes"/>
      <point x="863" y="48"/>
      <point x="912" y="-51"/>
      <point x="1130" y="-19" type="curve"/>
      <point x="1146" y="119" type="line"/>
      <point x="1022" y="95"/>
      <point x="1029" y="167"/>
      <point x="1030" y="320" type="curve" smooth="yes"/>
      <point x="1032" y="565" type="line" smooth="yes"/>
      <point x="1035" y="903"/>
      <point x="918" y="1048"/>
    </contour>
    <contour>
      <point x="152" y="1506" type="line"/>
      <point x="152" y="0" type="line"/>
      <point x="316" y="0" type="line"/>
      <point x="316" y="1526" type="line"/>
    </contour>
    <contour>
      <point x="331" y="1624" type="line"/>
      <point x="903" y="1624" type="line"/>
      <point x="903" y="1758" type="line"/>
      <point x="331" y="1758" type="line"/>
    </contour>
  </outline>
</glyph>
<glyph name="Imacron" format="1">
  <advance width="544"/>
  <unicode hex="012A"/>
  <outline>
    <contour>
      <point x="186" y="1456" type="line"/>
      <point x="186" y="0" type="line"/>
      <point x="358" y="0" type="line"/>
      <point x="358" y="1456" type="line"/>
    </contour>
    <contour>
      <point x="-14" y="1613" type="line"/>
      <point x="558" y="1613" type="line"/>
      <point x="558" y="1747" type="line"/>
      <point x="-14" y="1747" type="line"/>
    </contour>
  </outline>
</glyph>
<glyph name="Iogonek" format="1">
  <advance width="544"/>
  <unicode hex="012E"/>
  <outline>
    <contour>
      <point x="186" y="1456" type="line"/>
      <point x="186" y="0" type="line"/>
      <point x="358" y="0" type="line"/>
      <point x="358" y="1456" type="line"/>
    </contour>
    <contour>
      <point x="43" y="-296" type="curve" smooth="yes"/>
      <point x="77" y="-357"/>
      <point x="150" y="-390"/>
      <point x="244" y="-390" type="curve" smooth="yes"/>
      <point x="308" y="-390"/>
      <point x="375" y="-380"/>
      <point x="421" y="-361" type="curve"/>
      <point x="421" y="-250" type="line"/>
      <point x="375" y="-268"/>
      <point x="331" y="-281"/>
      <point x="267" y="-281" type="curve" smooth="yes"/>
      <point x="216" y="-281"/>
      <point x="167" y="-250"/>
      <point x="167" y="-199" type="curve" smooth="yes"/>
      <point x="167" y="-183"/>
      <point x="172" y="-167"/>
      <point x="182" y="-151" type="curve" smooth="yes"/>
      <point x="224" y="-86"/>
      <point x="301" y="-42"/>
      <point x="370" y="0" type="curve"/>
      <point x="241" y="12" type="line"/>
      <point x="187" y="-14"/>
      <point x="133" y="-49"/>
      <point x="93" y="-89" type="curve" smooth="yes"/>
      <point x="60" y="-122"/>
      <point x="26" y="-167"/>
      <point x="26" y="-225" type="curve" smooth="yes"/>
      <point x="26" y="-252"/>
      <point x="32" y="-276"/>
    </contour>
  </outline>
</glyph>
<glyph name="dotlessi" format="1">
  <advance width="633"/>
  <unicode hex="0131"/>
  <outline>
    <contour>
      <point x="659" y="26" type="curve"/>
      <point x="636" y="145" type="line"/>
      <point x="500" y="96"/>
      <point x="357" y="74"/>
      <point x="357" y="267" type="curve" smooth="yes"/>
      <point x="357" y="1026" type="line"/>
      <point x="193" y="1026" type="line"/>
      <point x="193" y="262" type="line" smooth="yes"/>
      <point x="193" y="-19"/>
      <point x="427" y="-69"/>
    </contour>
  </outline>
</glyph>
<glyph name="kgreenlandic" format="1">
  <advance width="1061"/>
  <unicode hex="0138"/>
  <outline>
    <contour>
      <point x="178" y="0" type="line"/>
      <point x="178" y="1026" type="line"/>
      <point x="343" y="1026" type="line"/>
      <point x="343" y="557" type="line"/>
      <point x="790" y="1026" type="line"/>
      <point x="1014" y="1026" type="line"/>
      <point x="498" y="512" type="line"/>
      <point x="681" y="338"/>
      <point x="861" y="174"/>
      <point x="1052" y="0" type="curve"/>
      <point x="833" y="0" type="line"/>
      <point x="343" y="471" type="line"/>
      <point x="343" y="0" type="line"/>
    </contour>
  </outline>
</glyph>
<glyph name="Ldot" format="1">
  <advance width="1069"/>
  <unicode hex="013F"/>
  <outline>
    <contour>
      <point x="174" y="0" type="line"/>
      <point x="1045" y="0" type="line"/>
      <point x="1045" y="148" type="line"/>
      <point x="346" y="148" type="line"/>
      <point x="346" y="1456" type="line"/>
      <point x="174" y="1456" type="line"/>
    </contour>
    <contour>
      <point x="640" y="1132" type="line"/>
      <point x="857" y="1132" type="line"/>
      <point x="857" y="1342" type="line"/>
      <point x="640" y="1342" type="line"/>
    </contour>
  </outline>
</glyph>
<glyph name="ldot" format="1">
  <advance width="686"/>
  <unicode hex="0140"/>
  <outline>
    <contour>
      <point x="720" y="35" type="curve"/>
      <point x="695" y="152" type="line"/>
      <point x="519" y="77"/>
      <point x="332" y="84"/>
      <point x="332" y="292" type="curve" smooth="yes"/>
      <point x="332" y="1526" type="line"/>
      <point x="168" y="1496" type="line"/>
      <point x="168" y="300" type="line" smooth="yes"/>
      <point x="168" y="-9"/>
      <point x="450" y="-82"/>
    </contour>
    <contour>
      <point x="518" y="1132" type="line"/>
      <point x="735" y="1132" type="line"/>
      <point x="735" y="1342" type="line"/>
      <point x="518" y="1342" type="line"/>
    </contour>
  </outline>
</glyph>
<glyph name="Lslash" format="1">
  <advance width="1076"/>
  <unicode hex="0141"/>
  <outline>
    <component base="L"/>
    <contour>
      <point x="653" y="890" type="line"/>
      <point x="25" y="489" type="line"/>
      <point x="25" y="626" type="line"/>
      <point x="653" y="1027" type="line"/>
    </contour>
  </outline>
</glyph>
<glyph name="lslash" format="1">
  <advance width="503"/>
  <unicode hex="0142"/>
  <outline>
    <contour>
      <point x="168" y="0" type="line"/>
      <point x="168" y="689" type="line"/>
      <point x="0" y="589" type="line"/>
      <point x="0" y="726" type="line"/>
      <point x="168" y="826" type="line"/>
      <point x="168" y="1492" type="line"/>
      <point x="333" y="1492" type="line"/>
      <point x="333" y="925" type="line"/>
      <point x="504" y="1027" type="line"/>
      <point x="504" y="890" type="line"/>
      <point x="333" y="788" type="line"/>
      <point x="333" y="0" type="line"/>
    </contour>
  </outline>
</glyph>
<glyph name="Nacute" format="1">
  <advance width="1570"/>
  <unicode hex="0143"/>
  <outline>
    <contour>
      <point x="174" y="0" type="line"/>
      <point x="346" y="0" type="line"/>
      <point x="346" y="1237" type="line"/>
      <point x="418" y="1113" type="line"/>
      <point x="1188" y="0" type="line"/>
      <point x="1396" y="0" type="line"/>
      <point x="1396" y="1456" type="line"/>
      <point x="1225" y="1456" type="line"/>
      <point x="1225" y="215" type="line"/>
      <point x="1147" y="342" type="line"/>
      <point x="380" y="1456" type="line"/>
      <point x="174" y="1456" type="line"/>
    </contour>
    <contour>
      <point x="714" y="1602" type="line"/>
      <point x="844" y="1602" type="line"/>
      <point x="1152" y="1922" type="line"/>
      <point x="940" y="1922" type="line"/>
    </contour>
  </outline>
</glyph>
<glyph name="OE" format="1">
  <advance width="2074"/>
  <unicode hex="0152"/>
  <outline>
    <contour>
      <point x="818" y="-23" type="curve" smooth="yes"/>
      <point x="360" y="-23"/>
      <point x="124" y="288"/>
      <point x="124" y="729" type="curve" smooth="yes"/>
      <point x="124" y="1208"/>
      <point x="406" y="1483"/>
      <point x="825" y="1483" type="curve" smooth="yes"/>
      <point x="951" y="1483"/>
      <point x="1048" y="1439"/>
      <point x="1127" y="1381" type="curve"/>
      <point x="1127" y="1456" type="line"/>
      <point x="1930" y="1456" type="line"/>
      <point x="1930" y="1308" type="line"/>
      <point x="1299" y="1308" type="line"/>
      <point x="1299" y="820" type="line"/>
      <point x="1892" y="820" type="line"/>
      <point x="1892" y="672" type="line"/>
      <point x="1299" y="672" type="line"/>
      <point x="1299" y="148" type="line"/>
      <point x="1960" y="148" type="line"/>
      <point x="1960" y="0" type="line"/>
      <point x="1127" y="0" type="line"/>
      <point x="1127" y="105" type="line"/>
      <point x="1049" y="32"/>
      <point x="953" y="-23"/>
    </contour>
    <contour>
      <point x="816" y="125" type="curve" smooth="yes"/>
      <point x="956" y="125"/>
      <point x="1054" y="186"/>
      <point x="1127" y="265" type="curve"/>
      <point x="1127" y="1219" type="line"/>
      <point x="1051" y="1288"/>
      <point x="955" y="1335"/>
      <point x="819" y="1335" type="curve" smooth="yes"/>
      <point x="471" y="1335"/>
      <point x="308" y="1082"/>
      <point x="308" y="725" type="curve" smooth="yes"/>
      <point x="308" y="356"/>
      <point x="494" y="125"/>
    </contour>
  </outline>
</glyph>
<glyph name="oe" format="1">
  <advance width="1919"/>
  <unicode hex="0153"/>
  <outline>
    <contour>
      <point x="596" y="-28" type="curve" smooth="yes"/>
      <point x="350" y="-28"/>
      <point x="195" y="110"/>
      <point x="127" y="300" type="curve" smooth="yes"/>
      <point x="104" y="365"/>
      <point x="92" y="435"/>
      <point x="92" y="509" type="curve" smooth="yes"/>
      <point x="92" y="761"/>
      <point x="217" y="932"/>
      <point x="391" y="1010" type="curve" smooth="yes"/>
      <point x="454" y="1039"/>
      <point x="525" y="1053"/>
      <point x="606" y="1053" type="curve" smooth="yes"/>
      <point x="808" y="1053"/>
      <point x="925" y="964"/>
      <point x="1000" y="821" type="curve"/>
      <point x="1068" y="963"/>
      <point x="1185" y="1053"/>
      <point x="1378" y="1053" type="curve" smooth="yes"/>
      <point x="1676" y="1053"/>
      <point x="1818" y="835"/>
      <point x="1818" y="525" type="curve" smooth="yes"/>
      <point x="1818" y="472" type="line"/>
      <point x="1086" y="470" type="line"/>
      <point x="1086" y="450" type="line"/>
      <point x="1090" y="296"/>
      <point x="1154" y="185"/>
      <point x="1263" y="135" type="curve" smooth="yes"/>
      <point x="1301" y="118"/>
      <point x="1344" y="109"/>
      <point x="1394" y="109" type="curve" smooth="yes"/>
      <point x="1547" y="109"/>
      <point x="1658" y="192"/>
      <point x="1721" y="292" type="curve"/>
      <point x="1809" y="206" type="line"/>
      <point x="1730" y="63"/>
      <point x="1589" y="-28"/>
      <point x="1383" y="-28" type="curve" smooth="yes"/>
      <point x="1186" y="-28"/>
      <point x="1055" y="62"/>
      <point x="995" y="209" type="curve"/>
      <point x="934" y="57"/>
      <point x="799" y="-28"/>
    </contour>
    <contour>
      <point x="606" y="109" type="curve" smooth="yes"/>
      <point x="822" y="109"/>
      <point x="918" y="287"/>
      <point x="918" y="511" type="curve" smooth="yes"/>
      <point x="918" y="745"/>
      <point x="823" y="917"/>
      <point x="598" y="917" type="curve" smooth="yes"/>
      <point x="426" y="917"/>
      <point x="327" y="802"/>
      <point x="287" y="663" type="curve" smooth="yes"/>
      <point x="273" y="614"/>
      <point x="265" y="562"/>
      <point x="265" y="507" type="curve" smooth="yes"/>
      <point x="265" y="327"/>
      <point x="335" y="200"/>
      <point x="454" y="141" type="curve" smooth="yes"/>
      <point x="496" y="120"/>
      <point x="547" y="109"/>
    </contour>
    <contour>
      <point x="1086" y="609" type="curve"/>
      <point x="1645" y="609" type="line"/>
      <point x="1645" y="793"/>
      <point x="1560" y="917"/>
      <point x="1383" y="917" type="curve" smooth="yes"/>
      <point x="1243" y="917"/>
      <point x="1153" y="830"/>
      <point x="1112" y="725" type="curve" smooth="yes"/>
      <point x="1098" y="688"/>
      <point x="1089" y="649"/>
    </contour>
  </outline>
</glyph>
<glyph name="Ydieresis" format="1">
  <advance width="1256"/>
  <unicode hex="0178"/>
  <outline>
    <contour>
      <point x="1061" y="1456" type="line"/>
      <point x="626" y="727" type="line"/>
      <point x="195" y="1456" type="line"/>
      <point x="4" y="1456" type="line"/>
      <point x="537" y="582" type="line"/>
      <point x="537" y="0" type="line"/>
      <point x="709" y="0" type="line"/>
      <point x="709" y="585" type="line"/>
      <point x="1252" y="1456" type="line"/>
    </contour>
    <contour>
      <point x="379" y="1613" type="line"/>
      <point x="543" y="1613" type="line"/>
      <point x="543" y="1776" type="line"/>
      <point x="379" y="1776" type="line"/>
    </contour>
    <contour>
      <point x="711" y="1613" type="line"/>
      <point x="875" y="1613" type="line"/>
      <point x="875" y="1776" type="line"/>
      <point x="711" y="1776" type="line"/>
    </contour>
  </outline>
</glyph>
